<svg width="80" height="104" viewBox="0 0 80 104" fill="none" xmlns="http://www.w3.org/2000/svg">
<path d="M21.2304 64.4077C19.878 63.982 18.5786 63.4444 17.3362 62.7919L17.3002 62.773L17.2647 62.7533C14.9172 61.45 12.7575 59.5044 10.7534 57.0782L10.744 57.0668L10.7347 57.0554C8.58689 54.4102 6.93567 51.2392 5.72869 47.6172C3.23708 40.1402 2.83406 33.3551 5.30622 27.6742C7.46672 22.7095 11.5748 19.1463 17.1039 16.7747L17.0733 16.6828C16.7406 15.6846 16.4443 14.5608 16.4345 13.4991C16.426 12.5841 16.7 10.1009 19.2593 9.24802L23.7418 7.75432C24.8765 7.37617 26.4184 7.23444 27.9025 8.08446C29.2808 8.87389 29.9564 10.1537 30.2963 11.1551L31.0143 13.1709C31.9225 13.0801 32.8192 13.0221 33.7041 12.9978C35.5002 12.9483 37.1774 13.0552 38.6835 13.3767C39.1978 13.4646 39.702 13.5649 40.1956 13.6783L40.0646 13.2343C39.6957 12.227 39.4353 10.7914 40.0753 9.308C40.7753 7.68568 42.1616 6.89614 43.2551 6.53174L48.5171 4.77827C49.2184 4.54457 50.0241 4.3206 50.8049 4.25974C51.1907 4.22966 51.7914 4.21935 52.4539 4.40595C53.0701 4.5795 53.892 4.97586 54.5081 5.79494C55.0358 6.45757 55.2781 7.17367 55.3782 7.47417L63.4255 31.6232C63.6905 32.4184 63.9612 33.441 63.9158 34.4758C63.8919 35.0204 63.7722 35.792 63.3179 36.5626C62.8171 37.4122 62.0374 38.0379 61.1107 38.3467L61.1099 38.3469L61.1091 38.3472L61.1084 38.3474L61.1076 38.3477L61.1068 38.348L61.1061 38.3482L61.1053 38.3485L61.1045 38.3487L61.1037 38.349L61.1029 38.3493L61.1022 38.3495L61.1014 38.3498L61.1006 38.35L61.0998 38.3503L61.099 38.3506L61.0982 38.3508L61.0974 38.3511L61.0966 38.3514L61.0958 38.3516L61.095 38.3519L61.0942 38.3522L61.0934 38.3524L61.0926 38.3527L61.0918 38.353L61.0909 38.3533L61.0901 38.3535L61.0893 38.3538L61.0885 38.3541L61.0877 38.3544L61.0868 38.3546L61.086 38.3549L61.0852 38.3552L61.0843 38.3555L61.0835 38.3557L61.0827 38.356L61.0818 38.3563L61.081 38.3566L61.0801 38.3569L61.0793 38.3571L61.0784 38.3574L61.0776 38.3577L61.0767 38.358L61.0759 38.3583L61.075 38.3586L61.0741 38.3589L61.0733 38.3591L61.0724 38.3594L61.0716 38.3597L61.0707 38.36L61.0698 38.3603L61.0689 38.3606L61.0681 38.3609L61.0672 38.3612L61.0663 38.3615L61.0654 38.3618L61.0645 38.3621L61.0636 38.3623L61.0628 38.3626L61.0619 38.3629L61.061 38.3632L61.0601 38.3635L61.0592 38.3638L61.0583 38.3641L61.0574 38.3644L61.0565 38.3647L61.0556 38.365L61.0547 38.3653L61.0537 38.3657L61.0528 38.366L61.0519 38.3663L61.051 38.3666L61.0501 38.3669L61.0491 38.3672L61.0482 38.3675L61.0473 38.3678L61.0464 38.3681L61.0454 38.3684L61.0445 38.3687L61.0436 38.369L61.0426 38.3694L61.0417 38.3697L61.0407 38.37L61.0398 38.3703L61.0388 38.3706L61.0379 38.3709L61.0369 38.3712L61.036 38.3716L61.035 38.3719L61.0341 38.3722L61.0331 38.3725L61.0322 38.3728L61.0312 38.3732L61.0302 38.3735L61.0292 38.3738L61.0283 38.3741L61.0273 38.3745L61.0263 38.3748L61.0253 38.3751L61.0244 38.3754L61.0234 38.3758L61.0224 38.3761L61.0214 38.3764L61.0204 38.3768L61.0194 38.3771L61.0184 38.3774L61.0174 38.3777L61.0164 38.3781L61.0154 38.3784L61.0144 38.3787L61.0134 38.3791L61.0124 38.3794L61.0114 38.3798L61.0104 38.3801L61.0094 38.3804L61.0084 38.3808L61.0073 38.3811L61.0063 38.3815L61.0053 38.3818L61.0043 38.3821L61.0033 38.3825L61.0022 38.3828L61.0012 38.3832L61.0002 38.3835L60.9991 38.3839L60.9981 38.3842L60.997 38.3845L60.996 38.3849L60.9949 38.3852L60.9939 38.3856L60.9928 38.3859L60.9918 38.3863L60.9907 38.3866L60.9897 38.387L60.9886 38.3873L60.9876 38.3877L60.9865 38.3881L60.9854 38.3884L60.9844 38.3888L60.9833 38.3891L60.9822 38.3895L60.9812 38.3898L60.9801 38.3902L60.979 38.3906L60.9779 38.3909L60.9768 38.3913L60.9757 38.3916L60.9747 38.392L60.9736 38.3924L60.9725 38.3927L60.9714 38.3931L60.9703 38.3935L60.9692 38.3938L60.9681 38.3942L60.967 38.3946L60.9659 38.3949L60.9648 38.3953L60.9637 38.3957L60.9625 38.396L60.9614 38.3964L60.9603 38.3968L60.9592 38.3972L60.9581 38.3975L60.9569 38.3979L60.9558 38.3983L60.9547 38.3987L60.9536 38.399L60.9524 38.3994L60.9513 38.3998L60.9502 38.4002L60.949 38.4005L60.9479 38.4009L60.9467 38.4013L60.9456 38.4017L60.9444 38.4021L60.9433 38.4025L60.9421 38.4028L60.941 38.4032L60.9398 38.4036L60.9387 38.404L60.9375 38.4044L60.9363 38.4048L60.9352 38.4052L60.934 38.4056L60.9328 38.4059L60.9317 38.4063L60.9305 38.4067L60.9293 38.4071L60.9281 38.4075L60.9269 38.4079L60.9258 38.4083L60.9246 38.4087L60.9234 38.4091L60.9222 38.4095L60.921 38.4099L60.9198 38.4103L60.9186 38.4107L60.9174 38.4111L60.9162 38.4115L60.915 38.4119L60.9138 38.4123L60.9126 38.4127L60.9114 38.4131L60.9102 38.4135L60.909 38.4139L60.9077 38.4143L60.9065 38.4147L60.9053 38.4151L60.9041 38.4155L60.9028 38.4159L60.9016 38.4163L60.9004 38.4168L60.8992 38.4172L60.8979 38.4176L60.8967 38.418L60.8954 38.4184L60.8942 38.4188L60.893 38.4192L60.8917 38.4196L60.8905 38.4201L60.8892 38.4205L60.888 38.4209L60.8867 38.4213L60.8854 38.4217L60.8842 38.4222L60.8829 38.4226L60.8817 38.423L60.8804 38.4234L60.8791 38.4238L60.8779 38.4243L60.8766 38.4247L60.8753 38.4251L60.874 38.4255L60.8727 38.426L60.8715 38.4264L60.8702 38.4268L60.8689 38.4272L60.8676 38.4277L60.8663 38.4281L60.865 38.4285L60.8637 38.429L60.8624 38.4294L60.8611 38.4298L60.8598 38.4303L60.8585 38.4307L60.8572 38.4311L60.8559 38.4316L60.8546 38.432L60.8533 38.4325L60.852 38.4329L60.8506 38.4333L60.8493 38.4338L60.848 38.4342L60.8467 38.4347L60.8454 38.4351L60.844 38.4355L60.8427 38.436L60.8414 38.4364L60.84 38.4369L60.8387 38.4373L60.8373 38.4378L60.836 38.4382L60.8347 38.4387L60.8333 38.4391L60.832 38.4396L60.8306 38.44L60.8293 38.4405L60.8279 38.4409L60.8265 38.4414L60.8252 38.4418L60.8238 38.4423L60.8225 38.4427L60.8211 38.4432L60.8197 38.4436L60.8183 38.4441L60.817 38.4445L60.8156 38.445L60.8142 38.4455L60.8128 38.4459L60.8115 38.4464L60.8101 38.4468L60.8087 38.4473L60.8073 38.4478L60.8059 38.4482L60.8045 38.4487L60.8031 38.4492L60.8017 38.4496L60.8003 38.4501L60.7989 38.4506L60.7975 38.451L60.7961 38.4515L60.7947 38.452L60.7933 38.4524L60.7919 38.4529L60.7905 38.4534L60.789 38.4539L60.7876 38.4543L60.7862 38.4548L60.7848 38.4553L60.7833 38.4558L60.7819 38.4562L60.7805 38.4567L60.7791 38.4572L60.7776 38.4577L60.7762 38.4581L60.7747 38.4586L60.7733 38.4591L60.7718 38.4596L60.7704 38.4601L60.7689 38.4606L60.7675 38.461L60.766 38.4615L60.7646 38.462L60.7631 38.4625L60.7617 38.463L60.7602 38.4635L60.7587 38.464L60.7573 38.4644L60.7558 38.4649L60.7543 38.4654L60.7529 38.4659L60.7514 38.4664L60.7499 38.4669L60.7484 38.4674L60.7469 38.4679L60.7455 38.4684L60.744 38.4689L60.7425 38.4694L60.741 38.4699L60.7395 38.4704L60.738 38.4709L60.7365 38.4714L60.735 38.4719L60.7335 38.4724L60.732 38.4729L60.7305 38.4734L60.729 38.4739L60.7275 38.4744L60.726 38.4749L60.7244 38.4754L60.7229 38.4759L60.7214 38.4764L60.7199 38.4769L60.7183 38.4774L60.7168 38.4779L60.7153 38.4784L60.7138 38.4789L60.7122 38.4795L60.7107 38.48L60.7091 38.4805L60.7076 38.481L60.7061 38.4815L60.7045 38.482L60.703 38.4825L60.7014 38.4831L60.6999 38.4836L60.6983 38.4841L60.6968 38.4846L60.6952 38.4851L60.6936 38.4856L60.6921 38.4862L60.6905 38.4867L60.6889 38.4872L60.6874 38.4877L60.6858 38.4883L60.6842 38.4888L60.6827 38.4893L60.6811 38.4898L60.6795 38.4904L60.6779 38.4909L60.6763 38.4914L60.6747 38.4919L60.6731 38.4925L60.6716 38.493L60.67 38.4935L60.6684 38.4941L60.6668 38.4946L60.6652 38.4951L60.6636 38.4957L60.662 38.4962L60.6603 38.4967L60.6587 38.4973L60.6571 38.4978L60.6555 38.4984L60.6539 38.4989L60.6523 38.4994L60.6507 38.5L60.649 38.5005L60.6474 38.5011L60.6458 38.5016L60.6442 38.5021L60.6425 38.5027L60.6409 38.5032L60.6392 38.5038L60.6376 38.5043L60.636 38.5049L60.6343 38.5054L60.6327 38.506L60.631 38.5065L60.6294 38.5071L60.6277 38.5076L60.6261 38.5082L60.6244 38.5087L60.6228 38.5093L60.6211 38.5098L60.6194 38.5104L60.6178 38.5109L60.6161 38.5115L60.6144 38.512L60.6128 38.5126L60.6111 38.5132L60.6094 38.5137L60.6077 38.5143L60.606 38.5148L60.6044 38.5154L60.6027 38.516L60.601 38.5165L60.5993 38.5171L60.5976 38.5177L60.5959 38.5182L60.5942 38.5188L60.5925 38.5193L60.5908 38.5199L60.5891 38.5205L60.5874 38.5211L60.5857 38.5216L60.584 38.5222L60.5823 38.5228L60.5806 38.5233L60.5788 38.5239L60.5771 38.5245L60.5754 38.5251L60.5737 38.5256L60.572 38.5262L60.5702 38.5268L60.5685 38.5274L60.5668 38.5279L60.565 38.5285L60.5633 38.5291L60.5615 38.5297L60.5598 38.5302L60.5581 38.5308L60.5563 38.5314L60.5546 38.532L60.5528 38.5326L60.5511 38.5332L60.5493 38.5337L60.5476 38.5343L60.5458 38.5349L60.544 38.5355L60.5423 38.5361L60.5405 38.5367L60.5387 38.5373L60.537 38.5379L60.5352 38.5384L60.5334 38.539L60.5316 38.5396L60.5299 38.5402L60.5281 38.5408L60.5263 38.5414L60.5245 38.542L60.5227 38.5426L60.5209 38.5432L60.5191 38.5438L60.5173 38.5444L60.5155 38.545L60.5137 38.5456L60.5119 38.5462L60.5101 38.5468L60.5083 38.5474L60.5065 38.548L60.5047 38.5486L60.5029 38.5492L60.5011 38.5498L60.4993 38.5504L60.4974 38.551L60.4956 38.5516L60.4938 38.5522L60.492 38.5528L60.4901 38.5535L60.4883 38.5541L60.4865 38.5547L60.4846 38.5553L60.4828 38.5559L60.481 38.5565L60.4791 38.5571L60.4773 38.5577L60.4754 38.5584L60.4736 38.559L60.4717 38.5596L60.4699 38.5602L60.468 38.5608L60.4662 38.5614L60.4643 38.5621L60.4625 38.5627L60.4606 38.5633L60.4587 38.5639L60.4569 38.5646L60.455 38.5652L60.4531 38.5658L60.4512 38.5664L60.4494 38.5671L60.4475 38.5677L60.4456 38.5683L60.4437 38.5689L60.4418 38.5696L60.4399 38.5702L60.438 38.5708L60.4362 38.5715L60.4343 38.5721L60.4324 38.5727L60.4305 38.5733L60.4286 38.574L60.1013 38.683L59.759 38.7261C59.6585 38.7388 59.5931 38.7498 59.5568 38.7567L59.5135 38.7712L59.4084 38.7991L53.056 40.4858C51.2112 40.991 49.676 41.3716 48.4806 41.6113C47.8839 41.731 47.3205 41.826 46.8172 41.8799C46.3971 41.9248 45.7093 41.9797 45.0111 41.8501L44.8721 41.8244L44.7357 41.7874C43.3585 41.415 42.4235 40.5051 41.8395 39.759C41.2339 38.9852 40.7531 38.0662 40.3546 37.1285L40.3504 37.1186C40.1246 36.5828 39.7283 36.0415 39.0026 35.532L42.1818 44.4427C46.5618 43.3061 50.783 42.6407 54.8389 42.4678C59.7736 42.2573 64.0714 42.7687 67.3546 44.401C70.2684 45.8496 72.4756 48.0602 73.4927 51.1123C74.1028 52.9433 74.1764 54.8336 73.8186 56.7148C75.4138 62.3808 74.5155 68.1609 71.4769 73.8563L71.4763 73.8575C68.5834 79.2748 63.5787 83.3256 56.9132 86.2134L57.1448 86.854L57.1597 86.8953L57.1736 86.937C57.4081 87.6407 57.6804 88.7726 57.3628 90.0071C56.9671 91.5449 55.8403 92.5791 54.5351 93.014L48.6884 94.9623C48.2082 95.1224 47.6506 95.2746 47.0702 95.3396C46.6165 95.3904 45.7633 95.4365 44.8494 95.0684C43.5525 94.5767 42.9205 93.5233 42.7428 93.2228C42.4367 92.7046 42.2181 92.1398 42.0555 91.6517L42.0128 91.5235L41.9801 91.3925C41.8923 91.041 41.7538 90.5535 41.5598 89.9212C40.5239 89.8961 39.5028 89.8043 38.498 89.6432L38.469 89.6386C38.9543 91.3122 39.2738 93.9567 37.1974 95.8775C36.4966 96.5258 35.6224 97.0052 34.8393 97.3709C34.0034 97.7612 33.0115 98.1391 31.8986 98.51L28.683 99.5815C28.325 99.7008 27.8673 99.8277 27.3633 99.8803C26.9232 99.9263 26.0247 99.9646 25.0768 99.4934L24.5674 99.2402L24.1644 98.8386C23.609 98.2852 23.3226 97.6266 23.2427 97.4428C23.2397 97.4358 23.2369 97.4295 23.2345 97.4239C23.0984 97.1131 22.9739 96.7691 22.8614 96.4315L14.5879 71.6035C14.4647 71.234 14.3348 70.7744 14.2736 70.281C14.2262 69.8984 14.1364 68.9169 14.6534 67.8893M21.2304 64.4077L14.6534 67.8893M21.2304 64.4077L17.7782 65.5581C17.3714 65.6937 16.9131 65.8667 16.4864 66.0922L16.4728 66.0994C16.2168 66.2343 15.2223 66.7584 14.6534 67.8893M21.2304 64.4077L14.6534 67.8893M51.6295 62.0565L51.4445 62.9713L51.7396 63.8567C51.9125 64.3755 51.9435 65.0125 51.1368 66.1002C50.8743 66.4542 50.5796 66.7893 50.249 67.1043L48.2311 61.4625C49.7198 61.1606 50.8502 61.0463 51.6618 61.0702C51.7094 61.0716 51.7546 61.0733 51.7975 61.0754C51.7618 61.345 51.7076 61.6702 51.6295 62.0565ZM52.4976 61.1762C52.4947 61.1779 52.4687 61.1711 52.4282 61.1507C52.4803 61.1642 52.5005 61.1745 52.4976 61.1762ZM24.1729 37.7609C24.1798 37.7448 24.1867 37.7287 24.1938 37.7126C25.0978 40.4097 25.9197 42.8461 26.6592 45.0213C25.3746 43.9222 24.5715 42.7088 24.1281 41.3781C23.6623 39.9803 23.7257 38.8328 24.1729 37.7609Z" fill="black" stroke="black" stroke-width="7"/>
<path d="M53.0997 62.3538L52.994 62.8765L53.1626 63.3825C53.52 64.4548 53.3789 65.5953 52.3416 66.9938C51.6073 67.9839 50.6762 68.831 49.5222 69.5261L46.2492 60.3756C48.6342 59.7794 50.4353 59.5335 51.7058 59.5708C52.5067 59.5943 52.9495 59.7279 53.1637 59.8381C53.3087 59.9127 53.321 59.9551 53.3282 59.9801C53.3288 59.9823 53.3294 59.9843 53.3301 59.9863C53.3294 59.9842 53.3295 59.9848 53.3302 59.9884C53.3352 60.0136 53.3695 60.1863 53.3497 60.5895C53.3284 61.0216 53.2515 61.6032 53.0997 62.3538ZM42.3058 15.5287L42.3156 15.5619L42.3266 15.5948C42.3572 15.6867 42.3879 15.778 42.4185 15.8688C42.2148 15.802 42.0062 15.7377 41.793 15.6756C40.7352 15.3278 39.6027 15.0542 38.4 14.8501C37.0374 14.5558 35.4757 14.4495 33.7454 14.4972C32.5248 14.5308 31.2766 14.6313 30.0013 14.7974L28.8793 11.6472C28.6029 10.8281 28.0997 9.92599 27.157 9.38608C26.1561 8.81277 25.0871 8.88708 24.216 9.17739L19.7335 10.6711C18.1458 11.2002 17.9275 12.7475 17.9344 13.4851C17.942 14.3067 18.177 15.2502 18.4963 16.2086L18.9724 17.6373C13.0297 19.8944 8.80675 23.3893 6.68163 28.2727C4.41495 33.4814 4.72149 39.85 7.15175 47.143C8.31238 50.6259 9.88489 53.6291 11.8992 56.1099L11.9045 56.1164L11.9099 56.1229C13.8328 58.4508 15.8543 60.2546 17.9928 61.4418L18.0131 61.4531L18.0336 61.4639C20.1587 62.5799 22.4719 63.3418 24.9599 63.7595L24.9858 63.7638L25.0118 63.7675C25.8682 63.8883 26.6897 63.981 27.4753 64.0444C26.5036 64.2752 25.4081 64.5966 24.1966 65.0004L18.2525 66.9812C17.8808 67.105 17.5098 67.2479 17.1871 67.4185C16.9756 67.5302 16.3432 67.868 15.9934 68.5634C15.6794 69.1876 15.7259 69.8039 15.7622 70.0964C15.8063 70.4523 15.9036 70.8073 16.0109 71.1293L24.2845 95.9572C24.3903 96.2749 24.4984 96.5707 24.6085 96.8222L24.6104 96.8265C24.6824 96.9909 24.8736 97.4278 25.2232 97.7761L25.4534 98.0055L25.7445 98.1502C26.3232 98.4379 26.8889 98.4217 27.2076 98.3885C27.5629 98.3514 27.9067 98.2591 28.2088 98.1585L31.4244 97.0869C32.5058 96.7265 33.4392 96.3692 34.2046 96.0118C34.9398 95.6684 35.6483 95.2671 36.1788 94.7764C37.7283 93.3429 37.4293 91.2366 36.9173 89.7002L36.6265 88.8274C36.4727 88.3658 36.3387 87.9474 36.2233 87.5707C36.9258 87.7537 37.7269 87.9435 38.6219 88.1406L38.6783 88.153L38.7354 88.1621C40.0105 88.3665 41.3197 88.4521 42.6608 88.4227C43.0383 89.5977 43.2936 90.461 43.4354 91.0293L43.4541 91.1042L43.4785 91.1774C43.6269 91.6226 43.8061 92.0735 44.0342 92.4596C44.1853 92.7153 44.5975 93.3725 45.3925 93.6699C45.9756 93.9098 46.5458 93.889 46.9033 93.8489C47.3393 93.8001 47.7866 93.6818 48.2142 93.5393L54.0608 91.591C54.932 91.3007 55.6537 90.6299 55.9101 89.6333C56.1219 88.81 55.9492 88.0073 55.7505 87.4112L55.7426 87.3874L55.734 87.3638L55.016 85.3769C62.1362 82.5482 67.2861 78.5198 70.1531 73.1509L70.1535 73.1502C73.1041 67.6196 73.8828 62.1215 72.2744 56.7771C72.6687 54.9987 72.6248 53.2526 72.0696 51.5866C71.2022 48.9835 69.3158 47.0511 66.6869 45.7441C63.7355 44.2769 59.7356 43.7603 54.9028 43.9664C50.5624 44.1515 46.0046 44.9186 41.2345 46.2515L36.4158 32.7453C37.2525 32.9683 38.0305 33.2724 38.754 33.6533L38.7746 33.6641L38.7955 33.6745C40.3579 34.4513 41.2634 35.4225 41.7327 36.5362L41.7351 36.5418C42.1061 37.4147 42.5265 38.2031 43.0207 38.8345C43.5025 39.45 44.1874 40.0852 45.1273 40.3395L45.2053 40.3606L45.2847 40.3753C45.7578 40.4631 46.2645 40.4304 46.6576 40.3884C47.0983 40.3412 47.6128 40.2555 48.1857 40.1406C49.3327 39.9106 50.8316 39.5398 52.6651 39.0376L59.0234 37.3493L59.0835 37.3334L59.1425 37.3137C59.1423 37.3138 59.1423 37.3138 59.1426 37.3137C59.1458 37.3127 59.179 37.3026 59.2525 37.2878C59.3298 37.2723 59.4348 37.2551 59.5718 37.2378L59.7673 37.2132L59.9543 37.1509L59.9562 37.1503L59.9581 37.1496L59.96 37.149L59.9619 37.1484L59.9638 37.1478L59.9657 37.1471L59.9676 37.1465L59.9695 37.1459L59.9714 37.1452L59.9733 37.1446L59.9751 37.144L59.977 37.1434L59.9789 37.1427L59.9808 37.1421L59.9826 37.1415L59.9845 37.1409L59.9864 37.1402L59.9882 37.1396L59.9901 37.139L59.992 37.1384L59.9938 37.1378L59.9957 37.1371L59.9975 37.1365L59.9994 37.1359L60.0012 37.1353L60.0031 37.1347L60.0049 37.1341L60.0068 37.1335L60.0086 37.1328L60.0104 37.1322L60.0123 37.1316L60.0141 37.131L60.0159 37.1304L60.0178 37.1298L60.0196 37.1292L60.0214 37.1286L60.0232 37.128L60.0251 37.1274L60.0269 37.1267L60.0287 37.1261L60.0305 37.1255L60.0323 37.1249L60.0341 37.1243L60.0359 37.1237L60.0377 37.1231L60.0395 37.1225L60.0413 37.1219L60.0431 37.1213L60.0449 37.1207L60.0467 37.1201L60.0485 37.1195L60.0503 37.1189L60.0521 37.1183L60.0539 37.1178L60.0556 37.1172L60.0574 37.1166L60.0592 37.116L60.061 37.1154L60.0628 37.1148L60.0645 37.1142L60.0663 37.1136L60.0681 37.113L60.0698 37.1124L60.0716 37.1118L60.0733 37.1113L60.0751 37.1107L60.0768 37.1101L60.0786 37.1095L60.0804 37.1089L60.0821 37.1083L60.0838 37.1078L60.0856 37.1072L60.0873 37.1066L60.0891 37.106L60.0908 37.1054L60.0925 37.1049L60.0943 37.1043L60.096 37.1037L60.0977 37.1031L60.0995 37.1026L60.1012 37.102L60.1029 37.1014L60.1046 37.1008L60.1063 37.1003L60.1081 37.0997L60.1098 37.0991L60.1115 37.0986L60.1132 37.098L60.1149 37.0974L60.1166 37.0968L60.1183 37.0963L60.12 37.0957L60.1217 37.0951L60.1234 37.0946L60.1251 37.094L60.1268 37.0935L60.1285 37.0929L60.1301 37.0923L60.1318 37.0918L60.1335 37.0912L60.1352 37.0907L60.1369 37.0901L60.1385 37.0895L60.1402 37.089L60.1419 37.0884L60.1436 37.0879L60.1452 37.0873L60.1469 37.0868L60.1485 37.0862L60.1502 37.0856L60.1519 37.0851L60.1535 37.0845L60.1552 37.084L60.1568 37.0834L60.1585 37.0829L60.1601 37.0823L60.1617 37.0818L60.1634 37.0813L60.165 37.0807L60.1667 37.0802L60.1683 37.0796L60.1699 37.0791L60.1716 37.0785L60.1732 37.078L60.1748 37.0774L60.1764 37.0769L60.1781 37.0764L60.1797 37.0758L60.1813 37.0753L60.1829 37.0747L60.1845 37.0742L60.1861 37.0737L60.1877 37.0731L60.1893 37.0726L60.191 37.0721L60.1926 37.0715L60.1942 37.071L60.1957 37.0705L60.1973 37.0699L60.1989 37.0694L60.2005 37.0689L60.2021 37.0684L60.2037 37.0678L60.2053 37.0673L60.2069 37.0668L60.2084 37.0662L60.21 37.0657L60.2116 37.0652L60.2132 37.0647L60.2147 37.0641L60.2163 37.0636L60.2179 37.0631L60.2194 37.0626L60.221 37.0621L60.2225 37.0615L60.2241 37.061L60.2257 37.0605L60.2272 37.06L60.2288 37.0595L60.2303 37.059L60.2319 37.0584L60.2334 37.0579L60.2349 37.0574L60.2365 37.0569L60.238 37.0564L60.2395 37.0559L60.2411 37.0554L60.2426 37.0549L60.2441 37.0543L60.2457 37.0538L60.2472 37.0533L60.2487 37.0528L60.2502 37.0523L60.2517 37.0518L60.2532 37.0513L60.2548 37.0508L60.2563 37.0503L60.2578 37.0498L60.2593 37.0493L60.2608 37.0488L60.2623 37.0483L60.2638 37.0478L60.2653 37.0473L60.2668 37.0468L60.2683 37.0463L60.2698 37.0458L60.2712 37.0453L60.2727 37.0448L60.2742 37.0443L60.2757 37.0438L60.2772 37.0433L60.2786 37.0428L60.2801 37.0424L60.2816 37.0419L60.2831 37.0414L60.2845 37.0409L60.286 37.0404L60.2875 37.0399L60.2889 37.0394L60.2904 37.0389L60.2918 37.0385L60.2933 37.038L60.2947 37.0375L60.2962 37.037L60.2976 37.0365L60.2991 37.036L60.3005 37.0356L60.302 37.0351L60.3034 37.0346L60.3048 37.0341L60.3063 37.0336L60.3077 37.0332L60.3091 37.0327L60.3106 37.0322L60.312 37.0317L60.3134 37.0313L60.3148 37.0308L60.3162 37.0303L60.3177 37.0298L60.3191 37.0294L60.3205 37.0289L60.3219 37.0284L60.3233 37.028L60.3247 37.0275L60.3261 37.027L60.3275 37.0266L60.3289 37.0261L60.3303 37.0256L60.3317 37.0252L60.3331 37.0247L60.3345 37.0242L60.3359 37.0238L60.3372 37.0233L60.3386 37.0229L60.34 37.0224L60.3414 37.0219L60.3428 37.0215L60.3441 37.021L60.3455 37.0206L60.3469 37.0201L60.3482 37.0197L60.3496 37.0192L60.351 37.0187L60.3523 37.0183L60.3537 37.0178L60.355 37.0174L60.3564 37.0169L60.3577 37.0165L60.3591 37.016L60.3604 37.0156L60.3618 37.0151L60.3631 37.0147L60.3645 37.0142L60.3658 37.0138L60.3671 37.0134L60.3685 37.0129L60.3698 37.0125L60.3711 37.012L60.3725 37.0116L60.3738 37.0111L60.3751 37.0107L60.3764 37.0103L60.3777 37.0098L60.3791 37.0094L60.3804 37.0089L60.3817 37.0085L60.383 37.0081L60.3843 37.0076L60.3856 37.0072L60.3869 37.0068L60.3882 37.0063L60.3895 37.0059L60.3908 37.0055L60.3921 37.005L60.3934 37.0046L60.3947 37.0042L60.396 37.0038L60.3972 37.0033L60.3985 37.0029L60.3998 37.0025L60.4011 37.002L60.4024 37.0016L60.4036 37.0012L60.4049 37.0008L60.4062 37.0003L60.4074 36.9999L60.4087 36.9995L60.41 36.9991L60.4112 36.9987L60.4125 36.9982L60.4137 36.9978L60.415 36.9974L60.4162 36.997L60.4175 36.9966L60.4187 36.9962L60.42 36.9957L60.4212 36.9953L60.4225 36.9949L60.4237 36.9945L60.4249 36.9941L60.4262 36.9937L60.4274 36.9933L60.4286 36.9929L60.4299 36.9925L60.4311 36.9921L60.4323 36.9916L60.4335 36.9912L60.4347 36.9908L60.436 36.9904L60.4372 36.99L60.4384 36.9896L60.4396 36.9892L60.4408 36.9888L60.442 36.9884L60.4432 36.988L60.4444 36.9876L60.4456 36.9872L60.4468 36.9868L60.448 36.9864L60.4492 36.986L60.4504 36.9856L60.4515 36.9852L60.4527 36.9848L60.4539 36.9844L60.4551 36.984L60.4563 36.9837L60.4574 36.9833L60.4586 36.9829L60.4598 36.9825L60.461 36.9821L60.4621 36.9817L60.4633 36.9813L60.4644 36.9809L60.4656 36.9805L60.4668 36.9802L60.4679 36.9798L60.4691 36.9794L60.4702 36.979L60.4714 36.9786L60.4725 36.9782L60.4737 36.9779L60.4748 36.9775L60.4759 36.9771L60.4771 36.9767L60.4782 36.9763L60.4793 36.976L60.4805 36.9756L60.4816 36.9752L60.4827 36.9748L60.4839 36.9745L60.485 36.9741L60.4861 36.9737L60.4872 36.9733L60.4883 36.973L60.4894 36.9726L60.4906 36.9722L60.4917 36.9719L60.4928 36.9715L60.4939 36.9711L60.495 36.9708L60.4961 36.9704L60.4972 36.97L60.4983 36.9697L60.4994 36.9693L60.5004 36.9689L60.5015 36.9686L60.5026 36.9682L60.5037 36.9679L60.5048 36.9675L60.5059 36.9671L60.5069 36.9668L60.508 36.9664L60.5091 36.9661L60.5102 36.9657L60.5112 36.9653L60.5123 36.965L60.5134 36.9646L60.5144 36.9643L60.5155 36.9639L60.5165 36.9636L60.5176 36.9632L60.5186 36.9629L60.5197 36.9625L60.5207 36.9622L60.5218 36.9618L60.5228 36.9615L60.5239 36.9611L60.5249 36.9608L60.5259 36.9604L60.527 36.9601L60.528 36.9598L60.529 36.9594L60.5301 36.9591L60.5311 36.9587L60.5321 36.9584L60.5331 36.958L60.5342 36.9577L60.5352 36.9574L60.5362 36.957L60.5372 36.9567L60.5382 36.9564L60.5392 36.956L60.5402 36.9557L60.5412 36.9553L60.5422 36.955L60.5432 36.9547L60.5442 36.9543L60.5452 36.954L60.5462 36.9537L60.5472 36.9534L60.5482 36.953L60.5492 36.9527L60.5502 36.9524L60.5511 36.952L60.5521 36.9517L60.5531 36.9514L60.5541 36.9511L60.555 36.9507L60.556 36.9504L60.557 36.9501L60.5579 36.9498L60.5589 36.9495L60.5599 36.9491L60.5608 36.9488L60.5618 36.9485L60.5627 36.9482L60.5637 36.9479L60.5646 36.9475L60.5656 36.9472L60.5665 36.9469L60.5675 36.9466L60.5684 36.9463L60.5693 36.946L60.5703 36.9457L60.5712 36.9454L60.5721 36.945L60.5731 36.9447L60.574 36.9444L60.5749 36.9441L60.5759 36.9438L60.5768 36.9435L60.5777 36.9432L60.5786 36.9429L60.5795 36.9426L60.5804 36.9423L60.5813 36.942L60.5823 36.9417L60.5832 36.9414L60.5841 36.9411L60.585 36.9408L60.5859 36.9405L60.5868 36.9402L60.5876 36.9399L60.5885 36.9396L60.5894 36.9393L60.5903 36.939L60.5912 36.9387L60.5921 36.9384L60.593 36.9381L60.5938 36.9378L60.5947 36.9375L60.5956 36.9372L60.5965 36.9369L60.5973 36.9366L60.5982 36.9364L60.5991 36.9361L60.5999 36.9358L60.6008 36.9355L60.6017 36.9352L60.6025 36.9349L60.6034 36.9346L60.6042 36.9344L60.6051 36.9341L60.6059 36.9338L60.6068 36.9335L60.6076 36.9332L60.6084 36.9329L60.6093 36.9327L60.6101 36.9324L60.6109 36.9321L60.6118 36.9318L60.6126 36.9316L60.6134 36.9313L60.6143 36.931L60.6151 36.9307L60.6159 36.9305L60.6167 36.9302L60.6175 36.9299L60.6183 36.9296L60.6192 36.9294L60.62 36.9291L60.6208 36.9288L60.6216 36.9286L60.6224 36.9283L60.6232 36.928L60.624 36.9278L60.6248 36.9275L60.6256 36.9272L60.6264 36.927L60.6272 36.9267L60.6279 36.9265L60.6287 36.9262L60.6295 36.9259L60.6303 36.9257L60.6311 36.9254L60.6318 36.9252L60.6326 36.9249L60.6334 36.9246L60.6342 36.9244L60.6349 36.9241L60.6357 36.9239L60.6364 36.9236C61.2217 36.7286 61.7099 36.3367 62.0257 35.8009C62.315 35.3102 62.4 34.8032 62.4172 34.41C62.4504 33.6546 62.2508 32.8428 62.0025 32.0975L53.9551 7.94838C53.8563 7.65163 53.6721 7.14073 53.3145 6.70395C52.9428 6.20706 52.4413 5.96075 52.0472 5.84977C51.6217 5.72992 51.2173 5.73214 50.9215 5.7552C50.3246 5.80173 49.6565 5.97966 48.9913 6.20134L43.7293 7.95481C42.8678 8.2419 41.9224 8.81339 41.4526 9.90224C41.0127 10.9218 41.1845 11.9515 41.4889 12.761L42.3058 15.5287ZM36.9295 70.5497C36.465 69.9855 36.0503 69.2292 35.7161 68.2265C35.1214 66.4417 34.1264 64.6848 32.4167 63.9643C33.1512 63.8697 33.8874 63.76 34.6253 63.6352L36.9295 70.5497ZM22.7903 37.1792C23.1769 36.265 23.8136 35.4437 24.7803 34.7385C26.5942 40.1677 28.1095 44.65 29.3258 48.1834C28.278 47.8594 27.2723 47.3528 26.3017 46.6569C24.4797 45.2827 23.3147 43.682 22.705 41.8523C22.1341 40.139 22.1903 38.6146 22.7903 37.1792Z" fill="black" stroke="#87F55B" stroke-width="4"/>
<path d="M54.0799 62.552L54.027 62.8133L54.1113 63.0663C54.5917 64.5077 54.3358 65.9837 53.1448 67.5895C52.1058 68.9904 50.7237 70.1159 48.9718 70.9567L44.9401 59.6846C47.8906 58.879 50.1425 58.5245 51.7352 58.5713C53.5438 58.6244 54.1085 59.159 54.2788 59.6702C54.3298 59.8232 54.3738 60.1255 54.3485 60.6387C54.3238 61.1378 54.2376 61.7723 54.0799 62.552ZM43.2649 15.2456L43.2698 15.2622L43.2753 15.2787C43.5605 16.1344 43.8467 16.9358 44.1342 17.6822C43.4257 17.2795 42.538 16.9332 41.4969 16.6309C40.4811 16.2959 39.3849 16.0305 38.2105 15.8322C36.9445 15.5564 35.4601 15.4504 33.7729 15.4968C32.3364 15.5364 30.8563 15.6715 29.3329 15.9011L27.9344 11.9746C27.6996 11.2751 27.3107 10.6265 26.66 10.2538C25.9811 9.86499 25.2276 9.89435 24.5321 10.1261L20.0497 11.6198C19.1097 11.933 18.9286 12.8564 18.9344 13.4759C18.9405 14.1373 19.1345 14.9607 19.445 15.8925L20.2287 18.2443C13.9715 20.4231 9.68828 23.8697 7.59857 28.6717C5.46888 33.5656 5.71109 39.6566 8.10047 46.8268C9.23019 50.217 10.7502 53.1084 12.6755 55.4795L12.6755 55.4796L12.6808 55.4861C14.5497 57.7484 16.479 59.4577 18.4782 60.5675L18.4883 60.5732L18.4986 60.5786C20.5235 61.642 22.7347 62.3719 25.1255 62.7733L25.1384 62.7755L25.1514 62.7773C27.4666 63.1038 29.4876 63.2166 31.2019 63.1005L31.2223 63.0991L31.2427 63.0969C32.5887 62.9501 33.9416 62.7512 35.3011 62.5001L38.7697 72.9089C38.0539 72.7021 37.435 72.3738 36.9003 71.9328C36.0102 71.1986 35.2845 70.0944 34.7674 68.5426C34.0952 66.5255 33.0223 64.9643 31.2945 64.6742C30.5411 64.5477 29.5871 64.6308 28.5011 64.8441C27.3941 65.0615 26.0618 65.4329 24.5127 65.9491L18.5686 67.9299C18.2203 68.0459 17.9077 68.1688 17.6542 68.3027C17.4564 68.4072 17.0833 68.622 16.8867 69.0128C16.708 69.3681 16.7258 69.7409 16.7546 69.9734C16.7874 70.2376 16.8629 70.5228 16.9596 70.8131L25.2332 95.6411C25.3346 95.9454 25.4317 96.2092 25.5245 96.4211C25.5975 96.5878 25.7257 96.8651 25.929 97.0677L26.0441 97.1824L26.1897 97.2548C26.5223 97.4201 26.866 97.4187 27.1038 97.3939C27.3599 97.3671 27.6279 97.298 27.8926 97.2097L31.1083 96.1382C32.1686 95.7848 33.0631 95.4412 33.7815 95.1057C34.4848 94.7773 35.0827 94.4281 35.4997 94.0423C36.5779 93.0449 36.4616 91.4958 35.9686 90.0164L35.6778 89.1435C35.2319 87.8056 34.939 86.7926 34.7855 86.0861C34.8495 86.1128 34.9167 86.1413 34.9872 86.1719L35.0349 86.1925L35.0845 86.2081C36.0124 86.5001 37.2675 86.8185 38.8369 87.1639L38.8651 87.1702L38.8936 87.1747C40.3372 87.4061 41.8327 87.4784 43.3784 87.3947C43.8877 88.9479 44.2277 90.074 44.4057 90.7873L44.415 90.8247L44.4272 90.8613C44.566 91.2779 44.719 91.6528 44.8951 91.9509C45.0293 92.178 45.2956 92.5713 45.7568 92.7384C46.1172 92.8914 46.4972 92.8882 46.792 92.8552C47.1318 92.8171 47.5056 92.7213 47.898 92.5906L53.7447 90.6423C54.3264 90.4484 54.7781 90.0199 54.9416 89.3841C55.0829 88.835 54.9765 88.2517 54.8018 87.7274L54.7978 87.7155L54.7936 87.7037L53.7428 84.7961C61.1974 82.0074 66.4325 77.9953 69.271 72.6799L69.2712 72.6795C72.1665 67.2525 72.8601 61.9425 71.2391 56.8131C71.6621 55.0973 71.6369 53.4512 71.1209 51.9027C70.3532 49.599 68.6808 47.8522 66.2417 46.6396C63.5117 45.2823 59.7103 44.7623 54.9454 44.9655C50.4233 45.1583 45.643 45.9967 40.6078 47.4709L34.8843 31.4286C36.4817 31.6364 37.9239 32.0861 39.2199 32.7685L39.2302 32.7739L39.2406 32.7791C40.9735 33.6405 42.0745 34.7721 42.6542 36.1478L42.6554 36.1507C43.008 36.9804 43.3882 37.6816 43.8082 38.2181C44.2219 38.7466 44.74 39.1988 45.3884 39.3742L45.4274 39.3847L45.4671 39.3921C45.7902 39.452 46.1761 39.4342 46.5513 39.394C46.9502 39.3514 47.432 39.2718 47.9891 39.1601C49.104 38.9366 50.5789 38.5723 52.4053 38.0719C52.4064 38.0716 52.4076 38.0713 52.4087 38.071L58.7668 36.3828L58.7968 36.3748L58.8263 36.365C58.9308 36.3302 59.1272 36.2859 59.4469 36.2457L59.5447 36.2334L59.6382 36.2022L59.6401 36.2016L59.642 36.2009L59.6439 36.2003L59.6458 36.1997L59.6477 36.199L59.6496 36.1984L59.6515 36.1978L59.6534 36.1972L59.6552 36.1965L59.6571 36.1959L59.659 36.1953L59.6609 36.1946L59.6627 36.194L59.6646 36.1934L59.6665 36.1928L59.6684 36.1922L59.6702 36.1915L59.6721 36.1909L59.674 36.1903L59.6758 36.1897L59.6777 36.1891L59.6795 36.1884L59.6814 36.1878L59.6832 36.1872L59.6851 36.1866L59.6869 36.186L59.6888 36.1854L59.6906 36.1847L59.6925 36.1841L59.6943 36.1835L59.6961 36.1829L59.698 36.1823L59.6998 36.1817L59.7016 36.1811L59.7034 36.1805L59.7053 36.1799L59.7071 36.1792L59.7089 36.1786L59.7107 36.178L59.7125 36.1774L59.7144 36.1768L59.7162 36.1762L59.718 36.1756L59.7198 36.175L59.7216 36.1744L59.7234 36.1738L59.7252 36.1732L59.727 36.1726L59.7288 36.172L59.7306 36.1714L59.7324 36.1708L59.7342 36.1702L59.7359 36.1696L59.7377 36.169L59.7395 36.1684L59.7413 36.1679L59.7431 36.1673L59.7448 36.1667L59.7466 36.1661L59.7484 36.1655L59.7501 36.1649L59.7519 36.1643L59.7537 36.1637L59.7554 36.1631L59.7572 36.1626L59.759 36.162L59.7607 36.1614L59.7625 36.1608L59.7642 36.1602L59.766 36.1596L59.7677 36.159L59.7694 36.1585L59.7712 36.1579L59.7729 36.1573L59.7747 36.1567L59.7764 36.1562L59.7781 36.1556L59.7799 36.155L59.7816 36.1544L59.7833 36.1538L59.785 36.1533L59.7868 36.1527L59.7885 36.1521L59.7902 36.1516L59.7919 36.151L59.7936 36.1504L59.7953 36.1498L59.797 36.1493L59.7988 36.1487L59.8005 36.1481L59.8022 36.1476L59.8039 36.147L59.8056 36.1464L59.8072 36.1459L59.8089 36.1453L59.8106 36.1447L59.8123 36.1442L59.814 36.1436L59.8157 36.1431L59.8174 36.1425L59.819 36.1419L59.8207 36.1414L59.8224 36.1408L59.8241 36.1403L59.8257 36.1397L59.8274 36.1392L59.8291 36.1386L59.8307 36.138L59.8324 36.1375L59.8341 36.1369L59.8357 36.1364L59.8374 36.1358L59.839 36.1353L59.8407 36.1347L59.8423 36.1342L59.844 36.1336L59.8456 36.1331L59.8472 36.1325L59.8489 36.132L59.8505 36.1315L59.8522 36.1309L59.8538 36.1304L59.8554 36.1298L59.857 36.1293L59.8587 36.1287L59.8603 36.1282L59.8619 36.1277L59.8635 36.1271L59.8652 36.1266L59.8668 36.126L59.8684 36.1255L59.87 36.125L59.8716 36.1244L59.8732 36.1239L59.8748 36.1234L59.8764 36.1228L59.878 36.1223L59.8796 36.1218L59.8812 36.1212L59.8828 36.1207L59.8844 36.1202L59.886 36.1196L59.8876 36.1191L59.8891 36.1186L59.8907 36.1181L59.8923 36.1175L59.8939 36.117L59.8954 36.1165L59.897 36.116L59.8986 36.1154L59.9002 36.1149L59.9017 36.1144L59.9033 36.1139L59.9048 36.1134L59.9064 36.1128L59.908 36.1123L59.9095 36.1118L59.9111 36.1113L59.9126 36.1108L59.9142 36.1102L59.9157 36.1097L59.9172 36.1092L59.9188 36.1087L59.9203 36.1082L59.9219 36.1077L59.9234 36.1072L59.9249 36.1067L59.9265 36.1061L59.928 36.1056L59.9295 36.1051L59.931 36.1046L59.9326 36.1041L59.9341 36.1036L59.9356 36.1031L59.9371 36.1026L59.9386 36.1021L59.9401 36.1016L59.9416 36.1011L59.9431 36.1006L59.9446 36.1001L59.9461 36.0996L59.9476 36.0991L59.9491 36.0986L59.9506 36.0981L59.9521 36.0976L59.9536 36.0971L59.9551 36.0966L59.9566 36.0961L59.9581 36.0956L59.9595 36.0951L59.961 36.0946L59.9625 36.0941L59.964 36.0936L59.9654 36.0932L59.9669 36.0927L59.9684 36.0922L59.9699 36.0917L59.9713 36.0912L59.9728 36.0907L59.9742 36.0902L59.9757 36.0897L59.9771 36.0893L59.9786 36.0888L59.98 36.0883L59.9815 36.0878L59.9829 36.0873L59.9844 36.0868L59.9858 36.0864L59.9873 36.0859L59.9887 36.0854L59.9901 36.0849L59.9916 36.0845L59.993 36.084L59.9944 36.0835L59.9958 36.083L59.9973 36.0826L59.9987 36.0821L60.0001 36.0816L60.0015 36.0811L60.0029 36.0807L60.0043 36.0802L60.0057 36.0797L60.0072 36.0793L60.0086 36.0788L60.01 36.0783L60.0114 36.0779L60.0128 36.0774L60.0142 36.0769L60.0155 36.0765L60.0169 36.076L60.0183 36.0755L60.0197 36.0751L60.0211 36.0746L60.0225 36.0741L60.0239 36.0737L60.0252 36.0732L60.0266 36.0728L60.028 36.0723L60.0294 36.0719L60.0307 36.0714L60.0321 36.0709L60.0335 36.0705L60.0348 36.07L60.0362 36.0696L60.0375 36.0691L60.0389 36.0687L60.0403 36.0682L60.0416 36.0678L60.043 36.0673L60.0443 36.0669L60.0456 36.0664L60.047 36.066L60.0483 36.0655L60.0497 36.0651L60.051 36.0646L60.0523 36.0642L60.0537 36.0638L60.055 36.0633L60.0563 36.0629L60.0576 36.0624L60.059 36.062L60.0603 36.0616L60.0616 36.0611L60.0629 36.0607L60.0642 36.0602L60.0655 36.0598L60.0669 36.0594L60.0682 36.0589L60.0695 36.0585L60.0708 36.0581L60.0721 36.0576L60.0734 36.0572L60.0747 36.0568L60.076 36.0563L60.0772 36.0559L60.0785 36.0555L60.0798 36.055L60.0811 36.0546L60.0824 36.0542L60.0837 36.0538L60.0849 36.0533L60.0862 36.0529L60.0875 36.0525L60.0888 36.0521L60.09 36.0516L60.0913 36.0512L60.0926 36.0508L60.0938 36.0504L60.0951 36.05L60.0963 36.0495L60.0976 36.0491L60.0988 36.0487L60.1001 36.0483L60.1013 36.0479L60.1026 36.0475L60.1038 36.047L60.1051 36.0466L60.1063 36.0462L60.1076 36.0458L60.1088 36.0454L60.11 36.045L60.1113 36.0446L60.1125 36.0442L60.1137 36.0437L60.1149 36.0433L60.1162 36.0429L60.1174 36.0425L60.1186 36.0421L60.1198 36.0417L60.121 36.0413L60.1222 36.0409L60.1234 36.0405L60.1246 36.0401L60.1259 36.0397L60.1271 36.0393L60.1283 36.0389L60.1295 36.0385L60.1306 36.0381L60.1318 36.0377L60.133 36.0373L60.1342 36.0369L60.1354 36.0365L60.1366 36.0361L60.1378 36.0357L60.1389 36.0353L60.1401 36.0349L60.1413 36.0346L60.1425 36.0342L60.1436 36.0338L60.1448 36.0334L60.146 36.033L60.1471 36.0326L60.1483 36.0322L60.1495 36.0318L60.1506 36.0314L60.1518 36.0311L60.1529 36.0307L60.1541 36.0303L60.1552 36.0299L60.1564 36.0295L60.1575 36.0292L60.1587 36.0288L60.1598 36.0284L60.1609 36.028L60.1621 36.0276L60.1632 36.0273L60.1643 36.0269L60.1655 36.0265L60.1666 36.0261L60.1677 36.0258L60.1688 36.0254L60.17 36.025L60.1711 36.0246L60.1722 36.0243L60.1733 36.0239L60.1744 36.0235L60.1755 36.0232L60.1766 36.0228L60.1777 36.0224L60.1788 36.022L60.1799 36.0217L60.181 36.0213L60.1821 36.021L60.1832 36.0206L60.1843 36.0202L60.1854 36.0199L60.1865 36.0195L60.1876 36.0191L60.1886 36.0188L60.1897 36.0184L60.1908 36.0181L60.1919 36.0177L60.1929 36.0173L60.194 36.017L60.1951 36.0166L60.1961 36.0163L60.1972 36.0159L60.1983 36.0156L60.1993 36.0152L60.2004 36.0149L60.2014 36.0145L60.2025 36.0142L60.2035 36.0138L60.2046 36.0135L60.2056 36.0131L60.2067 36.0128L60.2077 36.0124L60.2088 36.0121L60.2098 36.0117L60.2108 36.0114L60.2119 36.011L60.2129 36.0107L60.2139 36.0104L60.2149 36.01L60.216 36.0097L60.217 36.0093L60.218 36.009L60.219 36.0087L60.22 36.0083L60.2211 36.008L60.2221 36.0076L60.2231 36.0073L60.2241 36.007L60.2251 36.0066L60.2261 36.0063L60.2271 36.006L60.2281 36.0056L60.2291 36.0053L60.2301 36.005L60.2311 36.0046L60.232 36.0043L60.233 36.004L60.234 36.0037L60.235 36.0033L60.236 36.003L60.2369 36.0027L60.2379 36.0024L60.2389 36.002L60.2399 36.0017L60.2408 36.0014L60.2418 36.0011L60.2428 36.0007L60.2437 36.0004L60.2447 36.0001L60.2456 35.9998L60.2466 35.9995L60.2475 35.9992L60.2485 35.9988L60.2494 35.9985L60.2504 35.9982L60.2513 35.9979L60.2523 35.9976L60.2532 35.9973L60.2541 35.997L60.2551 35.9966L60.256 35.9963L60.2569 35.996L60.2579 35.9957L60.2588 35.9954L60.2597 35.9951L60.2606 35.9948L60.2616 35.9945L60.2625 35.9942L60.2634 35.9939L60.2643 35.9936L60.2652 35.9933L60.2661 35.993L60.267 35.9927L60.2679 35.9924L60.2688 35.9921L60.2697 35.9918L60.2706 35.9915L60.2715 35.9912L60.2724 35.9909L60.2733 35.9906L60.2742 35.9903L60.2751 35.99L60.2759 35.9897L60.2768 35.9894L60.2777 35.9891L60.2786 35.9888L60.2795 35.9885L60.2803 35.9882L60.2812 35.9879L60.2821 35.9876L60.2829 35.9874L60.2838 35.9871L60.2847 35.9868L60.2855 35.9865L60.2864 35.9862L60.2872 35.9859L60.2881 35.9856L60.2889 35.9854L60.2898 35.9851L60.2906 35.9848L60.2915 35.9845L60.2923 35.9842L60.2931 35.984L60.294 35.9837L60.2948 35.9834L60.2956 35.9831L60.2965 35.9828L60.2973 35.9826L60.2981 35.9823L60.2989 35.982L60.2998 35.9818L60.3006 35.9815L60.3014 35.9812L60.3022 35.9809L60.303 35.9807L60.3038 35.9804L60.3046 35.9801L60.3054 35.9799L60.3062 35.9796L60.307 35.9793L60.3078 35.9791L60.3086 35.9788L60.3094 35.9785L60.3102 35.9783L60.311 35.978L60.3118 35.9777L60.3126 35.9775L60.3134 35.9772L60.3141 35.977L60.3149 35.9767L60.3157 35.9764L60.3165 35.9762L60.3172 35.9759L60.318 35.9757L60.3188 35.9754L60.3195 35.9752L60.3203 35.9749C60.6779 35.8557 60.9718 35.6196 61.1643 35.2931C61.3435 34.9891 61.4054 34.6584 61.4182 34.3661C61.4432 33.797 61.291 33.1257 61.0537 32.4136L53.0064 8.26452C52.9071 7.96633 52.7623 7.59796 52.524 7.31718C52.3149 7.03048 52.0244 6.88224 51.7761 6.81232C51.5086 6.73696 51.235 6.73379 50.9992 6.75217C50.5249 6.78915 49.9486 6.93638 49.3074 7.15005L44.0454 8.90352C43.3386 9.13907 42.6871 9.56521 42.3708 10.2984C42.0674 11.0015 42.1735 11.7562 42.4372 12.4414L43.2649 15.2456ZM34.6642 85.2042C34.6643 85.2042 34.6641 85.2063 34.6635 85.2104C34.6638 85.2062 34.6641 85.2042 34.6642 85.2042ZM33.9181 85.7885C33.9061 85.7878 33.9044 85.7868 33.9154 85.7881C33.9162 85.7882 33.9171 85.7883 33.9181 85.7885ZM21.8685 36.7916C22.4825 35.3383 23.6054 34.1398 25.3285 33.2227C27.6277 40.1143 29.4682 45.5511 30.8496 49.5314C29.0223 49.3003 27.313 48.6146 25.7092 47.4626C23.7388 45.979 22.4382 44.2147 21.7563 42.1685C21.1153 40.2449 21.1666 38.4693 21.8685 36.7916Z" fill="black" stroke="white" stroke-width="2"/>
<path d="M31.5 20.0002C34.3333 19.5002 41.2 19.7002 46 24.5002" stroke="white" stroke-opacity="0.5" stroke-width="2" stroke-linecap="round"/>
<path d="M31 84.5001L33 91.5001" stroke="white" stroke-opacity="0.5" stroke-width="2" stroke-linecap="round"/>
</svg>
