<svg width="75" height="92" viewBox="0 0 75 92" fill="none" xmlns="http://www.w3.org/2000/svg">
<path d="M30.752 28.7917C30.7415 30.4513 30.6944 32.1161 30.6368 33.7757C30.485 33.6448 30.3227 33.5192 30.1761 33.3778C30.0609 33.2731 29.9562 33.1632 29.8463 33.0532C29.7835 32.7862 29.705 32.514 29.6421 32.2261C29.4851 31.5245 29.3804 30.8125 29.3228 30.0953C29.2076 28.5928 29.2704 27.0432 29.5479 25.5616C29.7835 24.3156 30.1604 23.0906 30.663 21.9283C30.7311 24.2161 30.7625 26.504 30.7468 28.7917H30.752Z" fill="#A7D756"/>
<path d="M30.3751 15.8973C30.4118 16.468 30.4484 17.0334 30.4799 17.604C30.5165 18.1904 30.5374 18.7715 30.5688 19.3578C30.5165 19.4416 30.4641 19.5254 30.4065 19.6039C30.0034 20.2216 29.6265 20.8446 29.2967 21.5095C28.6213 22.8864 28.1345 24.347 27.8518 25.8548C27.6162 27.1374 27.5272 28.4305 27.5848 29.7288C27.0037 28.3258 26.7733 26.7814 26.9932 25.1218C27.4329 21.8393 29.1239 18.9285 30.3699 15.8973H30.3751Z" fill="#E4F6C2"/>
<path d="M16.7112 5.24353C13.2298 5.29588 9.71169 5.76705 6.36637 6.12304C6.95795 7.12821 7.25636 8.34803 7.49718 9.48407C7.68565 10.3688 7.8427 11.2641 8.01547 12.154C8.47617 14.5727 8.77457 17.0333 9.02062 19.4781C9.63315 25.7185 9.80592 32.0165 9.53892 38.2779C9.46563 40.0212 9.35045 41.7698 9.17769 43.5131C8.98399 45.4135 8.87404 47.4971 8.26675 49.3138C10.9524 49.3138 13.6381 49.1358 16.3081 48.8426C18.1404 48.6489 19.9675 48.3923 21.7841 48.1044C22.1715 48.0416 22.5642 47.9735 22.9516 47.9055C22.9882 47.9055 23.0249 47.8898 23.0563 47.8898C23.0563 48.5651 23.0563 49.2457 23.0563 49.9263V49.9524C23.0563 50.0938 23.0563 50.2352 23.0563 50.3765C21.7004 50.3137 20.3287 50.3765 18.9676 50.4341C18.0881 50.476 17.1981 50.5231 16.3185 50.5912C15.4233 50.654 14.5333 50.7273 13.6433 50.8215C11.9052 50.9943 10.1724 51.2456 8.46047 51.5597C7.25113 51.7848 6.0889 52.0308 4.95809 52.4078C5.4502 50.7901 5.61772 49.0939 5.87948 47.4238C6.14124 45.7172 6.36113 44.0105 6.53913 42.2985C6.87942 39.0003 7.10453 35.7021 7.15688 32.3935C7.26159 25.6453 6.71189 18.8552 5.19367 12.2692C4.5602 9.54166 3.60216 6.95021 3.04199 4.21218C7.35059 3.5159 11.8215 2.66256 16.24 2.28562C17.664 2.15997 19.088 2.09192 20.491 2.09192C22.2501 2.10762 24.0562 2.10238 25.742 2.68873C28.1764 3.54207 29.1344 5.83511 29.2915 8.13861C27.9041 7.13345 26.1137 6.50523 24.4908 6.0707C21.9831 5.40059 19.3602 5.19642 16.7112 5.2383V5.24353Z" fill="#E4F6C2"/>
<path d="M23.4646 35.053C23.25 38.456 23.1348 41.8641 23.0825 45.2722C23.0825 45.5445 23.0824 45.8219 23.0772 46.0942C22.8835 46.136 22.695 46.1884 22.517 46.225C20.402 46.6229 18.2713 46.9318 16.1248 47.1203C14.8212 47.2355 13.5177 47.3402 12.2141 47.4239C11.6016 47.4658 10.9786 47.4606 10.3556 47.4815C10.4446 47.1779 10.5022 46.8585 10.5545 46.5339C10.6697 45.7905 10.7639 45.0419 10.8529 44.2985C11.0362 42.7593 11.167 41.2097 11.2613 39.6601C11.4655 36.3828 11.4969 33.0951 11.4236 29.8126C11.2927 24.0067 10.9367 18.1118 9.82683 12.4002C9.51795 10.8244 9.08342 9.21716 9.00489 7.60995C8.99442 7.36389 16.4808 6.99219 17.041 7.00266C20.1978 7.06025 23.4018 7.46335 26.3231 8.71457C27.501 9.21716 29.2339 10.0443 29.0192 11.6201C28.7522 13.5886 27.679 15.646 26.8728 17.4522C26.4801 18.3317 26.0927 19.2217 25.7472 20.1222C24.7106 19.6143 23.5432 19.384 22.4123 19.74C21.0826 20.1588 20.1298 21.2477 19.533 22.4675C18.2608 25.0642 17.7425 29.0221 20.0984 31.179C20.9412 31.9486 22.4909 32.6972 23.6793 32.3307C23.6007 33.2364 23.5274 34.1421 23.4751 35.053H23.4646Z" fill="#C0EA6E"/>
<path d="M28.7363 16.0439C28.3332 16.803 27.9249 17.5568 27.5375 18.3212C26.0664 21.211 24.7785 24.3417 24.6319 27.6242C24.4853 30.891 23.7419 34.0269 23.3598 37.2989C23.1975 38.7177 23.0771 40.1469 22.9985 41.5761L16.3184 42.0368C16.3445 40.6861 16.4021 39.3354 16.5225 37.9952C16.8942 33.8332 17.8523 29.7392 18.2659 25.5825C18.58 22.5303 18.5957 19.452 18.3287 16.3946C18.2135 15.0701 18.046 13.7561 17.8523 12.442C18.5852 12.5467 19.381 12.6881 20.2291 12.8556C26.8726 14.1906 28.5636 16.0386 28.7311 16.0386L28.7363 16.0439Z" fill="#A7D756"/>
<path d="M24.3385 26.7343C24.2652 27.0327 24.2181 27.3468 24.1762 27.6871C24.0715 28.5038 23.9511 29.3152 23.8725 30.1319C23.8568 30.2733 23.8464 30.4146 23.8359 30.556C23.3019 30.5351 22.7836 30.6136 22.2653 30.4251C21.7366 30.2314 21.2549 29.8545 20.9199 29.399C20.0089 28.1426 20.166 26.3835 20.4696 24.9543C20.7262 23.7345 21.1868 22.4257 22.1763 21.6037C23.1291 20.8132 24.239 20.9703 25.3436 21.2163C24.7259 23.0015 24.3123 24.8339 24.3385 26.7343Z" fill="#516B43"/>
<path d="M66.917 41.0212C66.3255 41.2516 65.8805 44.822 65.7077 45.5236C65.671 45.6649 65.6292 45.8115 65.5402 45.9267C65.4616 46.0209 65.3517 46.089 65.247 46.1518L65.1737 46.1989C63.9172 46.9475 62.5142 47.4815 61.1373 47.9998C59.9803 48.4291 58.8076 48.8165 57.614 49.1202C55.3262 49.7117 52.9756 50.073 50.6197 50.1829C48.4 50.2981 46.1645 50.1934 43.9657 49.8531C40.9764 49.3976 38.0185 48.7589 35.1077 47.9422C33.6576 47.5391 32.2126 47.0837 30.7834 46.5863C30.0767 46.3403 27.548 45.5445 27.2444 44.8953C27.1345 44.6598 27.0193 44.4242 26.9146 44.1886C26.3701 43.0106 25.7681 41.8379 25.2603 40.6443C25.276 39.6444 25.2969 38.6445 25.3178 37.6445C25.3807 37.7021 25.4435 37.7649 25.5115 37.8225C26.0665 38.3251 26.6581 38.791 27.2653 39.2413C28.4485 40.1208 29.7311 40.8642 31.0504 41.5186C33.6838 42.8222 36.4637 43.7698 39.343 44.3666C43.0705 45.1362 46.9132 45.3508 50.7244 45.0733C53.2635 44.8953 55.7869 44.4975 58.258 43.8954C60.0589 43.4609 61.886 42.9583 63.6136 42.2725C64.4512 41.9374 65.2993 41.639 66.1422 41.3197C66.3987 41.2202 66.6605 41.1207 66.917 41.016V41.0212Z" fill="#638351"/>
<path d="M25.8833 67.6529C25.6425 64.0982 25.4698 60.5382 25.3598 56.9782C25.3075 55.282 25.2708 53.5858 25.2446 51.8896C25.2656 51.8268 25.2813 51.7692 25.2918 51.6959C25.3179 51.5074 25.2918 51.3346 25.2394 51.1828C25.2028 48.1935 25.2028 45.2094 25.2394 42.2201C25.3808 42.7489 25.5221 43.2828 25.7001 43.8064C26.0456 44.8325 26.4383 45.8376 26.8885 46.8219C27.8099 48.8427 28.8255 50.7169 29.1763 52.9366C29.7993 56.8631 29.3281 60.9989 28.0088 64.7316C27.6476 65.7525 27.2183 66.7367 26.721 67.7C26.4906 68.1502 26.2446 68.59 25.9828 69.0245C25.9462 68.569 25.9148 68.1136 25.8833 67.6581V67.6529Z" fill="#E4F6C2"/>
<path d="M66.9956 80.7095C65.5036 81.7461 63.399 82.0288 61.6871 82.5628C60.0799 83.0602 58.4622 83.5313 56.834 83.9397C53.562 84.7616 50.2272 85.3479 46.8452 85.3741C41.1336 85.4212 35.4324 83.6779 31.1918 79.7462C30.1291 78.7516 29.1187 77.715 28.2863 76.5213C27.8518 75.8983 27.4748 75.2492 27.0979 74.5948C26.8257 74.1184 26.5901 73.6263 26.2969 73.176C26.255 72.574 26.2184 71.9719 26.166 71.3751C27.0665 70.9877 27.5534 69.7993 27.9931 68.9826C28.4852 68.0664 28.9198 67.1189 29.2967 66.1503C30.0715 64.1924 30.5793 62.1402 30.8568 60.0565C31.129 58.0148 31.1447 55.9521 30.8934 53.8999C30.7573 52.8005 30.5741 51.7063 30.2286 50.6488C29.8726 49.5703 29.3176 48.6175 28.7208 47.6595C28.5847 47.4396 28.4591 47.2197 28.3282 46.9894C28.5795 47.1464 28.836 47.293 29.0978 47.4291C30.1657 47.9893 31.3123 48.4291 32.4692 48.7641C35.1968 49.5494 37.9819 50.1829 40.7462 50.8425C43.458 51.4917 46.2117 51.9681 49.0074 52.0309C49.5571 52.0466 50.1015 52.0466 50.6512 52.0309C52.7872 51.9733 54.918 51.7011 57.0016 51.2404C58.4517 50.9158 59.8967 50.5022 61.2892 49.9735C62.619 49.4656 64.0168 48.9055 65.1999 48.094C64.7078 50.8373 64.3885 53.6067 64.2 56.3605C63.8074 62.1611 64.1215 67.9931 65.0952 73.7205C65.2261 74.4901 65.3727 75.2387 65.5402 75.9716C65.9015 77.5841 66.3622 79.139 67.0009 80.7043L66.9956 80.7095Z" fill="#C0EA6E"/>
<path d="M73.9428 33.8017C73.7648 34.1995 73.6444 34.6236 73.4926 35.0372C73.1942 35.8853 72.9062 36.7334 72.634 37.5867C72.1105 39.2201 71.6655 40.8849 71.2728 42.555C70.4823 45.9317 69.9222 49.4027 69.629 52.8527C69.0479 59.7213 69.2625 66.5899 70.2834 73.401C70.5661 75.3014 70.9011 77.2018 71.2938 79.0865C71.4875 80.0288 71.6917 80.9711 71.9377 81.903C72.1 82.5155 72.2309 83.1333 72.4822 83.6987C66.9276 85.531 61.3573 87.4262 55.5881 88.3947C54.4363 88.5884 53.2689 88.7507 52.0962 88.8606C45.3741 89.5098 37.8616 89.0125 32.1133 85.2169C30.4223 84.0966 29.2653 82.7197 28.0769 81.1177C26.8885 79.5157 26.5901 77.7043 26.3336 75.7359C26.8257 77.3955 28.1816 79.0603 29.3019 80.3429C31.1709 82.4737 33.6734 84.1542 36.2491 85.3111C42.1963 87.9916 48.8922 87.7717 55.1745 86.4577C55.7085 86.3477 56.2372 86.2273 56.7712 86.1017C61.0223 85.0808 65.4146 84.0861 69.3881 82.259C68.4667 80.1859 68.3621 79.4372 68.0951 78.3797C67.7391 76.9924 67.4249 75.5998 67.1579 74.1915C66.6344 71.4692 66.2732 68.7207 66.0742 65.946C65.6711 60.3234 65.9067 54.6431 66.8229 49.0781C67.4092 45.5129 68.5348 42.11 69.2102 38.5971C67.404 39.2411 65.5978 39.9269 63.755 40.4556C62.2316 40.8902 60.6715 41.2619 59.1271 41.6126C56.3995 42.2356 53.6249 42.7068 50.8292 42.9162C50.4837 42.9424 50.1434 42.9633 49.7979 42.9843C44.102 43.2879 38.3537 42.4346 33.087 40.1886C31.6159 39.5604 30.1972 38.8065 28.8308 37.9846C28.1502 37.571 27.4748 37.1417 26.8152 36.6967C26.3545 36.3826 25.8833 35.9952 25.3389 35.9586C25.3807 34.4508 25.4174 32.9483 25.4645 31.4458C26.3493 33.2101 27.6842 34.7702 29.2077 35.9952C34.8094 40.508 42.479 41.5603 49.4628 40.9896C49.9654 40.9477 50.468 40.9006 50.9706 40.843C58.2894 40.0054 65.3361 37.5082 72.0738 34.6131C72.6968 34.3461 73.3093 34.0686 73.9271 33.7912L73.9428 33.8017Z" fill="#E4F6C2"/>
<path d="M46.9602 74.6001C48.5622 74.3069 49.9234 73.2599 50.8762 71.9773C52.698 69.5219 53.1011 65.7997 51.8028 63.0355C51.1222 61.5801 49.7244 60.554 48.1591 60.2346C45.3425 59.6587 42.7301 61.1194 41.1753 63.4229C39.8193 65.4332 39.2382 68.2027 40.0916 70.5219C41.102 73.2547 44.0389 75.1341 46.955 74.6001H46.9602Z" fill="#E4F6C2"/>
<path d="M46.6724 61.894C47.9394 61.8469 49.2587 62.3233 49.9654 63.4227C51.714 66.1398 50.5203 71.3698 47.442 72.6472C45.416 73.4901 43.0183 72.3907 42.0131 70.5165C40.2645 67.2549 42.8455 62.0406 46.6724 61.894Z" fill="#638351"/>
<path d="M67.75 80.7514C67.75 80.7514 61.1954 83.7826 55.0283 85.5835C52.4735 86.3269 49.9763 86.8609 48.0445 86.8819C41.4481 86.9395 28.1663 82.3796 25.3602 74.3958L25.2241 70.6474L27.3392 67.8884C29.6793 71.8724 35.4695 78.9976 44.5945 79.6677C47.5001 79.8824 50.8192 79.5316 53.9918 78.9662C60.7923 77.7464 66.9228 75.5005 66.9228 75.5005L67.75 80.7514Z" fill="#638351"/>
<path d="M24.2134 38.9166C24.2134 39.3616 23.7684 52.8633 24.2134 58.1352C24.6584 63.4071 25.2133 70.6474 25.2133 70.6474C25.2133 70.6474 29.1398 67.5639 30.0088 60.7319C30.8831 53.8999 30.391 52.4183 29.0246 49.9525C27.6582 47.4867 24.2082 38.9166 24.2082 38.9166H24.2134Z" fill="#638351"/>
<path d="M22.9463 47.9108C22.5588 47.9841 22.1662 48.0469 21.7788 48.1098C19.9674 48.3977 18.1403 48.6542 16.3027 48.8479C16.3027 48.539 16.3027 48.2302 16.3027 47.9213C18.0722 47.9684 19.7946 47.9318 20.7632 47.6543C21.7212 47.3821 22.4227 47.2093 22.9253 47.0941C22.9253 47.3663 22.941 47.6386 22.9463 47.9108Z" fill="#C0EA6E"/>
<path d="M24.1453 41.4924L24.0406 46.8952C24.0406 46.8952 23.7579 46.9109 22.9203 47.0941C22.4229 47.2093 21.7162 47.3821 20.7581 47.6543C19.7896 47.9318 18.0672 47.9684 16.2977 47.9213C13.3817 47.8323 10.3452 47.4815 10.3452 47.4815L11.0415 42.4034L16.3134 42.0317L22.9936 41.571L24.1401 41.4924H24.1453Z" fill="#638351"/>
<path d="M28.7422 16.0072V16.0229C28.7422 16.0229 28.7317 16.0387 28.7265 16.0439C28.5589 16.0439 26.868 14.1959 20.2245 12.8609C19.3763 12.6933 18.5806 12.552 17.8476 12.4473C12.3035 11.6306 9.81156 12.4054 9.81156 12.4054L8.06299 7.00786C8.06299 7.00786 12.4606 6.42677 16.8739 6.28541C19.0046 6.22259 21.1406 6.25923 22.7792 6.51053C27.8103 7.29058 29.9986 8.40568 30.4436 10.4631C30.8939 12.5258 28.6636 15.6408 28.7369 15.9968L28.7422 16.0072Z" fill="#638351"/>
<path d="M30.7573 20.2111C30.7573 20.2111 29.4904 22.7711 28.7417 25.3312C27.9983 27.8912 28.7417 32.3359 28.7417 32.3359C28.7417 32.3359 24.7682 29.912 25.5482 25.7814C26.3283 21.6508 30.5688 12.3478 30.5688 12.3478L30.7573 20.2059V20.2111Z" fill="#516B43"/>
<path d="M22.9201 47.094C22.4227 47.2091 21.7159 47.3819 20.7579 47.6541C19.7894 47.9316 18.067 47.9683 16.2975 47.9211C16.2975 47.3767 16.2975 46.8374 16.2975 46.293C16.2975 44.8742 16.287 43.4503 16.3132 42.0315L22.9933 41.5708C22.8886 43.4084 22.8677 45.2564 22.9201 47.094Z" fill="#516B43"/>
<path d="M28.7418 16.0072V16.0229C28.7418 16.0229 28.7314 16.0387 28.7261 16.0439C28.5586 16.0439 26.8676 14.1959 20.2241 12.8609C19.376 12.6933 18.5802 12.552 17.8473 12.4473C17.7007 11.4474 17.5384 10.4527 17.3814 9.45797C17.2138 8.40045 17.0411 7.34293 16.8735 6.28541C19.0043 6.22259 21.1403 6.25923 22.7789 6.51053C27.8099 7.29058 29.9983 8.40568 30.4433 10.4631C30.8935 12.5258 28.6633 15.6408 28.7366 15.9968L28.7418 16.0072Z" fill="#516B43"/>
<path d="M23.0563 49.9263V49.9525C23.0563 50.0939 23.0563 50.2352 23.0563 50.3766C21.7004 50.3138 20.3288 50.3766 18.9676 50.4342C18.0881 50.476 17.1981 50.5231 16.3186 50.5912C16.3186 50.0101 16.3186 49.429 16.3081 48.8479C18.1404 48.6542 19.9675 48.3976 21.7842 48.1097C22.1716 48.0469 22.5642 47.9788 22.9516 47.9108C22.9726 48.5809 23.0144 49.2615 23.0563 49.9263Z" fill="#B4C79E"/>
<path d="M29.2912 8.14386C27.9039 7.13869 26.1134 6.51046 24.4905 6.07594C21.9828 5.40582 19.3599 5.20165 16.7109 5.24353C16.5539 4.25931 16.3968 3.27509 16.2397 2.29087C17.6637 2.16522 19.0877 2.09717 20.4908 2.09717C22.2498 2.11287 24.056 2.10763 25.7417 2.69398C28.1761 3.54732 29.1341 5.84036 29.2912 8.14386Z" fill="#B4C79E"/>
<path d="M65.5349 75.9769C63.3413 76.7046 58.839 78.0971 53.9859 78.9662C53.2268 74.5634 52.3473 70.1815 51.7243 65.7525C51.0804 61.2083 50.7244 56.6274 50.6406 52.0361C52.7766 51.9785 54.9073 51.7063 56.991 51.2456C58.4411 50.921 59.8861 50.5075 61.2786 49.9787C62.6084 49.4709 64.0062 48.9107 65.1894 48.0992C64.6972 50.8425 64.3779 53.6119 64.1894 56.3657C63.7968 62.1663 64.1109 67.9984 65.0847 73.7257C65.2155 74.4953 65.3621 75.2439 65.5296 75.9769H65.5349Z" fill="#A7D756"/>
<path d="M57.6141 49.12C55.3263 49.7116 52.9757 50.0728 50.6199 50.1828C50.6199 48.4761 50.6513 46.7746 50.7246 45.0732C53.2637 44.8952 55.7871 44.4973 58.2581 43.8952C60.059 43.4607 61.8861 42.9581 63.6137 42.2723C64.4514 41.9373 65.2995 41.6389 66.1423 41.3195C66.3989 41.22 66.6606 41.1206 66.9172 41.0159C66.3256 41.2462 65.8806 44.8166 65.7078 45.5182C65.6712 45.6595 65.6293 45.8061 65.5403 45.9213C65.4618 46.0155 65.3518 46.0836 65.2471 46.1464L65.1738 46.1935C63.9174 46.9421 62.5143 47.4761 61.1375 47.9944C59.9805 48.4237 58.8078 48.8111 57.6141 49.1148V49.12Z" fill="#516B43"/>
<path d="M67.7497 80.7514C67.7497 80.7514 61.1951 83.7826 55.028 85.5836C54.8919 84.7145 54.7663 83.8455 54.6406 82.9921C54.4469 81.6467 54.2218 80.3064 53.9915 78.9662C60.792 77.7464 66.9225 75.5005 66.9225 75.5005L67.7497 80.7514Z" fill="#516B43"/>
<path d="M73.943 33.8019C73.765 34.1997 73.6446 34.6238 73.4928 35.0374C73.1944 35.8855 72.9065 36.7336 72.6342 37.5869C72.1107 39.2203 71.6657 40.8851 71.2731 42.5552C70.4825 45.9319 69.9224 49.4029 69.6292 52.8529C69.0481 59.7215 69.2627 66.5901 70.2836 73.4012C70.5663 75.3016 70.9014 77.202 71.294 79.0867C71.4877 80.029 71.6919 80.9713 71.938 81.9032C72.1002 82.5157 72.2311 83.1335 72.4824 83.6989C66.9278 85.5312 61.3575 87.4264 55.5883 88.3949C55.426 87.7562 55.2951 87.1123 55.18 86.4631C55.714 86.3532 56.2427 86.2328 56.7767 86.1071C61.0277 85.0863 65.4201 84.0915 69.3936 82.2644C68.4722 80.1913 68.3675 79.4427 68.1005 78.3851C67.7445 76.9978 67.4304 75.6052 67.1634 74.197C66.6399 71.4746 66.2787 68.7261 66.0797 65.9515C65.6766 60.3288 65.9122 54.6486 66.8284 49.0835C67.4147 45.5183 68.5403 42.1154 69.2156 38.6026C67.4095 39.2465 65.6033 39.9323 63.7605 40.4611C62.237 40.8956 60.6769 41.2673 59.1326 41.6181C56.405 42.2411 53.6303 42.7122 50.8347 42.9216C50.8766 42.2254 50.9289 41.5343 50.9865 40.8432C58.3054 40.0056 65.352 37.5084 72.0898 34.6133C72.7128 34.3463 73.3253 34.0688 73.943 33.7914V33.8019Z" fill="#B4C79E"/>
<path d="M73.7854 79.0499C73.4713 77.427 73.1886 75.7936 72.9635 74.155C72.5133 70.862 72.262 67.5324 72.1259 64.2185C71.8484 57.5331 72.2829 50.8896 73.0525 44.2513C73.2671 42.4189 73.5446 40.5971 73.8378 38.7805C73.9896 37.8224 74.1467 36.8696 74.3194 35.9168C74.5341 34.7231 74.6649 33.5348 75 32.3621C70.9741 34.0583 66.7231 35.3776 62.5035 36.5555C58.6085 37.6392 54.525 38.4088 50.4886 38.681C46.4837 38.9532 42.4368 38.7124 38.5418 37.6863C36.5315 37.1575 34.5526 36.3932 32.7726 35.32C33.0501 27.1216 32.6417 18.9756 32.1653 10.7929C32.0606 9.00243 31.8721 7.03922 31.2439 5.343C30.6994 3.86666 29.8251 2.6102 28.5582 1.67309C27.0295 0.542282 25.0977 0.165346 23.234 0.0711122C15.5225 -0.326766 7.46021 0.992518 0 2.84056C1.06275 4.96083 1.6491 7.32192 2.23021 9.59925C3.09402 13.0022 3.75367 16.4731 4.15678 19.9598C4.9473 26.8389 4.79548 33.7232 4.35048 40.618C4.22484 42.5184 4.00495 44.4083 3.85837 46.3087C3.74319 47.806 3.54425 49.2928 3.38196 50.7796C3.25108 51.989 2.79038 53.2192 2.81655 54.4233C6.45504 54.2453 10.0778 52.9313 13.753 52.6538C15.4544 52.523 17.1559 52.4444 18.8626 52.434C20.2551 52.4235 21.6844 52.3921 23.0822 52.5177C23.145 57.1509 23.323 61.7789 23.6161 66.4016C23.8465 70.0767 24.0559 73.8147 24.4904 77.4427C24.726 79.3745 24.8988 80.9398 25.9196 82.6465C26.7835 84.0967 27.9562 85.3479 29.2702 86.4054C31.8878 88.5047 35.097 89.8816 38.3586 90.6198C42.2327 91.4993 46.2429 91.6721 50.1902 91.2794C52.2058 91.0805 54.2109 90.7454 56.195 90.3266C58.1583 89.9078 60.1686 89.4314 62.0585 88.756C64.1788 88.0022 66.3252 87.3163 68.4298 86.5154C70.5867 85.6987 72.796 85.0076 74.9791 84.2066C74.8063 83.8297 74.6754 83.4527 74.576 83.0706C74.22 81.7617 74.1885 80.4215 73.7959 79.0551L73.7854 79.0499ZM30.757 28.7969C30.7465 30.4564 30.6994 32.1212 30.6418 33.7808C30.49 33.6499 30.3277 33.5243 30.1811 33.3829C30.066 33.2782 29.9613 33.1683 29.8513 33.0583C29.7885 32.7913 29.71 32.5191 29.6472 32.2312C29.4901 31.5297 29.3854 30.8177 29.3278 30.1004C29.2126 28.5979 29.2754 27.0483 29.5529 25.5667C29.7885 24.3207 30.1654 23.0957 30.668 21.9335C30.7361 24.2213 30.7675 26.5091 30.7518 28.7969H30.757ZM30.3801 15.9025C30.4167 16.4731 30.4534 17.0385 30.4848 17.6092C30.5214 18.1955 30.5424 18.7766 30.5738 19.363C30.5214 19.4467 30.4691 19.5305 30.4115 19.609C30.0084 20.2268 29.6314 20.8498 29.3016 21.5147C28.6263 22.8915 28.1394 24.3521 27.8567 25.8599C27.6211 27.1425 27.5321 28.4356 27.5897 29.734C27.0086 28.3309 26.7782 26.7865 26.9981 25.127C27.4379 21.8445 29.1289 18.9337 30.3748 15.9025H30.3801ZM20.0928 31.1841C20.9357 31.9537 22.4853 32.7023 23.6737 32.3359C23.5952 33.2416 23.5219 34.1473 23.4696 35.0582C23.3492 37.0005 23.2602 38.9428 23.1973 40.885C20.8362 41.063 14.4754 41.5237 11.1249 41.4975C11.172 40.8903 11.2243 40.2777 11.261 39.6705C11.4652 36.3932 11.4966 33.1055 11.4233 29.823C11.3029 24.4778 10.9835 19.0541 10.0674 13.7717C19.4698 12.6776 25.5323 14.8607 27.6316 15.803C27.3751 16.3736 27.1133 16.9286 26.8777 17.4626C26.4851 18.3421 26.0977 19.2321 25.7521 20.1325C24.7156 19.6247 23.5481 19.3944 22.4173 19.7504C21.0875 20.1692 20.1347 21.2581 19.5379 22.4779C18.2657 25.0746 17.7475 29.0324 20.1033 31.1894L20.0928 31.1841ZM8.99413 7.61509C8.98366 7.36903 16.4701 6.99733 17.0302 7.0078C20.1871 7.06539 23.391 7.46851 26.3123 8.71973C27.4902 9.22232 29.2231 10.0495 29.0085 11.6253C28.9037 12.3896 28.6786 13.1644 28.3959 13.934C25.5532 12.5781 16.936 10.8452 9.72184 11.9656C9.42343 10.5311 9.06219 9.07572 8.98889 7.61509H8.99413ZM18.9673 50.4393C17.1873 50.5179 15.4125 50.6435 13.643 50.8215C11.9049 50.9995 10.1773 51.2456 8.46015 51.5649C7.25081 51.7848 6.08858 52.0361 4.95777 52.4183C5.45512 50.8006 5.6174 49.1044 5.87916 47.4291C6.14616 45.7224 6.36081 44.0209 6.53881 42.3038C6.8791 39.0108 7.10421 35.7126 7.15656 32.3987C7.26127 25.6505 6.71157 18.8604 5.19335 12.2744C4.56512 9.54689 3.60707 6.95546 3.0469 4.21743C8.74284 3.30126 14.7267 2.09716 20.5012 2.09716C22.2602 2.10763 24.0716 2.10239 25.7521 2.69397C28.1865 3.54731 29.1446 5.84035 29.3016 8.14385C27.9143 7.13869 26.1186 6.51045 24.5009 6.07593C18.7003 4.52106 12.2609 5.49482 6.37652 6.12828C6.9681 7.13345 7.26651 8.3585 7.50733 9.48931C7.6958 10.3741 7.85285 11.2693 8.02561 12.1593C8.49155 14.578 8.78996 17.0333 9.03078 19.4886C9.64331 25.729 9.81606 32.0218 9.54907 38.2883C9.47577 40.0369 9.3606 41.7803 9.18784 43.5184C8.99413 45.4187 8.8842 47.5024 8.28215 49.319C12.8054 49.319 17.3339 48.8216 21.7995 48.1096C22.2236 48.0416 22.6529 47.9683 23.0769 47.8898C23.0769 48.7169 23.0769 49.5441 23.0769 50.3765C21.7158 50.3137 20.3441 50.3765 18.9882 50.4393H18.9673ZM23.0717 46.0941C22.878 46.136 22.6895 46.1883 22.5115 46.225C20.3965 46.6228 18.2657 46.9317 16.1193 47.1202C14.8157 47.2354 13.5122 47.3401 12.2086 47.4238C11.5961 47.4657 10.9731 47.4605 10.3501 47.4814C10.4391 47.1778 10.4966 46.8584 10.549 46.5338C10.6642 45.7904 10.7584 45.0418 10.8474 44.2984C10.8841 43.9948 10.9102 43.6859 10.9416 43.3822C16.4072 43.4765 21.1765 42.754 23.145 42.398C23.1188 43.3561 23.0979 44.3089 23.0822 45.2669C23.0822 45.5392 23.0822 45.8166 23.0769 46.0889L23.0717 46.0941ZM24.3386 26.7342C24.2653 27.0326 24.2182 27.3467 24.1763 27.687C24.0716 28.5037 23.9512 29.3152 23.8727 30.1318C23.857 30.2732 23.8465 30.4146 23.836 30.5559C23.302 30.535 22.7838 30.6135 22.2655 30.425C21.7367 30.2313 21.2551 29.8544 20.92 29.3989C20.0091 28.1425 20.1661 26.3834 20.4698 24.9542C20.7263 23.7344 21.187 22.4256 22.1765 21.6036C23.1293 20.8131 24.2392 20.9702 25.3438 21.2162C24.726 23.0015 24.3124 24.8338 24.3386 26.7342ZM30.8879 53.9051C30.7518 52.8057 30.5685 51.7063 30.223 50.654C29.8723 49.5755 29.3121 48.6227 28.7153 47.6647C28.5792 47.4448 28.4535 47.2197 28.3226 46.9998C28.5739 47.1568 28.8305 47.2982 29.0922 47.4395C30.1602 48.0049 31.3067 48.4447 32.4637 48.7745C35.1913 49.5546 37.9764 50.1933 40.7354 50.8529C43.4525 51.5021 46.201 51.9785 49.0018 52.0413C51.6823 52.1041 54.3784 51.8267 56.9908 51.2456C58.4462 50.921 59.8911 50.5074 61.2837 49.9734C62.6134 49.4656 64.0112 48.9054 65.1944 48.0939C64.7023 50.8372 64.3829 53.6067 64.1945 56.3604C63.8018 62.1558 64.1159 67.9931 65.0897 73.7204C65.1525 74.1026 65.2258 74.4848 65.2991 74.8565C62.9799 75.8407 53.9962 79.3692 46.091 78.6834C37.2435 77.9191 31.1601 74.4377 28.4012 68.1397C28.7205 67.4853 29.0241 66.8204 29.2911 66.1398C30.0607 64.1818 30.5738 62.1348 30.8512 60.0512C31.1235 58.0042 31.1444 55.9468 30.8879 53.8998V53.9051ZM65.7075 45.5287C65.6708 45.67 65.6289 45.8166 65.5347 45.9318C65.4562 46.026 65.3462 46.0941 65.2415 46.1569C65.2206 46.1726 65.1944 46.1831 65.1735 46.1988C63.917 46.9474 62.514 47.4814 61.1371 47.9997C59.9801 48.429 58.8074 48.8164 57.6138 49.1253C53.1638 50.277 48.4992 50.5545 43.9655 49.8635C40.9762 49.408 38.0183 48.7693 35.1075 47.9526C33.6521 47.5443 32.2072 47.094 30.7832 46.5967C30.0712 46.3506 27.5478 45.5549 27.2442 44.9057C27.1342 44.6701 27.0191 44.4345 26.9144 44.1937C26.3699 43.0105 25.7678 41.8431 25.2652 40.6494C25.281 39.6495 25.3019 38.6496 25.3228 37.6549C25.3857 37.7125 25.4485 37.7753 25.5165 37.8329C26.0715 38.3355 26.6683 38.8066 27.2703 39.2516C28.4535 40.1312 29.7361 40.8745 31.0607 41.529C33.694 42.8325 36.4739 43.7801 39.3533 44.3717C45.5727 45.6543 52.1063 45.403 58.2682 43.9058C60.0691 43.466 61.9014 42.9686 63.6291 42.2828C64.4667 41.9478 65.3148 41.6494 66.1577 41.33C66.4195 41.2305 66.676 41.1311 66.9325 41.0264C66.3409 41.2567 65.8959 44.8219 65.7179 45.5287H65.7075ZM25.883 67.658C25.6422 64.1033 25.4694 60.5433 25.3595 56.9834C25.3071 55.2872 25.2705 53.591 25.2443 51.8947C25.2653 51.8319 25.281 51.7743 25.2914 51.701C25.3176 51.5126 25.2914 51.3398 25.2391 51.188C25.2024 48.1987 25.2024 45.2146 25.2391 42.2253C25.3804 42.754 25.5218 43.288 25.6998 43.8115C26.0453 44.8376 26.4379 45.8428 26.8882 46.827C27.8096 48.8478 28.8252 50.722 29.176 52.9418C29.799 56.8682 29.3278 61.004 28.0085 64.7368C27.6473 65.7576 27.218 66.7419 26.7206 67.7051C26.4903 68.1554 26.2442 68.5951 25.9825 69.0297C25.9458 68.5742 25.9144 68.1187 25.883 67.6633V67.658ZM26.1605 71.375C26.8254 71.0923 27.2599 70.3699 27.6211 69.6841C31.1968 77.3589 38.5523 79.7985 46.5779 80.3378C52.0906 80.7095 62.5716 78.0657 65.6656 76.5632C66.0059 77.9714 66.4299 79.3431 66.9953 80.7199C65.5033 81.7565 63.3987 82.034 61.6868 82.568C60.0796 83.0706 58.4619 83.5365 56.8285 83.9449C53.5565 84.7616 50.2216 85.3531 46.8397 85.3793C41.128 85.4264 35.4269 83.6831 31.1863 79.7462C30.1183 78.7567 29.1131 77.7149 28.2755 76.5213C27.841 75.8983 27.4641 75.2491 27.0871 74.5895C26.8149 74.1131 26.5793 73.6262 26.2861 73.1707C26.2442 72.5687 26.2024 71.9719 26.1552 71.3698L26.1605 71.375ZM52.0958 88.8764C45.379 89.5256 37.8665 89.0283 32.1129 85.2275C30.422 84.1124 29.2702 82.7303 28.0818 81.1283C26.8934 79.5263 26.595 77.7201 26.3385 75.7517C26.8254 77.4113 28.1865 79.0761 29.3121 80.3587C31.1811 82.4842 33.6835 84.17 36.2592 85.327C42.7143 88.2325 50.0541 87.7299 56.7814 86.1175C61.0324 85.0966 65.4248 84.0967 69.3983 82.2748C68.4769 80.2069 68.3774 79.4583 68.1052 78.3955C67.7492 77.0082 67.4403 75.6156 67.1681 74.2125C66.6446 71.485 66.2833 68.7365 66.0896 65.967C65.6865 60.3444 65.9221 54.6642 66.8383 49.0991C67.4246 45.5392 68.545 42.131 69.2203 38.6182C67.4142 39.2673 65.608 39.9532 63.7652 40.4767C62.2417 40.9112 60.6816 41.2777 59.1372 41.6337C56.0746 42.3352 52.9492 42.8378 49.8133 43.0053C44.1173 43.3089 38.369 42.4556 33.1024 40.2044C31.6313 39.5762 30.2126 38.8223 28.8462 38.0004C28.1656 37.5868 27.4902 37.1628 26.8306 36.7125C26.3699 36.3984 25.8987 36.011 25.3543 35.9744C25.3909 34.4719 25.438 32.9641 25.4799 31.4616C26.3646 33.2259 27.6996 34.786 29.2231 36.011C34.83 40.5186 42.4996 41.5761 49.4782 41.0002C57.3415 40.3563 64.8908 37.7177 72.0892 34.6237C72.7122 34.3567 73.3247 34.0792 73.9372 33.8018C73.7592 34.1996 73.6389 34.6237 73.4923 35.0425C73.1939 35.8854 72.9059 36.7387 72.6284 37.5921C72.1049 39.2307 71.6599 40.8903 71.2673 42.5655C70.4715 45.9423 69.9166 49.408 69.6234 52.8633C69.0423 59.7267 69.257 66.5953 70.2778 73.4063C70.5658 75.3119 70.8956 77.2071 71.2882 79.097C71.4819 80.0394 71.6861 80.9817 71.9322 81.9136C72.0945 82.5261 72.2253 83.1439 72.4766 83.704C65.8122 85.8976 59.1215 88.1959 52.0906 88.8712L52.0958 88.8764Z" fill="#020302"/>
<path d="M46.96 74.5999C48.5619 74.3067 49.9231 73.2596 50.8759 71.977C52.6978 69.5217 53.1009 65.7994 51.8026 63.0352C51.122 61.5798 49.7242 60.5537 48.1588 60.2344C45.3423 59.6585 42.7299 61.1191 41.175 63.4226C39.8191 65.433 39.238 68.2024 40.0913 70.5216C41.1017 73.2544 44.0387 75.1339 46.9547 74.5999H46.96ZM46.672 61.8887C47.939 61.8416 49.2582 62.318 49.965 63.4174C51.7136 66.1345 50.5199 71.3645 47.4416 72.6419C45.4156 73.4848 43.0178 72.3854 42.0127 70.5112C40.2641 67.2496 42.8451 62.0353 46.672 61.8887Z" fill="#020302"/>
</svg>
