<svg width="116" height="99" viewBox="0 0 116 99" fill="none" xmlns="http://www.w3.org/2000/svg">
<path d="M17.3912 9.23757C19.2941 9.86252 21.1484 10.7454 22.8906 11.6899C25.4515 13.0817 27.8558 14.7986 30.0821 16.6901C34.6328 20.5369 38.4606 25.1885 41.6213 30.2407C44.9793 35.6074 47.6262 41.4074 49.904 47.3189C50.5125 48.9033 51.1324 50.5091 51.7351 52.1319C55.4756 62.1822 58.8536 72.8852 58.8863 83.5076L58.8858 83.7384L59.1154 83.709C64.2223 83.0429 69.2543 82.0609 74.3255 81.5023C78.0634 81.0871 81.8146 80.9095 85.6383 81.2585C86.546 81.3409 87.4454 81.4467 88.3451 81.5819C90.518 81.9086 92.6677 82.389 94.7752 83.0201C96.2278 83.4497 97.7062 83.9028 99.0627 84.5487C99.7842 84.8929 100.472 85.2664 101.172 85.6565C101.33 85.7441 101.483 85.831 101.637 85.9179L101.966 86.1049L101.94 85.7229C101.908 85.2564 101.879 84.7953 101.861 84.331C101.801 82.7064 101.601 81.0753 101.426 79.4726C101.259 77.8809 101.077 76.2966 100.835 74.7134C100.651 73.4972 100.445 72.2926 100.216 71.0844C99.8428 69.0738 99.4094 67.0737 98.934 65.0918C98.323 62.515 97.6421 59.9474 96.8899 57.3985C96.0559 54.5475 95.1354 51.7179 94.1208 48.9282C92.2519 43.7804 90.0727 38.7432 87.464 33.9262C84.9182 29.212 81.9193 24.744 78.4883 20.6431C76.7889 18.6 74.9584 16.6797 73.0252 14.8568C71.2381 13.1689 69.3502 11.5983 67.4953 10.0033L67.4089 9.9265L67.3012 9.95942C67.2553 9.97215 67.2402 9.97479 67.2306 9.97335L67.221 9.97191C66.2054 9.8585 65.1921 9.79456 64.2014 9.6456L64.1153 9.63265C63.2107 9.49666 62.306 9.29679 61.3929 9.12022C59.8523 8.81984 58.2997 8.56679 56.7491 8.33365C56.3471 8.2732 55.9402 8.21204 55.5334 8.15088C48.6425 7.17377 41.7021 6.65576 34.7326 6.88476C31.2359 6.99746 27.7482 7.27848 24.2741 7.72854C21.9684 8.02522 19.6815 8.45731 17.404 8.82697L16.5856 8.96421L17.3742 9.22028L17.3912 9.23757ZM35.2346 9.56795C40.682 9.30654 45.9281 9.04926 51.4061 9.69115C51.9251 9.75445 52.4339 9.82112 52.946 9.89811C55.4108 10.2687 57.808 10.7961 60.2775 11.1674C61.7468 11.3883 63.2392 11.5537 64.7941 11.596C64.8625 11.5964 64.9302 11.6017 65.002 11.6125C65.5476 11.6945 66.0171 12.0549 66.477 12.512C66.9368 12.9691 67.3837 13.5126 67.9125 13.9015C69.1295 14.7916 70.2465 15.598 71.334 16.6651C73.9889 19.2546 76.4629 22.0378 78.7331 24.9721C81.8688 29.0187 84.6009 33.373 86.9564 37.9211C89.2605 42.3878 91.2023 47.0505 92.7599 51.8273C93.1992 53.1702 93.6171 54.5246 94.0001 55.8836C94.9742 59.3007 95.7835 62.7717 96.4428 66.2643C96.8312 68.3361 97.1626 70.4289 97.4399 72.5234C97.4898 72.8747 97.535 73.2252 97.5802 73.5758C97.7324 74.7773 97.879 75.9829 97.9723 77.1853C98.0641 78.3974 98.1706 79.5773 98.0128 80.7568L98.0107 80.7712L97.9932 80.8226L97.9467 80.904L97.9775 80.9921C98.0056 81.0651 98.0166 81.1551 98.005 81.232C97.9877 81.3472 97.9321 81.4567 97.8487 81.5228C97.7702 81.5895 97.6816 81.6253 97.5524 81.6059L97.5284 81.6023C96.2456 81.3456 94.9823 80.6989 93.6747 80.2813C92.4422 79.8849 91.1783 79.5672 89.9106 79.3078C89.2552 79.1749 88.6072 79.0578 87.9515 78.9592C85.6016 78.6059 83.2294 78.4654 80.8581 78.4821C78.8059 78.4927 76.7602 78.6223 74.7173 78.8308C69.9555 79.318 65.2242 80.7086 60.5321 81.0246C59.8865 74.0227 58.201 66.7761 56.6837 59.9084C56.0991 57.2865 55.4151 54.6741 54.622 52.1043C54.5692 51.9343 54.5131 51.754 54.4604 51.584C53.7145 49.1883 52.8767 46.818 51.9488 44.4931C50.0597 39.7402 47.7806 35.1397 45.0386 30.8184C42.4597 26.7474 39.4744 22.9051 36.0393 19.5157C34.3656 17.8547 32.587 16.3055 30.7109 14.8841C29.0362 13.6206 27.3194 12.5719 25.6395 11.4402C25.0179 11.0177 24.4039 10.5767 23.7935 10.1118C27.6043 9.92841 31.415 9.74506 35.2258 9.56171L35.2346 9.56795Z" fill="#E4F6C2"/>
<path d="M55.2776 49.3055L56.001 50.2884C56.2327 50.6032 56.487 50.8968 56.7558 51.1926C57.9511 52.4871 59.4209 53.6166 60.3795 55.1505C61.3685 56.743 61.5325 58.7124 61.9737 60.3355C62.3821 61.8506 62.7556 63.3702 63.0928 64.904C63.7789 68.0225 64.3349 71.1607 64.7242 74.3327C64.835 75.2235 64.952 76.1055 65.0731 76.9929C65.1223 77.349 65.172 77.7346 65.1183 78.1243C65.0844 78.35 65.0227 78.5323 64.9941 78.69L64.9732 78.8293L64.8327 78.8524C63.836 79.0365 62.8418 79.2357 61.8518 79.4404L61.64 79.4822L61.6088 79.2664C61.4366 78.0029 61.1267 76.7433 60.8868 75.4746C60.5673 73.7912 60.2765 72.1122 60.0118 70.4223C59.522 67.3972 59.0775 64.3641 58.4712 61.3657C57.785 57.9869 56.9336 54.6324 55.9135 51.3262C55.8247 51.0379 55.7359 50.7495 55.6423 50.4604L55.2736 49.3L55.2776 49.3055Z" fill="#638351"/>
<path d="M87.9916 43.2431L88.4314 44.257C89.9685 47.803 91.2913 51.4396 92.4145 55.1345C93.3957 58.3415 94.2191 61.5887 94.9109 64.8652C95.4632 67.5068 95.9434 70.172 96.3394 72.8442C96.3466 72.8944 96.3544 72.9397 96.3616 72.9899C96.5575 74.2913 96.7184 75.5973 96.8903 76.895C97.0278 77.9667 97.1468 79.0306 97.3831 80.063L97.4863 80.5156L97.0856 80.2835C96.3211 79.8346 95.4282 79.5236 94.5975 79.2219C94.1109 79.0407 93.6213 78.8787 93.1256 78.7256L92.9705 78.6826L92.98 78.522C93.0282 77.7779 92.9911 77.016 92.9723 76.2618C92.9564 75.5866 92.9301 74.9148 92.8943 74.2415C92.8769 73.8362 92.8548 73.4301 92.8231 73.0227C92.6825 70.8653 92.4459 68.7278 92.1114 66.5904C91.4566 62.352 90.4523 58.1593 89.1172 54.0838C89.0711 53.9345 89.0202 53.7844 88.9694 53.6343C88.639 52.6418 88.2913 51.6662 87.9246 50.6878C87.7247 50.1618 87.52 49.635 87.3043 49.1164L87.2762 49.0434L87.3021 48.9687C87.6019 48.179 87.8185 47.357 87.9427 46.531C88.0502 45.8154 88.0915 45.085 88.0548 44.3527L88.0012 43.2445L87.9916 43.2431Z" fill="#638351"/>
<path d="M62.2502 56.3157C62.2762 56.4031 62.3015 56.4953 62.3349 56.5986C62.4628 57.05 62.5852 57.5054 62.7076 57.9609C62.9602 58.9173 63.1985 59.8714 63.4258 60.8338C64.207 64.1335 64.8066 67.4698 65.254 70.8421C65.4763 72.5207 65.7109 74.2159 65.8052 75.8998C65.8257 76.2516 65.8786 77.1042 65.7655 77.8238C65.7338 78.0351 65.6939 78.2354 65.6296 78.4025L65.5113 78.7334L65.8534 78.6719C66.9549 78.4741 68.0503 78.2852 69.149 78.1066C74.059 77.3175 79.0399 76.8387 84.0031 77.1282C84.0859 77.1308 84.1632 77.1375 84.2405 77.1442C85.4146 77.2127 86.5848 77.3395 87.743 77.5136C88.9012 77.6878 90.0426 77.9085 91.1699 78.1909C91.3496 78.2327 91.5231 78.2833 91.702 78.3299L91.9657 78.399L91.9535 78.1221C91.9168 77.3898 91.9371 76.6365 91.908 75.8857C91.8902 75.4509 91.8724 75.016 91.845 74.5798C91.7997 73.8068 91.7433 73.0421 91.683 72.2718C91.3167 68.067 90.6374 63.8937 89.6132 59.8011C89.1075 57.7607 88.5059 55.7402 87.8314 53.7481C87.7565 53.5306 87.6856 53.3186 87.6051 53.1051C87.3461 52.3541 87.0719 51.6057 86.7827 50.86L86.7768 50.8345L86.7557 50.8117L86.5736 50.5584L86.4202 50.83C86.2016 51.2097 85.9686 51.5872 85.7091 51.9459C85.6219 52.0703 85.5292 52.1988 85.4331 52.317C81.7017 57.2464 75.1703 59.3141 69.1693 58.407C68.7434 58.3429 68.3196 58.2645 67.898 58.1716C66.0086 57.75 64.2166 57.0386 62.5442 56.0849L62.1156 55.8437L62.2494 56.3205L62.2502 56.3157ZM72.6954 65.228C73.1006 64.3559 73.8321 63.6899 74.7494 63.4153C75.712 63.1328 76.7962 63.1485 77.8156 63.3017C77.9065 63.3154 78.0022 63.3298 78.098 63.3442C79.0556 63.5176 80.0531 63.8493 80.7607 64.4812C81.52 65.1601 81.9266 66.1346 81.7757 67.1383L81.7677 67.1912C81.5868 68.264 80.8743 69.2275 79.9316 69.7684C78.9668 70.3256 77.7333 70.6852 76.6348 70.5692L76.5741 70.5502L76.5372 70.5349L76.4975 70.5387C76.1289 70.5815 75.7579 70.5749 75.399 70.5209C74.8582 70.4396 74.3435 70.2493 73.8742 69.9528C72.6823 69.1892 72.1711 67.6734 72.3812 66.2759C72.4368 65.9061 72.5444 65.5491 72.6969 65.2184L72.6954 65.228Z" fill="#C0EA6E"/>
<path d="M54.6008 45.604C54.9216 47.4742 55.967 49.1145 57.2867 50.5259C57.4469 50.6973 57.6078 50.8639 57.7743 51.0264C58.984 52.2249 60.3773 53.2447 61.65 54.0892C63.9183 55.6039 66.4932 56.6098 69.1781 57.0135C69.5227 57.0653 69.8687 57.1075 70.2162 57.1401C73.6207 57.4457 77.4891 56.4558 80.6534 54.5498C81.9079 53.7906 83.0567 52.8878 84.0094 51.8573C85.464 50.2884 86.4805 48.4425 86.7917 46.3726C87.0675 44.5381 86.7839 42.5508 85.7556 40.4711C84.3208 37.5789 81.2099 35.9718 78.3906 34.8997C76.8904 34.3304 75.322 33.9227 73.7235 33.6824C69.6697 33.0729 65.4458 33.5625 61.7476 35.3735C60.9925 35.7412 60.1968 36.2158 59.4285 36.7682C58.6548 37.3247 57.9085 37.959 57.239 38.6686C55.8966 40.0776 54.8553 41.7626 54.5795 43.5971C54.4813 44.2503 54.4821 44.9281 54.6 45.6088L54.6008 45.604ZM60.2328 45.4489C60.8408 45.0836 61.4853 44.768 62.1487 44.4896L62.2799 44.4308L62.2722 44.2872C62.2379 43.7664 62.2584 43.2391 62.335 42.73C62.4808 41.7599 62.8308 40.8647 63.4318 40.1546C63.6398 39.9109 63.8435 39.858 64.0404 39.8827C64.2223 39.91 64.396 40.0246 64.5131 40.1895C64.635 40.3552 64.6956 40.5705 64.6617 40.7962C64.6559 40.8347 64.6494 40.8779 64.6334 40.9197C64.4135 41.6331 64.2165 42.3254 64.1089 43.0409C64.0858 43.1946 64.0634 43.3435 64.0546 43.4993L64.0297 43.7951L64.3117 43.7098C64.4551 43.6676 64.5945 43.6198 64.7268 43.5856C66.455 43.0941 68.2098 42.7833 69.9865 42.5544L70.1263 42.5362L70.1568 42.3983C70.3345 41.6393 70.5893 40.9213 70.9964 40.3294C71.3981 39.7415 71.952 39.2797 72.731 39.0138C73.3446 38.8064 74.0054 38.7732 74.6611 38.8718C76.3984 39.133 78.1543 40.3448 79.1854 41.7226C79.2803 41.84 79.3985 41.8676 79.5086 41.8842C79.7096 41.9144 79.948 41.8913 80.2276 41.8548C80.6421 41.7992 81.1221 41.6995 81.5362 41.6145C81.7425 41.5767 81.9297 41.5361 82.0798 41.5145C82.2258 41.4873 82.3436 41.4854 82.3675 41.489L82.3771 41.4904C82.6259 41.5278 82.8661 41.6229 83.0663 41.7561C83.2603 41.8982 83.4102 42.073 83.4852 42.2905C83.5127 42.3683 83.5236 42.4584 83.5128 42.5304C83.5019 42.6024 83.4818 42.6387 83.4487 42.6632C83.4212 42.6836 83.3491 42.7071 83.2491 42.7216C83.1833 42.7362 82.5073 42.8703 81.8177 42.9975C81.4756 43.059 81.1233 43.1239 80.8485 43.1611C80.708 43.1842 80.5881 43.2006 80.4935 43.2109C80.449 43.214 80.4093 43.2179 80.3798 43.2184L80.3449 43.2229L80.3353 43.2215L80.3151 43.3559L80.2935 43.4018L80.0876 43.4691C80.3242 44.2069 80.4037 44.9801 80.2875 45.7533C80.2788 45.8109 80.2709 45.8637 80.2622 45.9213C80.1338 46.5798 79.8854 47.1906 79.5183 47.7444C79.3431 47.998 79.1294 48.2802 78.8849 48.4742C78.6396 48.6731 78.3842 48.7771 78.1114 48.7361L78.0491 48.7267C77.9029 48.69 77.7345 48.6057 77.6135 48.4992C77.4932 48.3878 77.4244 48.2595 77.4214 48.1167C77.4208 48.0233 77.4323 47.9464 77.4424 47.8792C77.4655 47.7255 77.5061 47.6187 77.5768 47.5065C77.6475 47.3944 77.749 47.2721 77.8892 47.1213C78.0839 46.9001 78.2426 46.6588 78.3658 46.3925C78.4891 46.1262 78.5659 45.8431 78.6085 45.5598C78.6511 45.2764 78.659 44.9633 78.621 44.6629C78.5794 44.2884 78.4706 43.938 78.3191 43.6108L78.2558 43.4785L78.1112 43.4961C77.6782 43.5439 77.246 43.587 76.8034 43.6334C75.1263 43.8183 73.4427 43.9482 71.756 44.1317L71.5971 44.1471L71.5732 44.3056C71.5084 44.8999 71.4564 45.5059 71.369 46.087C71.2614 46.8026 71.1041 47.491 70.8159 48.1057C70.5332 48.7164 70.1204 49.2486 69.4942 49.6701C69.3958 49.7388 69.2933 49.8019 69.1923 49.8555C68.4725 50.2482 67.7044 50.3439 66.9434 50.2295C66.6659 50.1877 66.3926 50.1172 66.1285 50.0185C65.0362 49.6333 64.0315 48.8291 63.3895 47.8584C63.1182 47.4493 62.8857 46.9773 62.7021 46.4733L62.6249 46.2702L62.4257 46.3581C61.9744 46.5604 61.5217 46.7722 61.0756 47.0047C60.9176 47.0792 60.7778 47.0975 60.6438 47.0773C60.4141 47.0428 60.1969 46.8923 60.0535 46.6743C59.9046 46.4603 59.8335 46.1845 59.8722 45.9595C59.9025 45.7578 59.9962 45.5902 60.2122 45.4557L60.2328 45.4489Z" fill="#638351"/>
<path d="M63.382 14.3794C64.1565 15.1195 64.9187 15.8774 65.665 16.6428C68.3766 19.4077 70.9599 22.3105 73.3511 25.3514C74.5468 26.8719 75.6858 28.4427 76.7933 30.0285C77.3369 30.8076 77.9018 31.5751 78.3369 32.3919C78.5771 32.8455 78.8337 33.2868 79.0548 33.7374L79.0884 33.8063L79.1621 33.8371C79.9892 34.1628 80.7995 34.535 81.5779 34.9566C82.5432 35.47 83.4737 36.0519 84.3103 36.7375L85.1204 37.4044L84.6128 36.4834C82.2788 32.248 79.5716 28.2167 76.5247 24.4584C74.8772 22.428 73.1346 20.4767 71.2892 18.6228C70.3363 17.6692 69.3599 16.7416 68.3655 15.8358C67.4309 14.9881 66.4527 14.2026 65.5703 13.3333L65.5194 13.2815L65.4476 13.2707C65.2971 13.2628 65.1432 13.2445 64.9901 13.2215C64.0424 13.079 63.0722 12.7613 62.1416 12.5379C62.0986 12.5314 62.0569 12.5153 62.0194 12.5048L61.2132 12.3001L61.8346 12.8551C62.3695 13.3334 62.8731 13.8903 63.3772 14.3786L63.382 14.3794Z" fill="#638351"/>
<path d="M36.2205 12.7118C37.2201 13.6479 38.2121 14.6024 39.1875 15.5692C42.6529 19.0171 45.9177 22.6608 48.8105 26.5973C50.2119 28.5071 51.5361 30.4742 52.7703 32.4866C53.3982 33.519 54.0006 34.5574 54.5811 35.6121C54.9954 36.3718 55.4699 37.1552 55.8258 37.9453L55.9543 38.2298L56.1608 37.9957C58.1417 35.7251 60.9062 34.1027 63.7602 33.1862C67.0206 32.1392 70.5298 31.9106 73.9327 32.4222C75.1387 32.6035 76.3359 32.8768 77.4994 33.2433L78.1352 33.442L77.7141 32.922C77.6362 32.8218 77.5575 32.7265 77.4748 32.6257C76.809 31.8135 76.2377 30.8928 75.5901 30.0244C73.3162 26.952 70.9005 23.9762 68.3428 21.1312C67.0473 19.6891 65.7173 18.281 64.3419 16.9153C63.6646 16.2438 62.9819 15.5764 62.2874 14.9219C61.9232 14.5774 61.5144 14.074 61.0883 13.5876C60.6622 13.1012 60.2244 12.6277 59.7702 12.3286C59.3289 12.0413 58.8273 11.9266 58.3648 11.8129C56.7824 11.4325 55.1749 11.1221 53.5524 10.8781C50.006 10.3449 46.399 10.1169 42.833 10.0719C40.2827 10.0421 37.7262 10.1193 35.1769 10.3106C34.87 10.3332 34.5673 10.3614 34.2597 10.3888L33.798 10.4323L34.1426 10.7444C34.8448 11.3804 35.5315 12.0533 36.2212 12.707L36.2205 12.7118ZM52.9092 17.5978C53.7503 17.4395 54.6641 17.4492 55.5734 17.5859C56.9279 17.7895 58.2842 18.2734 59.4138 18.8655C60.2619 19.3122 61.0629 19.909 61.4643 20.7551C61.7364 21.3215 61.8051 21.8082 61.7471 22.2268C61.6699 22.7406 61.3837 23.1789 60.955 23.5564C60.3071 24.122 59.3299 24.5349 58.3311 24.7972C57.3324 25.0596 56.3164 25.1769 55.5962 25.1816C55.3464 25.1833 55.0898 25.1644 54.8218 25.1241C53.8215 24.9737 52.738 24.5309 51.8415 23.8854C50.847 23.176 50.085 22.2217 49.8531 21.1604C49.7818 20.8207 49.7706 20.5047 49.8146 20.2117C49.9193 19.5154 50.3243 18.9379 50.8911 18.4878C51.458 18.0377 52.1894 17.7303 52.9147 17.5938L52.9092 17.5978Z" fill="#C0EA6E"/>
<path d="M38.1865 19.5243C41.6071 23.108 44.5803 27.0958 47.1326 31.3444C49.5118 35.3116 51.5478 39.4778 53.2652 43.7777L53.6459 44.7287L53.658 43.7042C53.6616 43.4199 53.6803 43.1329 53.7236 42.8448C53.7359 42.7631 53.7482 42.6815 53.7659 42.5958C54.0373 41.2468 54.6577 39.9846 55.4722 38.8646L55.5524 38.7539L55.4767 38.6394C55.2068 38.2207 54.9722 37.763 54.7059 37.3203C54.3823 36.7708 54.0532 36.2253 53.7241 35.6798C53.0301 34.5343 52.3085 33.4092 51.5656 32.2957C48.9148 28.3122 45.9466 24.551 42.7132 21.025C41.0685 19.2357 39.3509 17.5091 37.5911 15.8351C36.7349 15.0188 35.863 14.21 34.9801 13.4094C34.0544 12.5679 33.0651 11.7906 32.1978 10.9187C32.1421 10.8661 32.0974 10.8053 32.0582 10.7405L31.992 10.6274L31.8625 10.6423C31.7179 10.6599 31.5638 10.676 31.4097 10.6921C30.756 10.7755 30.0975 10.8582 29.4417 10.9561C29.136 11.0034 28.844 11.0578 28.5596 11.0936L28.0012 11.1619L28.4739 11.4686C32.021 13.7551 35.2587 16.4715 38.181 19.5284L38.1865 19.5243Z" fill="#638351"/>
<path d="M69.7779 45.0816C69.7915 44.9265 69.8091 44.7769 69.8274 44.6225L69.8671 44.3584L69.5971 44.3964C68.3957 44.5743 67.1949 44.7817 66.0097 45.0798C65.4754 45.2156 64.9607 45.3837 64.45 45.5574L64.2592 45.6221L64.3282 45.8141C64.6596 46.7676 65.2848 47.6228 66.1672 48.1336C66.5005 48.3261 66.856 48.4679 67.2197 48.5226C67.727 48.5989 68.2625 48.4879 68.7037 48.0926C69.3386 47.5152 69.5631 46.6405 69.6852 45.8289C69.7242 45.5695 69.7521 45.3184 69.7787 45.0768L69.7779 45.0816Z" fill="#638351"/>
<path d="M74.3704 40.6107C73.9445 40.5467 73.5096 40.5746 73.1131 40.7704C72.6148 41.0245 72.2983 41.5024 72.0841 42.0153L71.9544 42.3248L72.2866 42.2962C72.6291 42.2642 72.9709 42.237 73.3182 42.2057C74.3641 42.1174 75.4093 42.0339 76.4579 41.9608L77.0263 41.9235L76.5621 41.5934C75.9909 41.1932 75.1888 40.7338 74.3704 40.6107Z" fill="#638351"/>
<path d="M80.1904 65.6378C80.1076 65.5369 79.9859 65.4352 79.858 65.3423C79.7307 65.2445 79.5917 65.1598 79.4786 65.0986C78.9162 64.8029 78.3814 64.6488 77.7824 64.5637C77.6436 64.5428 77.5 64.5212 77.355 64.5092C76.4782 64.4167 75.5659 64.3974 74.7044 64.7884C74.5835 64.8439 74.4315 64.9438 74.2578 65.0896C74.1855 65.1475 74.0923 65.2464 73.9831 65.3872C73.8137 65.6023 73.7025 65.8213 73.5911 66.1385C73.547 66.2694 73.5117 66.4065 73.4893 66.5554C73.42 67.0164 73.4528 67.5468 73.6157 67.9936C73.8394 68.6215 74.2853 69.106 74.9239 69.3837C75.1626 69.4884 75.4167 69.556 75.6848 69.5963C76.8478 69.7712 78.1766 69.3964 79.1147 68.9186C79.1999 68.8725 79.2914 68.8175 79.3726 68.7659C79.9952 68.3684 80.5079 67.7579 80.6188 67.0527C80.6888 66.5869 80.5633 66.0867 80.1856 65.6371L80.1904 65.6378Z" fill="#638351"/>
<path d="M52.6344 22.7131C53.2038 22.9951 53.8575 23.172 54.5371 23.2742C55.9824 23.4915 57.5262 23.3798 58.5311 23.2068C59.1644 23.0957 59.6607 22.9199 60.0192 22.684C60.3777 22.4482 60.6038 22.1482 60.6558 21.8025C60.7071 21.4615 60.5769 21.1227 60.313 20.8277C60.0497 20.5278 59.6534 20.2669 59.1246 20.04C57.9559 19.5451 56.6628 19.0315 55.3323 18.8315C54.4995 18.7063 53.6583 18.7025 52.8243 18.9111C52.4176 19.012 52.0137 19.1919 51.6906 19.4527C51.3682 19.7087 51.1205 20.0546 51.0584 20.4676C51.0107 20.7845 51.075 21.138 51.2763 21.4923C51.5814 22.0342 52.061 22.4255 52.6296 22.7124L52.6344 22.7131Z" fill="#638351"/>
<path d="M88.9645 53.6336C90.1273 54.1031 91.2754 54.6047 92.4151 55.1297C93.3963 58.3367 94.2197 61.5839 94.9115 64.8604C95.4638 67.502 95.9441 70.1672 96.3401 72.8393C96.3472 72.8895 96.3551 72.9349 96.3622 72.9851C95.2217 73.4422 94.0589 73.8518 92.8902 74.2359C92.8728 73.8306 92.8506 73.4246 92.8189 73.0171C92.6783 70.8597 92.4417 68.7223 92.1073 66.5848C91.4524 62.3464 90.4482 58.1537 89.113 54.0783C89.0669 53.9289 89.0161 53.7789 88.9652 53.6288L88.9645 53.6336Z" fill="#516B43"/>
<path d="M57.775 51.0216C58.9223 50.8455 60.0666 50.6885 61.2103 50.5363C62.8472 50.3257 64.4942 50.1461 66.1435 50.0159C67.1641 49.9336 68.1906 49.8768 69.2081 49.848C71.3915 49.7785 73.5754 49.8368 75.7461 50.0796C78.5523 50.3935 81.3074 51.014 84.0054 51.8518C83.0527 52.8823 81.9031 53.7898 80.6494 54.5442C77.4898 56.451 73.6159 57.445 70.2122 57.1346C69.8647 57.102 69.5186 57.0598 69.174 57.008C66.4891 56.6043 63.915 55.5936 61.646 54.0837C60.3732 53.2391 58.9855 52.2153 57.7702 51.0209L57.775 51.0216Z" fill="#516B43"/>
<path d="M55.9176 51.3318C56.1938 51.2849 56.4755 51.2339 56.7558 51.1926C57.9511 52.4871 59.4209 53.6166 60.3795 55.1505C61.3685 56.743 61.5325 58.7124 61.9737 60.3355C62.3821 61.8506 62.7556 63.3702 63.0928 64.904C63.7789 68.0225 64.3349 71.1607 64.7242 74.3327C64.835 75.2235 64.952 76.1055 65.0731 76.9929C65.1223 77.349 65.172 77.7346 65.1183 78.1243C65.0844 78.35 65.0227 78.5323 64.9941 78.69L64.9732 78.8293L64.8327 78.8524C63.836 79.0365 62.8418 79.2357 61.8518 79.4404L61.64 79.4822L61.6088 79.2664C61.4366 78.0029 61.1267 76.7433 60.8868 75.4746C60.5673 73.7912 60.2765 72.1122 60.0118 70.4223C59.522 67.3972 59.0775 64.3641 58.4712 61.3657C57.785 57.9869 56.9336 54.6324 55.9135 51.3262L55.9176 51.3318Z" fill="#516B43"/>
<path d="M62.1087 55.8573L62.5374 56.0986C64.2056 57.0467 66.0024 57.7589 67.8918 58.1804C68.3079 58.2774 68.7372 58.3517 69.1632 58.4158C75.1648 59.3181 81.6984 57.236 85.4203 52.3051C86.1522 52.5478 86.8757 52.8137 87.5978 53.0892C87.6775 53.3075 87.7484 53.5195 87.8241 53.7322C88.504 55.7203 89.1057 57.7407 89.6162 59.7818C90.6404 63.8744 91.3245 68.0484 91.701 72.2499C91.7669 73.0161 91.8225 73.7856 91.8685 74.5538C90.6498 74.9451 89.4324 75.3268 88.2177 75.7237C86.8891 76.1624 85.5712 76.6272 84.2633 77.123C84.1819 77.1108 84.1032 77.1137 84.0259 77.1069C79.062 76.8223 74.0852 77.3067 69.1737 78.1054C68.0798 78.2847 66.9797 78.4728 65.8822 78.6762L65.5401 78.7377L65.6584 78.4068C65.7179 78.2389 65.7626 78.0394 65.7943 77.8281C65.9026 77.1077 65.8545 76.2558 65.834 75.9041C65.739 74.225 65.4996 72.5291 65.2773 70.8505C64.8292 67.4829 64.2248 64.1459 63.4388 60.8455C63.2115 59.8831 62.9684 58.9282 62.7158 57.9719C62.5934 57.5164 62.4662 57.0602 62.3383 56.6088C62.3049 56.5056 62.2796 56.4134 62.2536 56.326L62.1197 55.8492L62.1087 55.8573Z" fill="#A7D756"/>
<path d="M96.4372 66.2683C95.7779 62.7758 94.9685 59.3048 93.9944 55.8877C94.9798 56.3649 95.9521 56.8646 96.8972 57.4143C97.6501 59.9584 98.3303 62.5309 98.9413 65.1077C99.4159 67.0943 99.85 69.0896 100.223 71.1003C100.035 71.2144 99.8462 71.3284 99.6544 71.4322C98.9332 71.8345 98.1932 72.1996 97.4335 72.5323C97.1569 70.433 96.8248 68.345 96.4364 66.2732L96.4372 66.2683Z" fill="#B4C79E"/>
<path d="M51.7296 52.1361C52.6354 51.9383 53.5486 51.7564 54.4596 51.5889C54.5172 51.7596 54.5685 51.9392 54.6212 52.1092C55.4088 54.6831 56.0935 57.2906 56.6829 59.9133C58.1955 66.7803 59.8857 74.0276 60.5313 81.0295C65.2234 80.7134 69.9499 79.3222 74.7166 78.8357C76.7547 78.6264 78.8051 78.4976 80.8574 78.487C78.6433 79.4113 76.4655 80.4196 74.3247 81.5072C69.2536 82.0658 64.2215 83.0478 59.1146 83.7139L58.8851 83.7433L58.8855 83.5125C58.848 72.8894 55.4748 62.1871 51.7344 52.1368L51.7296 52.1361Z" fill="#B4C79E"/>
<path d="M12.3908 9.16345C15.0377 10.1458 17.61 11.2004 20.1449 12.5048C22.63 13.782 24.9866 15.2954 27.1903 17.0116C31.7428 20.5542 35.5804 24.9126 38.7738 29.7143C42.183 34.8383 44.8653 40.403 47.1693 46.1072C49.5371 51.9733 51.5601 57.984 53.4419 64.0225C54.8409 68.5201 55.9024 73.0161 56.5389 77.6691C56.8983 80.2916 57.2577 82.9141 57.4233 85.5565C59.1785 85.5356 61.0332 85.4068 62.7719 85.1378C64.1851 84.9181 65.6114 84.7741 67.0198 84.5537C69.8826 84.1001 72.7494 83.6521 75.6348 83.3738C78.4797 83.1042 81.3494 82.9954 84.2018 83.164C87.1849 83.3424 90.1314 83.8296 93.0343 84.541C94.62 84.9317 96.1784 85.4066 97.7324 85.9104C98.5258 86.1672 99.3171 86.4384 100.114 86.6711C100.761 86.8617 101.459 87.1975 102.141 87.2166C102.443 87.3258 102.852 87.1809 102.915 86.7927C103.431 83.5554 103.35 80.189 103.026 76.9384C102.707 73.659 102.143 70.4115 101.457 67.1948C100.218 61.4051 98.5943 55.6657 96.6659 50.0671C94.856 44.8202 92.7269 39.6775 90.1635 34.7544C87.6238 29.8692 84.6919 25.151 81.202 20.889C79.3496 18.6265 77.3759 16.4538 75.2325 14.4667C73.1964 12.5793 70.9273 11.2657 69.1621 9.1391C68.9423 8.87526 68.7186 8.60588 68.4152 8.44241C68.1528 8.29983 67.8513 8.2545 67.5553 8.20508C60.6132 7.11225 53.6725 6.10801 46.7328 5.06464C39.6073 4.50898 32.4189 4.63142 25.3168 5.44944C23.3498 5.67426 21.3932 5.95958 19.4465 6.31023C16.9513 6.76013 13.085 7.21505 10.9552 8.65295C11.4337 8.82312 11.9067 8.99736 12.3798 9.17161L12.3908 9.16345ZM24.3198 7.94653C27.7835 7.49984 31.2712 7.21881 34.7584 7.10468C41.708 6.8776 48.6388 7.39416 55.5202 8.36982C57.475 8.649 59.4303 8.95772 61.3707 9.33294C62.3078 9.51311 63.2453 9.72281 64.1889 9.85977C65.194 10.0109 66.2072 10.0748 67.2181 10.1875C67.2755 10.1961 67.331 10.1848 67.3777 10.1673C69.2367 11.7678 71.1213 13.328 72.9036 15.0153C74.828 16.8319 76.6488 18.7508 78.3505 20.7795C81.7725 24.8741 84.7626 29.3359 87.301 34.0343C89.9016 38.8402 92.0815 43.8726 93.9423 49.0093C95.8554 54.2865 97.4464 59.6871 98.7496 65.1476C99.5051 68.3256 100.155 71.5221 100.649 74.7492C100.891 76.3276 101.069 77.9111 101.237 79.498C101.406 81.1048 101.608 82.7263 101.668 84.3413C101.686 84.8105 101.714 85.2763 101.747 85.738C101.594 85.6511 101.436 85.5635 101.277 85.4759C100.578 85.0858 99.8754 84.7102 99.1539 84.366C97.779 83.7124 96.2917 83.253 94.8343 82.8227C91.8451 81.9362 88.7681 81.341 85.6592 81.0553C76.6067 80.2296 67.9481 82.3507 59.0869 83.5083C59.0447 71.1264 54.4928 58.6606 50.0915 47.2439C47.8104 41.3221 45.1595 35.5166 41.7947 30.1292C38.6267 25.0612 34.7812 20.3971 30.2142 16.5282C27.9783 14.6353 25.5611 12.9066 22.9866 11.5079C21.2355 10.5571 19.3771 9.66872 17.4551 9.04089C19.7429 8.66786 22.0243 8.23984 24.3205 7.94172L24.3198 7.94653Z" fill="#020302"/>
<path d="M25.5308 11.6104C27.2147 12.7476 28.9274 13.7908 30.5926 15.0529C32.4646 16.4687 34.2336 18.0165 35.9047 19.6624C39.3269 23.04 42.2993 26.8706 44.8749 30.9312C47.6047 35.236 49.8749 39.8302 51.7662 44.5688C53.752 49.5573 55.321 54.714 56.4903 59.9578C58.0222 66.8916 59.7277 74.2002 60.3565 81.2486C65.1429 80.9566 69.9381 79.5314 74.7397 79.0403C79.7756 78.5206 84.894 78.4946 89.87 79.5128C91.133 79.7715 92.3873 80.0877 93.6149 80.4835C94.9034 80.8982 96.1667 81.5448 97.4919 81.8128C98.0188 81.9215 98.3237 81.3584 98.1724 80.9329C98.1932 80.8919 98.21 80.8453 98.2172 80.7973C98.3779 79.5986 98.2647 78.3981 98.1722 77.1908C98.0803 75.9787 97.9289 74.7724 97.7767 73.5709C97.4708 71.1136 97.099 68.671 96.6375 66.2394C95.7139 61.3468 94.4984 56.5084 92.9534 51.7777C91.3877 46.9899 89.4425 42.3169 87.1295 37.8439C84.7707 33.2855 82.0304 28.9202 78.8914 24.8633C76.6131 21.9179 74.135 19.1292 71.4665 16.5328C70.3605 15.458 69.2443 14.6468 68.0225 13.7559C66.9593 12.9822 66.178 11.4406 64.7983 11.405C60.1377 11.2838 55.9651 10.0328 51.4247 9.50236C45.9317 8.86311 40.6712 9.11826 35.219 9.37894C31.2206 9.57336 27.2229 9.76297 23.2293 9.95811C23.9817 10.5525 24.7558 11.1011 25.5286 11.6249L25.5308 11.6104ZM85.5716 40.5563C90.356 50.2381 78.7308 57.7032 70.2378 56.9321C67.2103 56.6586 64.2909 55.6009 61.7645 53.9148C58.8819 51.9934 55.4264 49.1952 54.7984 45.5599C54.0453 41.1938 58.3063 37.2673 61.8347 35.5436C66.9326 33.0492 73.0595 33.0864 78.3147 35.0797C81.1204 36.1449 84.1794 37.7392 85.5723 40.5515L85.5716 40.5563ZM60.2175 70.3892C59.7277 67.3641 59.2832 64.3311 58.6783 61.323C57.9357 57.6362 56.9874 53.9823 55.8428 50.3971C57.1318 52.1428 59.0734 53.4218 60.2132 55.2481C61.1719 56.7821 61.3394 58.7274 61.7866 60.376C62.1957 61.8862 62.5685 63.4107 62.9064 64.9396C63.5933 68.0533 64.1459 71.1812 64.536 74.3485C64.6467 75.2393 64.763 76.126 64.8841 77.0135C64.9333 77.3695 64.9756 77.7393 64.927 78.0954C64.8981 78.2875 64.8365 78.4698 64.8042 78.6515C63.8068 78.8404 62.8134 79.0348 61.8186 79.2388C61.643 77.9651 61.3387 76.7014 61.098 75.4375C60.7826 73.7596 60.4925 72.0758 60.2215 70.3948L60.2175 70.3892ZM84.0165 76.909C79.0286 76.6207 74.0422 77.1037 69.1226 77.8913C68.024 78.0699 66.9238 78.2581 65.8271 78.4566C66.1209 77.6414 66.0387 76.3325 66.0142 75.877C65.9166 74.1828 65.6875 72.4836 65.4652 70.805C65.0178 67.4326 64.4149 64.086 63.6351 60.7767C63.4078 59.8143 63.1654 58.8546 62.9121 57.9031C62.7897 57.4476 62.668 56.9874 62.5353 56.5352C62.51 56.443 62.4807 56.3453 62.4561 56.2483C64.1428 57.2042 65.9573 57.9288 67.8603 58.3573C74.4086 59.8231 81.8907 57.6822 85.8843 52.0507C86.1453 51.6823 86.3837 51.3007 86.6085 50.9122C86.6085 50.9122 86.6085 50.9122 86.6078 50.917C86.9734 51.8707 87.3232 52.8318 87.6524 53.7996C88.3276 55.787 88.9259 57.7971 89.4323 59.8327C90.4484 63.9142 91.1244 68.0772 91.492 72.2724C91.5956 73.4715 91.6698 74.6711 91.7193 75.8719C91.7505 76.6083 91.7295 77.3664 91.764 78.1131C91.5851 78.0666 91.4109 78.0208 91.2319 77.9742C88.8673 77.3928 86.4475 77.0486 84.0172 76.9042L84.0165 76.909ZM94.7148 64.8994C95.2671 67.5411 95.7433 70.2007 96.1448 72.8688C96.3486 74.2156 96.5174 75.5669 96.6917 76.9142C96.8305 77.9762 96.9433 79.049 97.1877 80.0925C96.3993 79.64 95.4983 79.3179 94.6675 79.0162C94.1754 78.8391 93.6818 78.6716 93.1812 78.5177C93.2317 77.7592 93.1904 76.9918 93.1717 76.2376C93.1439 75.153 93.0955 74.0752 93.0231 72.9937C92.8778 70.8356 92.6386 68.683 92.3096 66.5415C91.6515 62.2928 90.6438 58.0897 89.3101 54.0047C88.9384 52.8635 88.5366 51.7275 88.1079 50.6072C87.9088 50.0764 87.6993 49.5489 87.4844 49.0255C88.0478 47.524 88.3218 45.9298 88.2494 44.3278C91.1084 50.9307 93.2331 57.8603 94.7108 64.8939L94.7148 64.8994ZM65.4373 13.4704C66.3333 14.3466 67.3108 15.1369 68.2413 15.9791C69.2364 16.8801 70.208 17.807 71.1562 18.7599C72.9974 20.6082 74.736 22.554 76.3794 24.5789C79.4141 28.3206 82.1173 32.3464 84.4479 36.5715C83.5984 35.8741 82.6536 35.2901 81.6802 34.7656C80.8922 34.3426 80.0771 33.9696 79.2404 33.6425C79.0154 33.1863 78.7594 32.7402 78.5233 32.2922C78.0767 31.454 77.507 30.6858 76.9675 29.9122C75.8608 28.3216 74.7169 26.75 73.5213 25.2296C71.1219 22.1777 68.5339 19.2741 65.8188 16.4989C65.0678 15.7328 64.3056 14.9749 63.5318 14.2299C63.0318 13.7471 62.5282 13.1902 61.9844 12.7057C62.0227 12.7114 62.065 12.7227 62.1026 12.7333C63.1705 12.9871 64.3154 13.3803 65.4413 13.4759L65.4373 13.4704ZM42.8465 10.2752C48.0291 10.3424 53.2916 10.7898 58.3304 12.009C58.7977 12.1235 59.2698 12.2386 59.6717 12.4955C60.5148 13.0397 61.4096 14.3479 62.1631 15.0653C62.8575 15.7197 63.5403 16.3871 64.2175 17.0586C65.5834 18.4229 66.9141 19.8262 68.2055 21.2628C70.7544 24.1015 73.1708 27.0725 75.4407 30.1394C76.0746 31.0008 76.6562 31.9182 77.3294 32.7462C77.4081 32.8415 77.486 32.9416 77.5647 33.037C73.0858 31.6417 68.1717 31.5462 63.7077 32.9818C60.8228 33.9084 58.0267 35.5457 56.0161 37.8511C55.6528 37.0451 55.1784 36.2617 54.7681 35.5076C54.1883 34.4481 53.5825 33.3993 52.9539 32.3718C51.7164 30.349 50.3929 28.3772 48.9867 26.4666C46.0865 22.5143 42.8081 18.8636 39.3379 15.415C38.3632 14.4434 37.3705 13.4937 36.3716 12.5528C35.6805 11.9087 34.9992 11.2317 34.2882 10.5895C34.5958 10.5621 34.8986 10.5339 35.2054 10.5113C37.7451 10.3186 40.2969 10.2406 42.8465 10.2752ZM29.482 11.1437C30.1371 11.0507 30.7915 10.9625 31.4493 10.8846C31.5986 10.8677 31.748 10.8509 31.8973 10.8341C31.9447 10.91 31.9975 10.9817 32.0654 11.0509C32.9416 11.9291 33.9349 12.7119 34.8565 13.5478C35.7354 14.343 36.6025 15.151 37.4634 15.968C39.2185 17.6413 40.9321 19.3624 42.5719 21.151C45.7973 24.666 48.7613 28.4216 51.404 32.3941C52.1421 33.5069 52.8637 34.632 53.5585 35.7726C53.8876 36.3181 54.2222 36.8595 54.5458 37.4091C54.8032 37.8456 55.0426 38.3039 55.3158 38.7329C54.4889 39.8707 53.8498 41.1595 53.5775 42.5477C53.4991 42.9386 53.4667 43.3168 53.4645 43.6897C51.7485 39.3802 49.7043 35.203 47.3163 31.2295C44.7559 26.9698 41.7753 22.9662 38.3459 19.3763C35.4155 16.3084 32.16 13.5795 28.5992 11.286C28.8932 11.2516 29.1859 11.1925 29.4813 11.1485L29.482 11.1437Z" fill="#020302"/>
<path d="M69.9637 42.3496C68.1822 42.5778 66.4123 42.8912 64.6739 43.3861C64.536 43.4243 64.3967 43.4721 64.2581 43.5151C64.3318 42.6668 64.5689 41.8381 64.8303 40.9787C65.1149 40.0295 63.9956 39.1737 63.275 40.0279C62.327 41.1573 61.9717 42.7392 62.0697 44.3009C61.4001 44.5882 60.7459 44.9023 60.1262 45.2806C59.0705 45.9224 60.062 47.7264 61.1813 47.1826C61.6266 46.9549 62.0794 46.7431 62.5307 46.5408C62.7176 47.0551 62.9527 47.5423 63.2362 47.968C64.5805 49.9969 67.4102 51.326 69.6219 49.8316C71.4792 48.5787 71.5589 46.3562 71.7965 44.3195C73.4785 44.1353 75.1613 44.0101 76.844 43.8211C77.2769 43.7733 77.7147 43.7262 78.1518 43.6838C78.2958 43.9952 78.3987 44.3201 78.4391 44.6699C78.5025 45.2246 78.4283 45.7831 78.1951 46.2931C78.0836 46.5465 77.9381 46.7652 77.7503 46.9727C77.4106 47.344 77.2357 47.5633 77.2376 48.1037C77.2378 48.5261 77.653 48.8243 78.0172 48.9085C78.7456 49.0769 79.3232 48.3927 79.6936 47.8493C80.0835 47.2744 80.3363 46.6347 80.4683 45.9523C80.6324 45.0881 80.5571 44.2222 80.2938 43.4018C80.3265 43.5099 83.1484 42.9372 83.2944 42.9101C83.3952 42.8908 83.496 42.8716 83.5786 42.8104C83.7501 42.679 83.7596 42.4202 83.688 42.213C83.508 41.685 82.9554 41.3563 82.405 41.2736C81.9695 41.2081 79.6139 41.9344 79.3531 41.5858C77.8898 39.6322 75.0405 38.0104 72.6733 38.8135C71.0226 39.3757 70.3209 40.7876 69.9652 42.34L69.9637 42.3496ZM68.5647 47.944C67.8912 48.55 67.0326 48.4012 66.2618 47.9612C65.4284 47.4823 64.8317 46.6658 64.5137 45.7537C65.0196 45.5792 65.5288 45.4152 66.0576 45.2835C67.2276 44.988 68.4245 44.775 69.6251 44.602C69.6068 44.7564 69.5933 44.9115 69.5757 45.0611C69.4722 46.0424 69.3285 47.2584 68.5647 47.944ZM73.1932 40.9543C74.2192 40.4456 75.599 41.1638 76.4391 41.7615C75.3905 41.8347 74.3405 41.9175 73.2945 42.0057C72.952 42.0377 72.6055 42.0642 72.263 42.0962C72.4646 41.601 72.7596 41.169 73.1884 40.9536L73.1932 40.9543Z" fill="#020302"/>
<path d="M80.8961 64.3296C80.1409 63.6562 79.1091 63.3242 78.1323 63.1479C77.0127 62.9452 75.7967 62.895 74.6955 63.2205C73.7171 63.5105 72.9409 64.2139 72.5126 65.1415C71.7308 66.8263 72.158 69.0956 73.764 70.1326C74.5806 70.6581 75.5578 70.8639 76.515 70.7475C76.543 70.7567 76.5655 70.7699 76.5949 70.7694C77.7549 70.8996 79.0303 70.5217 80.0274 69.9448C81.0189 69.3719 81.7675 68.3648 81.9632 67.2254C82.1525 66.1292 81.7111 65.061 80.8961 64.3296ZM79.2665 68.5928C79.1853 68.6444 79.1049 68.6913 79.0203 68.7326C77.907 69.3018 76.2 69.718 75.0014 69.194C74.4092 68.9331 74.0087 68.5046 73.7976 67.9228C73.604 67.3879 73.6082 66.6764 73.7721 66.205C73.8826 65.8926 73.9785 65.7106 74.1314 65.5077C74.2351 65.371 74.3276 65.2769 74.3779 65.2354C74.5398 65.1026 74.6816 65.006 74.7812 64.962C75.5849 64.5967 76.4589 64.6102 77.3262 64.7014C78.0963 64.7877 78.7079 64.9189 79.3794 65.2703C79.5744 65.3733 79.9059 65.6098 80.0299 65.761C80.9029 66.791 80.2413 67.9684 79.2624 68.5873L79.2665 68.5928Z" fill="#020302"/>
<path d="M51.7137 24.0527C52.8845 24.8917 54.3502 25.3969 55.5852 25.3862C57.962 25.3654 63.3276 24.1832 61.6437 20.6691C61.212 19.7644 60.3701 19.1468 59.5036 18.6924C57.5853 17.682 55.0368 16.9895 52.865 17.4045C51.0455 17.7547 49.1915 19.1162 49.6447 21.2125C49.8864 22.3391 50.6878 23.3239 51.7082 24.0568L51.7137 24.0527ZM52.8736 19.105C54.9531 18.5877 57.1521 19.4241 59.0488 20.2201C61.0922 21.0822 60.945 22.5825 58.5034 23.0011C56.5897 23.3273 52.6132 23.4415 51.458 21.3918C50.801 20.2274 51.816 19.3683 52.8736 19.105Z" fill="#020302"/>
</svg>
