<svg width="93" height="103" viewBox="0 0 93 103" fill="none" xmlns="http://www.w3.org/2000/svg">
<path d="M60.4798 97.7006C58.8965 98.6093 57.0722 99.0155 55.2892 99.3184C53.3478 99.6488 51.3859 99.7727 49.417 99.7589C41.4658 99.697 33.7419 97.3013 26.3345 94.6027C22.1696 93.0813 18.0598 91.4292 14.0257 89.5773C11.9674 88.6342 9.92967 87.6429 7.92639 86.6034C6.96261 86.1008 5.99883 85.5845 5.04194 85.0613C4.622 84.8273 4.17453 84.6139 3.80279 84.311C3.73395 84.2559 3.58939 84.1389 3.44482 84.0012C3.77526 83.7602 4.0644 83.5124 4.28469 83.1338C4.54629 82.6863 4.74593 82.2044 4.95245 81.7294C5.37926 80.7656 5.81296 79.8088 6.26043 78.8587C7.17602 76.9174 8.14667 74.9967 9.15864 73.1036C11.2376 69.1865 13.4888 65.3659 15.8362 61.6002C20.6069 53.9657 25.7838 46.6066 30.9675 39.2475C33.3013 35.9362 35.7451 32.68 37.9963 29.2999C39.3593 32.0192 40.9977 34.5732 43.0285 36.8518C45.3623 39.4747 48.0815 41.5124 51.1587 43.1439C51.0485 43.2885 50.9453 43.433 50.8351 43.5776C50.6148 43.8736 50.3808 44.1628 50.1605 44.4519C50.0022 44.3624 49.8232 44.3073 49.658 44.3211C49.5753 44.3211 49.4927 44.3349 49.4101 44.3486C49.3895 44.3486 49.3826 44.3486 49.3688 44.3486C49.3275 44.3211 49.2931 44.2936 49.2724 44.2867C48.9971 44.1283 48.7011 44.0044 48.4188 43.853C47.8543 43.5569 47.3036 43.2403 46.7529 42.9098C45.6858 42.2627 44.667 41.5537 43.7032 40.762C42.7463 39.9703 41.8376 39.1167 40.9908 38.208C40.1372 37.2924 39.3386 36.1221 38.306 35.4061C38.2854 35.3924 38.2647 35.3855 38.2372 35.3786C38.1064 35.2616 37.9205 35.2272 37.7553 35.3373C37.535 35.413 37.356 35.5989 37.2872 35.8261C35.0154 38.325 33.1154 41.1888 31.2498 43.9906C29.2465 46.9921 27.2983 50.028 25.3845 53.0846C21.557 59.1977 17.8464 65.3934 14.4457 71.7543C13.4956 73.5304 12.5594 75.3134 11.6438 77.1033C11.1619 78.0326 10.6869 78.9689 10.2188 79.9051C8.22929 83.8566 13.7228 85.4675 16.3801 86.8581C18.2113 87.815 20.0769 88.7168 21.97 89.5567C25.8527 91.2846 29.8386 92.7647 33.9071 93.9832C37.9136 95.181 41.989 96.1241 46.1195 96.7988C50.367 97.4941 54.8624 98.1068 59.0823 96.8676C60.6381 96.4133 62.1113 95.6835 63.4124 94.706C62.7034 95.9176 61.7258 96.9571 60.4867 97.6731L60.4798 97.7006Z" fill="#E4F6C2"/>
<path d="M60.8377 80.8345C60.9272 79.9809 61.0718 79.0722 61.3609 78.2323C59.9979 75.7609 58.4627 73.3859 56.8105 71.1073C54.7315 68.2366 52.4115 65.5449 49.9057 63.046C48.6459 61.7862 47.3379 60.5746 45.9955 59.3905C45.3347 58.7985 44.6325 58.2408 43.9854 57.635C43.6756 57.3459 43.3245 57.0224 43.0629 56.6781C42.9941 56.5955 42.939 56.4992 42.8839 56.4028C42.4571 56.4028 42.1473 55.8658 42.347 55.4459C43.0767 53.8625 44.0749 52.4031 45.135 50.9919C42.8151 50.5169 40.5433 49.4498 38.5813 48.2107C37.3973 47.4603 36.2752 46.586 35.2838 45.5878C34.802 45.1128 34.3476 44.6103 33.9552 44.0595C33.8864 43.9632 33.8038 43.853 33.728 43.7498C33.1635 44.624 32.599 45.4983 32.0483 46.3657C28.2276 52.4375 24.6066 58.6332 21.1783 64.9322C19.4504 68.0989 17.7637 71.2931 16.1047 74.4943C15.8706 74.9417 15.6503 75.3892 15.4163 75.8367C16.9927 76.2359 18.5416 76.6696 20.0837 77.2341C21.8185 77.8744 23.5533 78.5008 25.295 79.1204C31.4838 81.3233 37.7552 83.423 44.1162 85.0614C47.3035 85.8806 50.546 86.5415 53.8297 86.7618C55.4406 86.8719 57.0652 86.8857 58.6692 86.7618C59.6536 86.6929 60.5761 86.6447 61.299 86.0045C61.1819 85.6259 61.0718 85.2335 60.9961 84.8411C60.7413 83.5125 60.6656 82.1701 60.8171 80.8208L60.8377 80.8345ZM48.701 69.1453C47.9506 70.9696 46.2778 72.312 44.5636 73.2138C42.7393 74.1707 40.5364 74.6732 38.5676 73.8747C37.7002 73.5236 36.8397 72.9591 36.2958 72.1812C36.227 72.071 36.165 71.9747 36.1031 71.8645C35.394 71.121 34.857 70.1848 34.5679 69.1797C33.5422 65.6688 35.7657 62.3713 39.015 61.1184C42.3883 59.8035 46.3053 61.084 48.1847 64.1956C49.0796 65.6826 49.3619 67.5138 48.701 69.1453Z" fill="#C0EA6E"/>
<path d="M15.0309 76.6421C17.8741 78.2874 20.8755 79.5196 23.9596 80.683C27.3053 81.9428 30.6785 83.1269 34.0793 84.2146C40.7362 86.3487 47.5859 88.5103 54.6146 88.8545C55.8056 88.9096 60.3216 89.1849 62.1046 87.9596C62.2009 88.1523 62.2973 88.352 62.4006 88.5447C62.7448 89.1574 63.1441 89.7357 63.5846 90.2933C63.7361 90.486 63.8876 90.6719 64.0459 90.844C63.6604 91.3397 63.2267 91.7871 62.7517 92.2071C61.5882 93.2328 60.1839 93.9901 58.7038 94.4582C50.8008 96.9571 41.6863 94.527 34.1481 91.9386C26.5687 89.3364 18.9962 86.7342 11.4167 84.1389C11.4512 83.3816 14.8244 76.5319 15.024 76.6421H15.0309Z" fill="#638351"/>
<path d="M64.2592 87.6842C63.6327 86.6792 63.1784 85.5846 62.848 84.4487C62.5244 83.3404 62.3523 82.1838 62.3523 81.0273C62.3523 80.7382 62.3729 80.4628 62.4005 80.1805C63.6947 82.7759 64.7411 85.619 64.8581 88.5379C64.6447 88.2625 64.4451 87.9803 64.2592 87.6842Z" fill="#638351"/>
<path d="M46.5602 49.1262C45.3485 48.7958 44.1369 48.5342 42.9529 48.0867C41.755 47.6392 40.6054 47.0954 39.5108 46.4483C38.4369 45.8149 37.3974 45.099 36.4267 44.3142C35.9242 43.908 35.4354 43.4743 34.926 43.0682C34.7676 42.9374 34.6093 42.7928 34.4441 42.662C35.5869 40.8928 36.7021 39.1029 37.6934 37.2511C38.1959 38.1667 38.967 39.0203 39.6072 39.7432C40.5159 40.762 41.5072 41.7189 42.5536 42.6001C43.6275 43.5019 44.7565 44.3349 45.9337 45.0852C46.5257 45.457 47.1384 45.8081 47.758 46.1316C48.0196 46.2693 48.2881 46.4139 48.5703 46.5309C47.8957 47.3983 47.2279 48.2588 46.5602 49.1331V49.1262Z" fill="#638351"/>
<path d="M78.0618 12.7367C79.3285 14.9809 80.7673 17.1288 81.972 19.4212C83.397 22.1266 84.5397 24.9354 85.4003 27.8749C87.08 33.6438 87.734 39.6674 88.0162 45.6497C88.0782 46.9783 88.2159 48.3139 88.2847 49.6425C88.0644 50.5237 87.8235 51.4048 87.5825 52.286C87.4242 52.8574 87.2521 53.4288 87.08 54.0001C86.9354 53.9726 86.7909 53.952 86.6394 53.952C86.6807 53.2085 86.6325 52.4443 86.6256 51.749C86.6119 50.4755 86.5568 49.2088 86.4604 47.9421C86.2608 45.3743 85.889 42.8134 85.4003 40.287C84.4365 35.2891 82.6948 30.422 80.3129 25.9267C79.0806 23.5998 77.6212 21.1491 75.2668 19.7998C75.2324 19.7792 75.198 19.7654 75.1636 19.7516C75.6179 18.7672 76.0654 17.7759 76.4991 16.7846C77.0842 15.4353 77.6488 14.1204 78.0756 12.7436L78.0618 12.7367Z" fill="#516B43"/>
<path d="M85.0631 51.3911C85.0218 50.0005 84.9323 48.6099 84.7877 47.2262C84.2852 42.4004 82.9978 37.6641 81.2699 33.1412C80.4163 30.8832 79.3906 28.6941 78.2478 26.5669C77.229 24.66 76.0793 22.8219 74.2825 21.5621C74.1999 21.7411 74.1173 21.9132 74.0278 22.0922C69.4292 31.4409 63.798 40.1837 57.6711 48.5892C58.1048 48.8026 58.4559 49.1606 58.8139 49.4841C59.2614 49.8834 59.6951 50.2896 60.1288 50.7026C60.9962 51.5218 61.8292 52.3755 62.6415 53.2566C64.1973 54.957 65.6567 56.7607 67.0129 58.6331C68.376 60.5056 69.6151 62.4607 70.7441 64.4847C71.3224 65.531 71.8662 66.5981 72.3688 67.6789C72.5133 67.9887 72.6854 68.3191 72.8575 68.6564C73.7387 66.8803 74.7369 65.1662 75.8521 63.5278C77.4355 61.1872 79.2322 58.9842 81.2286 56.981C82.1924 56.0172 83.225 55.0259 84.4848 54.4476C84.65 54.3719 84.8359 54.2962 85.0355 54.2273C84.9805 53.2842 85.0837 52.286 85.0562 51.3842L85.0631 51.3911ZM78.3373 48.3138C77.7453 49.4979 76.8916 50.5856 75.859 51.4117C75.0742 52.0313 74.1449 52.6577 73.1467 52.823C72.892 52.9469 72.6304 53.057 72.3688 53.1465C70.6684 53.7041 68.8647 53.0914 67.8597 51.6182C67.0198 50.3929 66.8614 48.7338 67.2401 47.3294C67.6807 45.6841 68.7408 44.3073 69.8079 43.02C70.8336 41.8015 71.9763 40.5417 73.4358 39.8326C74.8539 39.1442 76.8985 38.8826 78.1101 40.1355C79.1083 41.1612 79.3768 42.9718 79.3493 44.3417C79.3148 45.7254 78.9569 47.0816 78.3442 48.3138H78.3373Z" fill="#A7D756"/>
<path d="M56.7072 49.9178C56.9894 50.2827 57.4094 50.5787 57.7398 50.8816C58.1804 51.2809 58.6141 51.694 59.0409 52.107C59.8464 52.8849 60.6311 53.6835 61.3953 54.5027C62.9236 56.1411 64.3623 57.8621 65.691 59.6727C67.0196 61.4763 68.2381 63.3625 69.3533 65.3039C69.9109 66.2745 70.4479 67.259 70.9504 68.2572C71.2189 68.7872 71.4874 69.3242 71.7421 69.8612C71.8385 70.0608 71.9211 70.2673 72.0175 70.467C70.799 73.2068 69.8421 76.0569 69.2088 78.9826C69.1743 79.1341 69.1468 79.2855 69.1193 79.437C68.7475 78.2323 68.307 77.0482 67.8182 75.8848C65.5946 70.6322 62.304 65.9234 58.6003 61.614C57.5402 60.3817 56.4525 59.1632 55.3166 57.9929C54.463 57.1118 53.6162 56.0929 52.5698 55.4183C53.9742 53.6009 55.3579 51.7628 56.721 49.9178H56.7072Z" fill="#516B43"/>
<path d="M84.3815 61.5658C82.0202 67.2728 78.9568 72.6562 75.5973 77.8261C73.9038 80.4283 72.1415 82.9824 70.3448 85.5157C70.2828 84.9374 70.2071 84.3798 70.1313 83.8911C70.2966 82.8309 70.4549 81.7776 70.6752 80.7312C71.1984 78.2254 71.9556 75.7678 72.885 73.379C74.7299 68.6358 77.4285 64.1956 80.8086 60.3887C81.7655 59.3147 82.7637 58.2546 83.8514 57.3115C84.3608 56.8709 84.9322 56.4578 85.5724 56.21C85.8616 56.0998 86.1438 56.0517 86.4192 56.031C85.7996 57.8966 85.125 59.7484 84.3746 61.5658H84.3815Z" fill="#516B43"/>
<path d="M89.7992 41.4917C89.7648 41.8359 89.7235 42.1801 89.6753 42.5244C89.5789 41.0787 89.4481 39.633 89.2829 38.1942C88.5738 31.8471 87.0937 25.5481 84.2299 19.8136C82.6604 16.6813 80.7397 13.6248 78.4817 10.94C78.4197 10.2998 77.5317 9.96244 77.1393 10.6164C76.2444 12.1241 75.5697 13.6868 74.8606 15.2908C74.1653 16.8603 73.4288 18.4161 72.6784 19.9651C71.219 22.9872 69.6494 25.9543 67.9903 28.8731C64.6584 34.7246 60.9478 40.3627 57.017 45.8287C54.7728 48.9541 52.4528 52.0244 50.0916 55.0603C49.7267 55.5285 49.6372 56.1549 50.0916 56.6024C50.243 56.7538 50.4564 56.8502 50.6836 56.8984C50.6905 56.8984 50.6974 56.9122 50.7043 56.9122C51.7231 57.5937 52.5561 58.702 53.3822 59.597C54.2565 60.547 55.1376 61.497 55.9913 62.4745C57.6985 64.4296 59.3232 66.4605 60.817 68.5808C63.7566 72.7732 66.166 77.3649 67.3845 82.3628C67.7149 83.7258 67.9972 85.1233 68.1211 86.5208C68.183 87.1748 68.2312 87.9045 68.1486 88.5929C67.887 88.9578 67.6254 89.3226 67.3707 89.6875C67.6254 83.6845 64.1696 77.6196 61.0029 72.7801C58.9101 69.579 56.5351 66.5499 53.9398 63.7412C51.3583 60.9394 48.5564 58.2959 45.4517 56.0861C45.1143 55.8451 44.7426 55.6524 44.3708 55.4596C45.6582 54.4408 46.8216 53.2292 47.8886 52.0107C49.2999 50.3929 50.6492 48.7201 51.964 47.0197C54.6488 43.5432 57.2442 40.0048 59.7362 36.3837C64.6377 29.2586 69.1331 21.8651 73.1809 14.2237C74.303 12.1103 75.3907 9.9831 76.4027 7.8146C76.9259 6.69248 77.4422 5.57037 77.931 4.42761C78.0067 4.24862 78.1031 4.04898 78.1994 3.83557C79.5763 6.57545 81.1252 9.22584 82.5296 11.9451C84.0923 14.9672 85.5723 18.0513 86.784 21.2318C89.2622 27.7373 90.5014 34.5319 89.7923 41.4917H89.7992Z" fill="#95A584"/>
<path d="M77.2289 44.3348C77.2082 45.2848 76.9742 46.2349 76.568 47.0954C76.2927 47.6874 75.9347 48.245 75.5216 48.7476C75.0053 49.1813 74.255 49.8972 73.4426 50.4755C72.9676 50.7302 72.4789 50.9574 72.0314 51.2603C71.2053 51.5563 70.3998 51.515 69.7252 50.7577C68.0799 48.8852 69.7596 46.2968 71.0194 44.7754C71.8042 43.8254 72.6234 42.8341 73.6423 42.1319C74.0966 41.8152 74.5854 41.5399 75.1292 41.4228C75.5561 41.3265 76.2445 41.2645 76.5887 41.5949C76.8916 41.8703 76.9948 42.4486 77.0843 42.8341C77.2014 43.3297 77.2427 43.8392 77.222 44.3486L77.2289 44.3348Z" fill="#638351"/>
<path d="M46.8492 67.0387C46.9318 68.3949 46.0506 69.4688 45.0318 70.2605C43.8133 71.2174 42.168 72.0848 40.5708 72.016C40.3505 71.9953 40.1302 71.9678 39.9168 71.9334C39.8205 71.9196 39.7241 71.8921 39.6346 71.8714C38.5056 71.5065 37.59 70.5497 37.0599 69.5102C36.9842 69.3656 36.8534 69.2761 36.7157 69.2279C35.9791 67.2797 36.6194 65.0699 38.4023 63.8445C40.4676 62.4264 43.3589 62.3782 45.2658 64.1061C46.0988 64.8565 46.7872 65.8891 46.8492 67.0387Z" fill="#638351"/>
<path d="M91.9883 33.0931C91.651 29.6373 90.8731 26.264 89.7647 22.9734C87.9679 17.6314 85.2831 12.7161 82.9976 7.60807C81.7654 4.85442 80.1063 2.29352 78.103 0.0424162C77.3871 -0.756142 72.1276 9.97621 71.7283 10.7403C69.7044 14.5817 67.5634 18.3611 65.333 22.0854C61.1681 29.059 56.6452 35.8123 51.7781 42.3178C49.0245 40.5004 46.5049 38.1529 44.4121 35.6196C43.7581 34.8348 37.6037 25.6101 38.7052 24.784C34.9671 27.5789 32.2203 32.6181 29.4736 36.3286C26.7956 39.9497 24.1659 43.612 21.5843 47.3088C16.4213 54.6955 11.4784 62.2543 7.1621 70.1779C5.99868 72.312 4.89034 74.4667 3.83707 76.6558C2.54285 79.3544 1.21422 82.0599 0.00261319 84.7929C-0.176374 85.199 8.8969 89.5911 9.48894 89.8871C13.3372 91.7872 17.2749 93.4944 21.2677 95.064C29.1913 98.1825 37.4109 101.074 45.9473 101.838C50.0709 102.21 54.4079 102.086 58.4282 101.033C60.3007 100.544 62.0837 99.7314 63.5362 98.4372C64.6996 97.3977 65.5739 96.0828 66.2072 94.6647C66.6891 93.9969 67.1504 93.3085 67.6322 92.6408C68.6029 91.2846 69.5805 89.9284 70.5511 88.5654C72.4236 85.9356 74.2892 83.299 76.0791 80.6142C79.5831 75.3616 82.8186 69.9163 85.3795 64.1405C86.7908 60.96 88.0024 57.6901 89.0212 54.3582C89.3999 53.7248 89.572 52.9194 89.6683 52.2172C89.6752 52.1552 89.6821 52.0864 89.689 52.0244C90.4049 49.3947 91.0039 46.7305 91.4651 44.0457C92.0915 40.4178 92.3394 36.7555 91.9814 33.0931H91.9883ZM60.4797 97.7006C58.8963 98.6093 57.072 99.0155 55.289 99.3184C53.3477 99.6488 51.3857 99.7727 49.4169 99.759C41.4657 99.697 33.7417 97.3013 26.3344 94.6028C22.1695 93.0814 18.0597 91.4292 14.0256 89.5773C11.9672 88.6342 9.92952 87.6429 7.92624 86.6034C7.07261 86.1559 4.35337 85.3092 4.27765 84.1458C4.257 83.8429 4.36026 83.5469 4.46352 83.2577C5.00048 81.7432 5.58564 80.3113 6.27405 78.8656C7.18964 76.9243 8.1603 75.0037 9.17226 73.1105C11.2513 69.1935 13.5024 65.3728 15.8499 61.6071C20.6206 53.9727 25.7974 46.6135 30.9812 39.2544C33.3149 35.9431 35.7588 32.6869 38.0099 29.3068C39.3729 32.0261 41.0113 34.5801 43.0422 36.8587C45.3759 39.4816 48.0951 41.5193 51.1723 43.1508C51.0622 43.2954 50.9589 43.4399 50.8488 43.5845C50.6285 43.8805 50.3944 44.1697 50.1741 44.4588C50.0158 44.3693 49.8368 44.3142 49.6716 44.328C49.589 44.328 49.5064 44.3418 49.4238 44.3555C49.4031 44.3555 49.3962 44.3555 49.3824 44.3555C49.3411 44.328 49.3067 44.3005 49.2861 44.2936C49.0107 44.1352 48.7147 44.0113 48.4324 43.8599C47.8679 43.5639 47.3172 43.2472 46.7665 42.9167C45.6994 42.2696 44.6806 41.5606 43.7168 40.7689C42.7599 39.9772 41.8512 39.1236 41.0045 38.2149C40.1508 37.2993 39.3523 36.129 38.3197 35.413C38.299 35.3993 38.2783 35.3924 38.2508 35.3855C38.12 35.2685 37.9341 35.2341 37.7689 35.3442C37.5486 35.4199 37.3696 35.6058 37.3008 35.833C35.029 38.3319 33.129 41.1957 31.2634 43.9976C29.2601 46.999 27.3119 50.0349 25.3981 53.0915C21.5706 59.2046 17.86 65.4003 14.4593 71.7612C13.5093 73.5373 12.573 75.3203 11.6574 77.1102C11.1755 78.0396 10.7005 78.9758 10.2324 79.912C9.75053 80.862 9.05523 81.9015 9.18603 82.9961C9.24799 83.5193 9.61284 83.9599 10.0741 84.0632C10.5491 84.6552 11.4647 85.0614 12.0292 85.378C12.9241 85.8875 13.8259 86.39 14.7415 86.8512C16.6415 87.815 18.576 88.7031 20.5379 89.536C24.5101 91.2158 28.5786 92.6408 32.7297 93.8248C36.8327 94.9951 40.9976 95.9383 45.1969 96.6542C49.5821 97.4046 54.1738 98.1205 58.5659 97.0191C60.3144 96.5785 61.9735 95.7937 63.4192 94.7129C62.7101 95.9245 61.7326 96.964 60.4865 97.68L60.4797 97.7006ZM42.0715 55.7625C43.9509 57.4423 49.5064 62.6329 49.9194 63.039C52.4252 65.538 54.7452 68.2297 56.8173 71.1004C58.4695 73.379 60.0046 75.7609 61.3677 78.2254C61.0786 79.0653 60.934 79.974 60.8376 80.8276C60.6931 82.17 60.7688 83.5193 61.0235 84.848C61.0992 85.2403 61.2025 85.6259 61.3195 86.0114C60.5967 86.6516 59.6742 86.6998 58.6898 86.7755C57.0789 86.8925 55.4611 86.8857 53.8433 86.7755C50.5596 86.5483 47.3172 85.8943 44.1299 85.0682C37.7689 83.4298 31.4975 81.3302 25.3087 79.1272C23.567 78.5077 21.8253 77.8812 20.0905 77.241C18.5553 76.6765 16.9995 76.2428 15.423 75.8366C15.6502 75.3892 15.8774 74.9417 16.1115 74.4942C17.7774 71.2931 19.464 68.0989 21.1851 64.9322C24.6134 58.6332 28.2344 52.4375 32.0482 46.3657C32.5989 45.4914 33.1634 44.6171 33.7279 43.7428C33.8037 43.853 33.8794 43.9562 33.9551 44.0526C34.3475 44.6034 34.8019 45.099 35.2838 45.5809C36.2751 46.5722 37.4041 47.4465 38.5881 48.1969C40.5501 49.436 42.815 50.5031 45.1349 50.9781C43.9646 52.5476 42.457 53.298 41.445 55.2324C41.4519 55.2187 41.686 55.4183 42.0646 55.7556L42.0715 55.7625ZM15.0307 76.6352C17.8738 78.2805 20.8753 79.5128 23.9594 80.6762C27.305 81.936 30.6783 83.12 34.079 84.2077C40.736 86.3418 47.5857 88.5034 54.6144 88.8476C55.8053 88.9027 60.3213 89.1781 62.1043 87.9527C62.2007 88.1454 62.2971 88.3451 62.4003 88.5378C62.7445 89.1505 63.1438 89.7288 63.5844 90.2864C63.7358 90.4792 63.8873 90.665 64.0525 90.8371C63.6119 91.4154 63.0887 91.9248 62.538 92.393C61.2782 93.46 59.7362 94.1966 58.1528 94.6165C54.0705 95.7111 49.706 94.9676 45.6168 94.2586C37.4729 92.8404 29.446 90.5824 21.8046 87.4226C19.7187 86.5621 17.681 85.6052 15.6571 84.5932C14.6658 84.0976 13.6883 83.595 12.7176 83.065C12.4904 82.9411 12.2426 82.7965 11.9948 82.6588C12.1669 82.349 12.3183 82.0255 12.4835 81.6813C12.8966 80.8552 13.3027 80.0291 13.7158 79.203C14.1495 78.3425 14.5901 77.4888 15.0238 76.6352H15.0307ZM64.2659 87.6773C63.6395 86.6722 63.1851 85.5777 62.8547 84.4418C62.5311 83.3335 62.359 82.1769 62.359 81.0204C62.359 80.7312 62.3797 80.4559 62.4072 80.1736C63.7014 82.7689 64.7478 85.6121 64.8648 88.531C64.6514 88.2556 64.4518 87.9733 64.2659 87.6773ZM46.56 49.1262C45.3484 48.7958 44.1367 48.5342 42.9527 48.0867C41.7548 47.6393 40.6052 47.0954 39.5106 46.4483C38.4367 45.815 37.3972 45.099 36.4265 44.3142C35.924 43.9081 35.4352 43.4744 34.9258 43.0682C34.7674 42.9374 34.6091 42.7928 34.4439 42.662C35.5867 40.8928 36.7019 39.1029 37.6932 37.2511C38.1957 38.1667 38.9668 39.0203 39.607 39.7432C40.5157 40.762 41.507 41.7189 42.5534 42.6001C43.6273 43.5019 44.7563 44.3349 45.9335 45.0852C46.5255 45.457 47.1382 45.8081 47.7578 46.1316C48.0194 46.2693 48.2879 46.4139 48.5701 46.5309C47.8955 47.3983 47.2277 48.2588 46.56 49.1331V49.1262ZM78.0617 12.7367C79.3284 14.981 80.7672 17.1288 81.9719 19.4212C83.3969 22.1267 84.5397 24.9354 85.4002 27.8749C87.0799 33.6438 87.7339 39.6674 88.0162 45.6497C88.0781 46.9784 88.2158 48.3139 88.2846 49.6425C88.0643 50.5237 87.8234 51.4049 87.5825 52.286C87.4241 52.8574 87.252 53.4288 87.0799 54.0002C86.9353 53.9727 86.7908 53.952 86.6393 53.952C86.6806 53.2085 86.6324 52.4444 86.6255 51.7491C86.6118 50.4755 86.5567 49.2088 86.4603 47.9422C86.2607 45.3744 85.8889 42.8135 85.4002 40.287C84.4364 35.2891 82.6947 30.4221 80.3128 25.9267C79.0806 23.5999 77.6211 21.1491 75.2667 19.7999C75.2323 19.7792 75.1979 19.7654 75.1635 19.7517C75.6178 18.7672 76.0653 17.7759 76.499 16.7846C77.0842 15.4353 77.6487 14.1205 78.0755 12.7436L78.0617 12.7367ZM74.0345 22.0923C74.124 21.9202 74.1997 21.7412 74.2892 21.5622C76.086 22.822 77.2356 24.66 78.2544 26.5601C79.3903 28.6873 80.4161 30.8833 81.2766 33.1344C83.0045 37.6642 84.2918 42.3936 84.7944 47.2193C84.9389 48.603 85.0284 49.9936 85.0766 51.3842C85.1042 52.286 85.0009 53.2842 85.056 54.2274C84.8563 54.2962 84.6705 54.3719 84.5052 54.4477C83.2455 55.0259 82.2128 56.0172 81.249 56.981C79.2527 58.9774 77.4559 61.1803 75.8657 63.5209C74.7573 65.1594 73.7591 66.8804 72.8711 68.6496C72.699 68.3123 72.5269 67.9818 72.3823 67.6652C71.8798 66.5844 71.3359 65.5173 70.7577 64.4709C69.6287 62.447 68.3826 60.4988 67.0264 58.6194C65.6703 56.747 64.2108 54.9433 62.6482 53.2429C61.8427 52.3618 61.0028 51.5081 60.1355 50.6889C59.7018 50.2759 59.2612 49.8766 58.8206 49.4773C58.4626 49.1538 58.1115 48.7958 57.6847 48.5824C63.8047 40.1769 69.4359 31.4271 74.0345 22.0854V22.0923ZM56.714 49.9179C56.9963 50.2828 57.4162 50.5788 57.7467 50.8817C58.1872 51.281 58.6209 51.694 59.0477 52.1071C59.8532 52.885 60.638 53.6835 61.4021 54.5027C62.9304 56.1412 64.3692 57.8622 65.6978 59.6727C67.0265 61.4763 68.2449 63.3626 69.3602 65.3039C69.9178 66.2746 70.4548 67.259 70.9573 68.2572C71.2258 68.7873 71.4943 69.3243 71.749 69.8612C71.8453 70.0609 71.9279 70.2674 72.0243 70.467C70.8058 73.2069 69.849 76.0569 69.2156 78.9827C69.1812 79.1341 69.1537 79.2856 69.1261 79.437C68.7544 78.2323 68.3138 77.0482 67.825 75.8848C65.6014 70.6322 62.3108 65.9235 58.6072 61.614C57.547 60.3818 56.4593 59.1633 55.3234 57.993C54.4698 57.1118 53.6231 56.093 52.5767 55.4183C53.981 53.6009 55.3647 51.7629 56.7278 49.9179H56.714ZM84.3882 61.5658C82.027 67.2728 78.9635 72.6562 75.6041 77.8261C73.9106 80.4283 72.1482 82.9824 70.3515 85.5157C70.2895 84.9374 70.2138 84.3798 70.1381 83.8911C70.3033 82.8309 70.4616 81.7776 70.6819 80.7312C71.2051 78.2254 71.9624 75.7678 72.8917 73.379C74.7367 68.6358 77.4352 64.1956 80.8153 60.3887C81.7722 59.3147 82.7704 58.2546 83.8581 57.3115C84.3676 56.8709 84.9389 56.4578 85.5792 56.21C85.8683 56.0998 86.1506 56.0517 86.4259 56.031C85.8064 57.8966 85.1317 59.7484 84.3813 61.5658H84.3882ZM89.806 41.4917C89.7716 41.8359 89.7303 42.1801 89.6821 42.5243C89.5857 41.0787 89.4549 39.633 89.2897 38.1942C88.5806 31.8471 87.1006 25.5481 84.2368 19.8136C82.6672 16.6813 80.7465 13.6248 78.4885 10.94C78.4266 10.2998 77.5385 9.96244 77.1461 10.6164C76.2512 12.1241 75.5765 13.6868 74.8675 15.2908C74.1722 16.8603 73.4356 18.4161 72.6852 19.9651C71.2258 22.9872 69.6562 25.9543 67.9971 28.8731C64.6652 34.7246 60.9546 40.3627 57.0238 45.8287C54.7796 48.9541 52.4596 52.0244 50.0984 55.0603C49.7335 55.5285 49.644 56.1549 50.0984 56.6024C50.2498 56.7538 50.4633 56.8502 50.6904 56.8984C50.6973 56.8984 50.7042 56.9122 50.7111 56.9122C51.7299 57.5937 52.5629 58.702 53.389 59.597C54.2633 60.547 55.1445 61.497 55.9981 62.4745C57.7053 64.4296 59.33 66.4605 60.8239 68.5808C63.7634 72.7732 66.1728 77.3649 67.3913 82.3628C67.7217 83.7258 68.004 85.1233 68.1279 86.5208C68.1899 87.1748 68.2381 87.9045 68.1554 88.5929C67.8939 88.9578 67.6323 89.3226 67.3775 89.6875C67.6323 83.6845 64.1764 77.6196 61.0097 72.7801C58.917 69.579 56.5419 66.5499 53.9466 63.7412C51.3651 60.9394 48.5632 58.2959 45.4585 56.0861C45.1212 55.8451 44.7494 55.6524 44.3777 55.4596C45.665 54.4408 46.8284 53.2292 47.8955 52.0107C49.3067 50.3929 50.656 48.7201 51.9709 47.0197C54.6557 43.5432 57.251 40.0048 59.743 36.3837C64.6445 29.2586 69.1399 21.8651 73.1877 14.2237C74.3099 12.1103 75.3975 9.98309 76.4095 7.81459C76.9327 6.69248 77.449 5.57037 77.9378 4.4276C78.0135 4.24862 78.1099 4.04898 78.2063 3.83557C79.5831 6.57545 81.132 9.22584 82.5364 11.9451C84.0991 14.9672 85.5792 18.0513 86.7908 21.2318C89.2691 27.7372 90.5082 34.5319 89.7991 41.4917H89.806Z" fill="#020302"/>
<path d="M72.3756 53.1397C72.6441 53.0502 72.8988 52.9401 73.1535 52.8162C74.1517 52.651 75.081 52.0245 75.8658 51.4049C76.8985 50.5788 77.759 49.4911 78.351 48.3071C78.9637 47.0748 79.3286 45.7186 79.3561 44.3349C79.3836 42.965 79.1151 41.1545 78.1238 40.1287C76.9191 38.8827 74.8677 39.1443 73.4495 39.8327C71.9901 40.5349 70.8473 41.8016 69.8216 43.0201C68.7477 44.3074 67.6875 45.6773 67.2469 47.3226C66.8752 48.7339 67.0266 50.3861 67.8665 51.6115C68.8716 53.0847 70.6752 53.6973 72.3756 53.1397ZM71.0263 44.7686C71.8111 43.8255 72.6372 42.8273 73.6491 42.1182C74.1035 41.8016 74.5923 41.5262 75.1361 41.4092C75.5698 41.3128 76.2445 41.2508 76.6024 41.5744C76.9053 41.8566 77.0086 42.4349 77.0912 42.8135C77.2082 43.3161 77.2427 43.8186 77.2289 44.328C77.2014 45.2712 76.9673 46.2281 76.568 47.0817C76.2858 47.6806 75.9347 48.2245 75.5285 48.7339C75.0053 49.1676 74.2618 49.8767 73.4495 50.4618C72.9745 50.7165 72.4857 50.9506 72.0383 51.2466C71.2122 51.5426 70.3999 51.5013 69.7321 50.744C68.0937 48.8785 69.7665 46.2831 71.0263 44.7617V44.7686Z" fill="#020302"/>
<path d="M39.015 61.1184C35.7657 62.3781 33.549 65.6688 34.5679 69.1865C34.8639 70.1916 35.3871 71.1279 36.103 71.8714C36.1581 71.9746 36.2269 72.0848 36.2958 72.188C36.8328 72.9659 37.7001 73.5304 38.5675 73.8815C40.5433 74.6801 42.7462 74.1775 44.5636 73.2206C46.2778 72.3257 47.9506 70.9833 48.701 69.1521C49.3687 67.5275 49.0796 65.6894 48.1847 64.2024C46.3053 61.0839 42.3882 59.8104 39.0081 61.1184H39.015ZM45.2658 64.1061C46.0988 64.8633 46.7872 65.8959 46.856 67.0387C46.9318 68.3949 46.0575 69.4688 45.0386 70.2674C43.8201 71.2174 42.1817 72.0848 40.5777 72.0228C40.3574 72.0022 40.1371 71.9746 39.9237 71.9402C39.8273 71.9264 39.7378 71.8989 39.6415 71.8714C38.5125 71.5065 37.5969 70.5496 37.0668 69.5101C36.9911 69.3655 36.8672 69.276 36.7226 69.2279C35.9929 67.2728 36.6262 65.0698 38.4092 63.8445C40.4813 62.4263 43.3658 62.3713 45.2727 64.0992L45.2658 64.1061Z" fill="#020302"/>
</svg>
