<svg width="116" height="99" viewBox="0 0 116 99" fill="none" xmlns="http://www.w3.org/2000/svg">
<path d="M17.679 9.23782C19.5819 9.86276 21.4362 10.7456 23.1784 11.6902C25.7393 13.0819 28.1436 14.7988 30.3699 16.6903C34.9207 20.5372 38.7484 25.1888 41.9091 30.241C45.2672 35.6077 47.9141 41.4077 50.1918 47.3191C50.8003 48.9036 51.4203 50.5093 52.023 52.1322C55.7634 62.1825 59.1414 72.8855 59.1741 83.5079L59.1737 83.7386L59.4032 83.7093C64.5101 83.0431 69.5421 82.0612 74.6133 81.5026C78.3513 81.0873 82.1024 80.9097 85.9262 81.2587C86.8339 81.3412 87.7332 81.4469 88.633 81.5822C90.8058 81.9089 92.9555 82.3892 95.063 83.0204C96.5157 83.4499 97.9941 83.903 99.3505 84.549C100.072 84.8932 100.76 85.2667 101.46 85.6567C101.618 85.7444 101.771 85.8313 101.925 85.9182L102.254 86.1052L102.228 85.7231C102.195 85.2566 102.167 84.7956 102.149 84.3312C102.089 82.7066 101.889 81.0756 101.714 79.4728C101.547 77.8811 101.365 76.2969 101.123 74.7136C100.939 73.4975 100.733 72.2929 100.504 71.0846C100.131 69.074 99.6972 67.0739 99.2219 65.0921C98.6109 62.5153 97.93 59.9476 97.1778 57.3987C96.3437 54.5477 95.4232 51.7181 94.4087 48.9284C92.5397 43.7807 90.3606 38.7434 87.7519 33.9265C85.206 29.2122 82.2071 24.7442 78.7762 20.6434C77.0767 18.6003 75.2463 16.6799 73.3131 14.8571C71.526 13.1691 69.638 11.5986 67.7831 10.0036L67.6968 9.92674L67.5891 9.95966C67.5431 9.97239 67.528 9.97503 67.5184 9.97359L67.5089 9.97215C66.4932 9.85874 65.48 9.7948 64.4893 9.64585L64.4031 9.6329C63.4986 9.4969 62.5938 9.29704 61.6807 9.12046C60.1401 8.82009 58.5876 8.56703 57.0369 8.33389C56.6349 8.27345 56.2281 8.21228 55.8213 8.15112C48.9303 7.17401 41.99 6.65601 35.0205 6.885C31.5238 6.9977 28.036 7.27873 24.562 7.72879C22.2563 8.02546 19.9694 8.45756 17.6918 8.82722L16.8734 8.96445L17.662 9.22053L17.679 9.23782ZM35.5225 9.56819C40.9699 9.30678 46.216 9.0495 51.6939 9.6914C52.213 9.7547 52.7217 9.82136 53.2338 9.89835C55.6986 10.2689 58.0958 10.7963 60.5654 11.1676C62.0347 11.3885 63.527 11.554 65.0819 11.5962C65.1503 11.5967 65.2181 11.6019 65.2899 11.6127C65.8355 11.6948 66.305 12.0551 66.7648 12.5122C67.2247 12.9693 67.6715 13.5129 68.2003 13.9017C69.4173 14.7919 70.5343 15.5983 71.6219 16.6654C74.2767 19.2548 76.7507 22.0381 79.021 24.9724C82.1566 29.019 84.8887 33.3732 87.2442 37.9213C89.5483 42.388 91.4902 47.0507 93.0478 51.8275C93.487 53.1704 93.9049 54.5248 94.2879 55.8838C95.262 59.3009 96.0714 62.7719 96.7307 66.2645C97.119 68.3364 97.4504 70.4292 97.7277 72.5236C97.7777 72.8749 97.8229 73.2254 97.868 73.576C98.0202 74.7775 98.1668 75.9831 98.2601 77.1856C98.352 78.3977 98.4584 79.5776 98.3007 80.757L98.2985 80.7714L98.281 80.8228L98.2345 80.9042L98.2653 80.9923C98.2935 81.0653 98.3044 81.1554 98.2929 81.2322C98.2755 81.3475 98.2199 81.457 98.1366 81.523C98.058 81.5898 97.9694 81.6256 97.8402 81.6061L97.8163 81.6025C96.5335 81.3458 95.2701 80.6992 93.9625 80.2816C92.7301 79.8851 91.4662 79.5674 90.1984 79.3081C89.543 79.1751 88.895 79.0581 88.2393 78.9595C85.8894 78.6062 83.5173 78.4656 81.146 78.4823C79.0937 78.493 77.048 78.6225 75.0052 78.831C70.2433 79.3183 65.512 80.7088 60.8199 81.0248C60.1743 74.023 58.4889 66.7764 56.9715 59.9086C56.3869 57.2867 55.7029 54.6744 54.9098 52.1046C54.8571 51.9346 54.801 51.7543 54.7482 51.5843C54.0023 49.1885 53.1645 46.8183 52.2367 44.4934C50.3476 39.7404 48.0685 35.14 45.3265 30.8186C42.7475 26.7476 39.7623 22.9053 36.3271 19.516C34.6534 17.8549 32.8749 16.3057 30.9987 14.8843C29.324 13.6209 27.6072 12.5721 25.9274 11.4405C25.3057 11.018 24.6917 10.577 24.0813 10.112C27.8921 9.92865 31.7029 9.74531 35.5136 9.56196L35.5225 9.56819Z" fill="#E4F6C2"/>
<path d="M55.5655 49.3058L56.2888 50.2887C56.5205 50.6034 56.7749 50.8971 57.0436 51.1928C58.239 52.4873 59.7087 53.6168 60.6674 55.1508C61.6564 56.7433 61.8203 58.7127 62.2615 60.3358C62.67 61.8508 63.0435 63.3704 63.3806 64.9042C64.0668 68.0227 64.6227 71.1609 65.0121 74.333C65.1229 75.2238 65.2399 76.1057 65.3609 76.9931C65.4102 77.3492 65.4599 77.7348 65.4062 78.1246C65.3722 78.3503 65.3106 78.5325 65.282 78.6903L65.261 78.8296L65.1205 78.8526C64.1238 79.0367 63.1297 79.2359 62.1396 79.4407L61.9278 79.4825L61.8966 79.2666C61.7244 78.0032 61.4146 76.7436 61.1747 75.4749C60.8551 73.7915 60.5643 72.1124 60.2996 70.4225C59.8098 67.3974 59.3653 64.3644 58.759 61.3659C58.0728 57.9872 57.2215 54.6327 56.2013 51.3265C56.1125 51.0381 56.0238 50.7498 55.9302 50.4607L55.5614 49.3003L55.5655 49.3058Z" fill="#638351"/>
<path d="M88.2795 43.2434L88.7192 44.2573C90.2563 47.8033 91.5791 51.4398 92.7023 55.1347C93.6835 58.3418 94.507 61.589 95.1987 64.8654C95.751 67.5071 96.2313 70.1723 96.6273 72.8444C96.6344 72.8946 96.6423 72.94 96.6494 72.9902C96.8453 74.2916 97.0062 75.5975 97.1782 76.8953C97.3156 77.9669 97.4346 79.0308 97.6709 80.0633L97.7742 80.5159L97.3735 80.2837C96.609 79.8349 95.716 79.5238 94.8853 79.2221C94.3987 79.0409 93.9092 78.8789 93.4134 78.7258L93.2584 78.6829L93.2678 78.5222C93.3161 77.7781 93.2789 77.0162 93.2602 76.262C93.2442 75.5868 93.218 74.915 93.1822 74.2417C93.1648 73.8364 93.1426 73.4304 93.1109 73.0229C92.9703 70.8655 92.7337 68.7281 92.3993 66.5906C91.7444 62.3522 90.7401 58.1595 89.405 54.0841C89.3589 53.9347 89.3081 53.7847 89.2572 53.6346C88.9268 52.642 88.5792 51.6665 88.2124 50.6881C88.0125 50.162 87.8079 49.6353 87.5922 49.1166L87.564 49.0437L87.5899 48.969C87.8897 48.1792 88.1063 47.3572 88.2305 46.5312C88.3381 45.8157 88.3794 45.0852 88.3427 44.3529L88.289 43.2448L88.2795 43.2434Z" fill="#638351"/>
<path d="M62.538 56.316C62.564 56.4034 62.5893 56.4956 62.6227 56.5988C62.7506 57.0502 62.873 57.5057 62.9954 57.9612C63.2481 58.9175 63.4863 59.8717 63.7136 60.834C64.4949 64.1338 65.0945 67.4701 65.5418 70.8424C65.7642 72.521 65.9987 74.2161 66.093 75.9001C66.1136 76.2518 66.1665 77.1044 66.0534 77.8241C66.0216 78.0354 65.9817 78.2357 65.9174 78.4028L65.7992 78.7337L66.1412 78.6721C67.2428 78.4744 68.3381 78.2855 69.4368 78.1069C74.3468 77.3178 79.3277 76.8389 84.2909 77.1284C84.3737 77.131 84.451 77.1377 84.5283 77.1444C85.7024 77.2129 86.8726 77.3397 88.0309 77.5139C89.1891 77.688 90.3305 77.9087 91.4577 78.1912C91.6374 78.2329 91.8109 78.2836 91.9899 78.3301L92.2536 78.3992L92.2414 78.1224C92.2046 77.39 92.2249 76.6368 92.1959 75.886C92.178 75.4511 92.1602 75.0163 92.1328 74.58C92.0875 73.8071 92.0312 73.0423 91.9708 72.2721C91.6046 68.0672 90.9253 63.8939 89.901 59.8014C89.3954 57.7609 88.7937 55.7405 88.1193 53.7484C88.0443 53.5308 87.9734 53.3188 87.8929 53.1054C87.6339 52.3544 87.3598 51.606 87.0706 50.8602L87.0646 50.8348L87.0436 50.812L86.8614 50.5587L86.708 50.8303C86.4894 51.2099 86.2565 51.5874 85.997 51.9462C85.9098 52.0706 85.817 52.1991 85.721 52.3172C81.9895 57.2466 75.4581 59.3143 69.4572 58.4072C69.0312 58.3432 68.6074 58.2647 68.1858 58.1719C66.2964 57.7503 64.5044 57.0389 62.8321 56.0852L62.4034 55.8439L62.5373 56.3208L62.538 56.316ZM72.9832 65.2283C73.3884 64.3561 74.1199 63.6902 75.0373 63.4156C75.9999 63.133 77.084 63.1487 78.1034 63.302C78.1944 63.3156 78.2901 63.33 78.3858 63.3444C79.3435 63.5179 80.3409 63.8495 81.0486 64.4814C81.8079 65.1603 82.2144 66.1349 82.0635 67.1386L82.0556 67.1914C81.8747 68.2643 81.1621 69.2277 80.2194 69.7686C79.2547 70.3258 78.0211 70.6855 76.9227 70.5694L76.8619 70.5505L76.8251 70.5351L76.7853 70.539C76.4167 70.5818 76.0458 70.5751 75.6868 70.5211C75.146 70.4398 74.6314 70.2495 74.162 69.953C72.9701 69.1894 72.459 67.6737 72.6691 66.2762C72.7247 65.9064 72.8322 65.5493 72.9847 65.2187L72.9832 65.2283Z" fill="#C0EA6E"/>
<path d="M54.8886 45.6042C55.2094 47.4744 56.2549 49.1147 57.5745 50.5261C57.7347 50.6976 57.8957 50.8642 58.0621 51.0267C59.2719 52.2251 60.6651 53.2449 61.9379 54.0894C64.2062 55.6042 66.781 56.6101 69.4659 57.0138C69.8105 57.0656 70.1566 57.1078 70.5041 57.1404C73.9085 57.446 77.7769 56.4561 80.9413 54.55C82.1958 53.7908 83.3446 52.888 84.2973 51.8576C85.7518 50.2887 86.7683 48.4427 87.0795 46.3729C87.3554 44.5384 87.0717 42.551 86.0434 40.4713C84.6087 37.5791 81.4978 35.9721 78.6784 34.8999C77.1783 34.3306 75.6098 33.9229 74.0113 33.6826C69.9576 33.0731 65.7337 33.5627 62.0355 35.3738C61.2803 35.7415 60.4846 36.2161 59.7164 36.7685C58.9426 37.3249 58.1964 37.9592 57.5268 38.6688C56.1844 40.0778 55.1431 41.7629 54.8673 43.5974C54.7691 44.2505 54.77 44.9283 54.8879 45.609L54.8886 45.6042ZM60.5207 45.4492C61.1286 45.0839 61.7732 44.7682 62.4366 44.4898L62.5678 44.431L62.56 44.2874C62.5257 43.7666 62.5463 43.2393 62.6228 42.7303C62.7687 41.7602 63.1186 40.865 63.7197 40.1549C63.9276 39.9111 64.1313 39.8582 64.3283 39.8829C64.5102 39.9103 64.6838 40.0248 64.8009 40.1897C64.9229 40.3554 64.9835 40.5708 64.9495 40.7965C64.9438 40.8349 64.9373 40.8781 64.9212 40.9199C64.7014 41.6333 64.5043 42.3256 64.3967 43.0412C64.3736 43.1948 64.3512 43.3437 64.3425 43.4995L64.3176 43.7954L64.5996 43.7101C64.743 43.6678 64.8823 43.62 65.0147 43.5859C66.7428 43.0943 68.4976 42.7836 70.2744 42.5547L70.4141 42.5364L70.4447 42.3986C70.6224 41.6396 70.8772 40.9216 71.2843 40.3296C71.6859 39.7418 72.2399 39.2799 73.0189 39.014C73.6324 38.8067 74.2933 38.7734 74.9489 38.872C76.6863 39.1332 78.4422 40.345 79.4732 41.7229C79.5681 41.8403 79.6864 41.8679 79.7964 41.8844C79.9974 41.9146 80.2358 41.8916 80.5154 41.855C80.93 41.7995 81.4099 41.6998 81.824 41.6147C82.0304 41.577 82.2175 41.5364 82.3676 41.5147C82.5136 41.4876 82.6314 41.4856 82.6553 41.4892L82.6649 41.4907C82.9138 41.5281 83.154 41.6231 83.3542 41.7564C83.5482 41.8985 83.6981 42.0732 83.773 42.2908C83.8005 42.3686 83.8114 42.4586 83.8006 42.5306C83.7898 42.6027 83.7696 42.6389 83.7366 42.6634C83.709 42.6839 83.637 42.7074 83.5369 42.7218C83.4711 42.7365 82.7951 42.8706 82.1055 42.9977C81.7635 43.0592 81.4111 43.1241 81.1363 43.1614C80.9958 43.1844 80.8759 43.2008 80.7814 43.2111C80.7368 43.2143 80.6971 43.2181 80.6677 43.2186L80.6327 43.2232L80.6231 43.2217L80.6029 43.3562L80.5814 43.4021L80.3755 43.4693C80.612 44.2072 80.6916 44.9803 80.5753 45.7535C80.5666 45.8111 80.5587 45.864 80.55 45.9216C80.4217 46.58 80.1732 47.1909 79.8061 47.7447C79.6309 47.9982 79.4172 48.2804 79.1727 48.4745C78.9275 48.6733 78.672 48.7773 78.3992 48.7363L78.337 48.7269C78.1908 48.6902 78.0224 48.606 77.9014 48.4994C77.7811 48.388 77.7122 48.2598 77.7093 48.1169C77.7086 48.0235 77.7202 47.9467 77.7303 47.8794C77.7534 47.7258 77.7939 47.6189 77.8646 47.5068C77.9353 47.3946 78.0369 47.2724 78.177 47.1216C78.3718 46.9004 78.5304 46.6591 78.6537 46.3927C78.7769 46.1264 78.8537 45.8433 78.8963 45.56C78.9389 45.2767 78.9468 44.9636 78.9088 44.6632C78.8672 44.2886 78.7584 43.9383 78.6069 43.611L78.5436 43.4787L78.3991 43.4963C77.9661 43.5442 77.5338 43.5872 77.0912 43.6336C75.4141 43.8185 73.7305 43.9485 72.0438 44.132L71.8849 44.1473L71.8611 44.3058C71.7962 44.9001 71.7442 45.5062 71.6569 46.0873C71.5493 46.8028 71.3919 47.4913 71.1038 48.106C70.8211 48.7166 70.4083 49.2488 69.7821 49.6703C69.6836 49.739 69.5811 49.8022 69.4801 49.8557C68.7603 50.2484 67.9923 50.3441 67.2313 50.2297C66.9537 50.188 66.6804 50.1174 66.4163 50.0188C65.3241 49.6336 64.3193 48.8293 63.6773 47.8587C63.406 47.4496 63.1735 46.9775 62.9899 46.4736L62.9128 46.2704L62.7136 46.3584C62.2623 46.5606 61.8095 46.7725 61.3635 47.005C61.2054 47.0794 61.0657 47.0977 60.9316 47.0775C60.7019 47.043 60.4847 46.8925 60.3413 46.6745C60.1924 46.4606 60.1213 46.1847 60.16 45.9597C60.1904 45.758 60.2841 45.5904 60.5001 45.4559L60.5207 45.4492Z" fill="#638351"/>
<path d="M63.6698 14.3797C64.4444 15.1199 65.2065 15.8778 65.9528 16.6431C68.6645 19.4081 71.2478 22.3109 73.639 25.3518C74.8346 26.8722 75.9737 28.4431 77.0812 30.0289C77.6248 30.808 78.1896 31.5755 78.6248 32.3923C78.8649 32.8458 79.1216 33.2871 79.3426 33.7378L79.3763 33.8067L79.45 33.8374C80.2771 34.1631 81.0874 34.5354 81.8658 34.9569C82.831 35.4704 83.7616 36.0523 84.5982 36.7379L85.4082 37.4048L84.9006 36.4838C82.5667 32.2483 79.8594 28.217 76.8125 24.4588C75.165 22.4284 73.4224 20.477 71.5771 18.6232C70.6241 17.6696 69.6477 16.742 68.6534 15.8362C67.7188 14.9885 66.7406 14.203 65.8582 13.3337L65.8072 13.2818L65.7355 13.271C65.5849 13.2631 65.431 13.2449 65.2779 13.2219C64.3303 13.0794 63.3601 12.7616 62.4295 12.5382C62.3864 12.5318 62.3448 12.5157 62.3072 12.5051L61.5011 12.3005L62.1224 12.8555C62.6574 13.3337 63.1609 13.8907 63.665 14.379L63.6698 14.3797Z" fill="#638351"/>
<path d="M36.5083 12.7122C37.508 13.6482 38.4999 14.6028 39.4753 15.5695C42.9408 19.0175 46.2055 22.6612 49.0984 26.5976C50.4997 28.5075 51.8239 30.4745 53.0581 32.487C53.686 33.5194 54.2885 34.5577 54.8689 35.6125C55.2833 36.3721 55.7577 37.1555 56.1136 37.9457L56.2422 38.2302L56.4487 37.9961C58.4296 35.7255 61.194 34.103 64.0481 33.1865C67.3084 32.1396 70.8177 31.9109 74.2205 32.4225C75.4266 32.6039 76.6237 32.8772 77.7873 33.2436L78.423 33.4423L78.002 32.9223C77.924 32.8222 77.8454 32.7269 77.7627 32.6261C77.0968 31.8139 76.5256 30.8931 75.878 30.0247C73.604 26.9524 71.1883 23.9765 68.6306 21.1316C67.3351 19.6895 66.0052 18.2814 64.6297 16.9156C63.9525 16.2441 63.2698 15.5767 62.5753 14.9223C62.2111 14.5778 61.8022 14.0743 61.3762 13.5879C60.9501 13.1015 60.5123 12.6281 60.058 12.329C59.6167 12.0416 59.1152 11.927 58.6526 11.8132C57.0703 11.4329 55.4627 11.1224 53.8403 10.8785C50.2938 10.3453 46.6868 10.1173 43.1209 10.0723C40.5706 10.0424 38.014 10.1197 35.4647 10.311C35.1579 10.3336 34.8551 10.3617 34.5475 10.3892L34.0858 10.4327L34.4305 10.7448C35.1326 11.3807 35.8194 12.0537 36.5091 12.7074L36.5083 12.7122ZM53.197 17.5982C54.0382 17.4398 54.9519 17.4495 55.8613 17.5862C57.2157 17.7899 58.5721 18.2737 59.7017 18.8659C60.5497 19.3126 61.3507 19.9094 61.7521 20.7555C62.0242 21.3219 62.093 21.8086 62.035 22.2271C61.9577 22.741 61.6716 23.1792 61.2429 23.5568C60.595 24.1223 59.6177 24.5352 58.619 24.7976C57.6203 25.06 56.6042 25.1773 55.8841 25.182C55.6342 25.1837 55.3777 25.1648 55.1097 25.1245C54.1094 24.9741 53.0258 24.5313 52.1294 23.8858C51.1348 23.1764 50.3729 22.222 50.1409 21.1608C50.0696 20.821 50.0584 20.5051 50.1025 20.2121C50.2071 19.5158 50.6121 18.9382 51.179 18.4882C51.7458 18.0381 52.4773 17.7306 53.2025 17.5941L53.197 17.5982Z" fill="#C0EA6E"/>
<path d="M38.4744 19.5246C41.895 23.1082 44.8682 27.096 47.4204 31.3446C49.7996 35.3119 51.8357 39.478 53.5531 43.7779L53.9338 44.729L53.9459 43.7044C53.9495 43.4201 53.9681 43.1332 54.0115 42.845C54.0237 42.7634 54.036 42.6817 54.0538 42.596C54.3251 41.247 54.9456 39.9849 55.76 38.8649L55.8403 38.7541L55.7645 38.6396C55.4946 38.2209 55.26 37.7633 54.9938 37.3206C54.6702 36.771 54.3411 36.2255 54.012 35.68C53.3179 34.5346 52.5963 33.4095 51.8534 32.296C49.2026 28.3124 46.2345 24.5513 43.001 21.0253C41.3564 19.236 39.6387 17.5093 37.8789 15.8353C37.0228 15.0191 36.1509 14.2103 35.2679 13.4096C34.3422 12.5682 33.353 11.7909 32.4857 10.9189C32.4299 10.8663 32.3852 10.8056 32.346 10.7408L32.2798 10.6277L32.1504 10.6426C32.0058 10.6601 31.8516 10.6763 31.6975 10.6924C31.0438 10.7758 30.3854 10.8585 29.7295 10.9563C29.4238 11.0037 29.1318 11.058 28.8475 11.0938L28.289 11.1621L28.7617 11.4689C32.3088 13.7554 35.5466 16.4718 38.4689 19.5286L38.4744 19.5246Z" fill="#638351"/>
<path d="M70.0658 45.082C70.0793 44.9269 70.0969 44.7773 70.1152 44.6229L70.1549 44.3588L69.8849 44.3967C68.6836 44.5746 67.4827 44.782 66.2975 45.0802C65.7632 45.216 65.2485 45.3841 64.7379 45.5578L64.5471 45.6224L64.6161 45.8145C64.9475 46.7679 65.5726 47.6231 66.4551 48.1339C66.7883 48.3265 67.1438 48.4683 67.5076 48.523C68.0149 48.5993 68.5503 48.4883 68.9915 48.093C69.6265 47.5156 69.851 46.6408 69.973 45.8292C70.012 45.5699 70.04 45.3187 70.0665 45.0772L70.0658 45.082Z" fill="#638351"/>
<path d="M74.6583 40.6111C74.2323 40.547 73.7974 40.575 73.4009 40.7707C72.9027 41.0248 72.5861 41.5027 72.3719 42.0156L72.2422 42.3252L72.5744 42.2965C72.9169 42.2646 73.2587 42.2374 73.606 42.2061C74.652 42.1178 75.6972 42.0343 76.7457 41.9611L77.3142 41.9238L76.8499 41.5938C76.2787 41.1936 75.4767 40.7341 74.6583 40.6111Z" fill="#638351"/>
<path d="M80.4782 65.6381C80.3955 65.5373 80.2738 65.4355 80.1458 65.3426C80.0186 65.2449 79.8796 65.1602 79.7664 65.099C79.204 64.8032 78.6692 64.6492 78.0703 64.564C77.9315 64.5432 77.7879 64.5216 77.6429 64.5096C76.766 64.4171 75.8537 64.3978 74.9923 64.7888C74.8714 64.8443 74.7193 64.9442 74.5457 65.09C74.4734 65.1479 74.3802 65.2468 74.2709 65.3875C74.1015 65.6027 73.9903 65.8217 73.879 66.1389C73.8348 66.2698 73.7995 66.4069 73.7772 66.5558C73.7078 67.0168 73.7407 67.5472 73.9035 67.994C74.1272 68.6219 74.5732 69.1064 75.2117 69.3841C75.4505 69.4887 75.7046 69.5564 75.9726 69.5967C77.1356 69.7715 78.4644 69.3967 79.4025 68.919C79.4878 68.8729 79.5792 68.8179 79.6604 68.7662C80.283 68.3687 80.7957 67.7583 80.9066 67.0531C80.9767 66.5872 80.8512 66.0871 80.4734 65.6374L80.4782 65.6381Z" fill="#638351"/>
<path d="M52.9222 22.7132C53.4916 22.9952 54.1453 23.1721 54.8249 23.2743C56.2703 23.4916 57.8141 23.3799 58.8189 23.2069C59.4523 23.0959 59.9486 22.92 60.307 22.6842C60.6655 22.4483 60.8917 22.1484 60.9437 21.8026C60.9949 21.4616 60.8648 21.1228 60.6008 20.8278C60.3376 20.5279 59.9412 20.267 59.4125 20.0402C58.2438 19.5452 56.9506 19.0316 55.6201 18.8316C54.7873 18.7064 53.9461 18.7027 53.1121 18.9112C52.7054 19.0121 52.3015 19.192 51.9784 19.4529C51.6561 19.7089 51.4083 20.0547 51.3462 20.4677C51.2986 20.7846 51.3629 21.1381 51.5641 21.4925C51.8693 22.0343 52.3488 22.4256 52.9174 22.7125L52.9222 22.7132Z" fill="#638351"/>
<path d="M89.2524 53.6338C90.4151 54.1033 91.5632 54.605 92.703 55.1299C93.6841 58.337 94.5076 61.5841 95.1994 64.8606C95.7517 67.5022 96.2319 70.1674 96.6279 72.8396C96.6351 72.8898 96.6429 72.9352 96.6501 72.9853C95.5095 73.4425 94.3467 73.852 93.178 74.2362C93.1606 73.8309 93.1385 73.4248 93.1067 73.0174C92.9662 70.86 92.7296 68.7225 92.3951 66.5851C91.7403 62.3467 90.736 58.154 89.4008 54.0785C89.3548 53.9292 89.3039 53.7791 89.2531 53.629L89.2524 53.6338Z" fill="#516B43"/>
<path d="M58.0628 51.022C59.2101 50.8458 60.3545 50.6888 61.4981 50.5367C63.1351 50.3261 64.782 50.1464 66.4314 50.0163C67.452 49.934 68.4785 49.8771 69.4959 49.8484C71.6794 49.7789 73.8632 49.8371 76.034 50.08C78.8401 50.3939 81.5952 51.0143 84.2932 51.8521C83.3405 52.8826 82.191 53.7902 80.9372 54.5446C77.7776 56.4514 73.9037 57.4454 70.5 57.135C70.1525 57.1024 69.8065 57.0602 69.4619 57.0084C66.7769 56.6047 64.2028 55.594 61.9338 54.084C60.6611 53.2395 59.2733 52.2157 58.0581 51.0213L58.0628 51.022Z" fill="#516B43"/>
<path d="M56.2054 51.332C56.4816 51.2851 56.7634 51.2342 57.0436 51.1928C58.239 52.4873 59.7087 53.6168 60.6674 55.1508C61.6564 56.7433 61.8203 58.7127 62.2615 60.3358C62.67 61.8508 63.0435 63.3704 63.3806 64.9042C64.0668 68.0227 64.6227 71.1609 65.0121 74.333C65.1229 75.2238 65.2399 76.1057 65.3609 76.9931C65.4102 77.3492 65.4599 77.7348 65.4062 78.1246C65.3722 78.3503 65.3106 78.5325 65.282 78.6903L65.261 78.8296L65.1205 78.8526C64.1238 79.0367 63.1297 79.2359 62.1396 79.4407L61.9278 79.4825L61.8966 79.2666C61.7244 78.0032 61.4146 76.7436 61.1747 75.4749C60.8551 73.7915 60.5643 72.1124 60.2996 70.4225C59.8098 67.3974 59.3653 64.3644 58.759 61.3659C58.0728 57.9872 57.2215 54.6327 56.2013 51.3265L56.2054 51.332Z" fill="#516B43"/>
<path d="M62.3965 55.8576L62.8252 56.0988C64.4935 57.047 66.2903 57.7591 68.1797 58.1807C68.5958 58.2776 69.0251 58.352 69.451 58.416C75.4527 59.3184 81.9862 57.2362 85.7081 52.3054C86.44 52.548 87.1635 52.8139 87.8856 53.0895C87.9654 53.3077 88.0363 53.5197 88.1119 53.7325C88.7919 55.7205 89.3935 57.741 89.904 59.7821C90.9282 63.8746 91.6123 68.0487 91.9888 72.2501C92.0547 73.0163 92.1103 73.7859 92.1564 74.554C90.9376 74.9453 89.7203 75.3271 88.5056 75.7239C87.1769 76.1626 85.859 76.6274 84.5511 77.1232C84.4698 77.111 84.391 77.1139 84.3137 77.1072C79.3498 76.8225 74.373 77.3069 69.4615 78.1056C68.3676 78.2849 67.2675 78.4731 66.17 78.6764L65.8279 78.7379L65.9462 78.407C66.0057 78.2392 66.0504 78.0396 66.0822 77.8283C66.1905 77.108 66.1424 76.2561 66.1218 75.9043C66.0268 74.2252 65.7875 72.5293 65.5651 70.8507C65.117 67.4832 64.5127 64.1462 63.7266 60.8457C63.4993 59.8834 63.2562 58.9285 63.0036 57.9722C62.8812 57.5167 62.754 57.0605 62.6261 56.6091C62.5927 56.5058 62.5674 56.4136 62.5414 56.3262L62.4075 55.8494L62.3965 55.8576Z" fill="#A7D756"/>
<path d="M96.725 66.2687C96.0657 62.7761 95.2563 59.3052 94.2823 55.888C95.2677 56.3652 96.2399 56.865 97.185 57.4147C97.938 59.9588 98.6181 62.5313 99.2291 65.1081C99.7037 67.0947 100.138 69.09 100.511 71.1006C100.323 71.2147 100.134 71.3288 99.9423 71.4326C99.2211 71.8349 98.481 72.2 97.7213 72.5326C97.4448 70.4334 97.1126 68.3454 96.7243 66.2735L96.725 66.2687Z" fill="#B4C79E"/>
<path d="M52.0174 52.1362C52.9232 51.9384 53.8364 51.7565 54.7475 51.589C54.805 51.7597 54.8563 51.9393 54.909 52.1093C55.6967 54.6832 56.3814 57.2907 56.9708 59.9134C58.4833 66.7804 60.1736 74.0277 60.8192 81.0296C65.5113 80.7136 70.2378 79.3223 75.0044 78.8358C77.0425 78.6265 79.0929 78.4978 81.1452 78.4871C78.9311 79.4114 76.7533 80.4198 74.6126 81.5073C69.5414 82.066 64.5094 83.0479 59.4025 83.7141L59.1729 83.7434L59.1733 83.5126C59.1359 72.8895 55.7626 62.1872 52.0222 52.1369L52.0174 52.1362Z" fill="#B4C79E"/>
<path d="M12.6786 9.16381C15.3255 10.1462 17.8979 11.2008 20.4327 12.5052C22.9178 13.7824 25.2744 15.2957 27.4782 17.0119C32.0306 20.5546 35.8682 24.9129 39.0616 29.7147C42.4709 34.8387 45.1531 40.4033 47.4572 46.1076C49.825 51.9737 51.848 57.9843 53.7298 64.0229C55.1287 68.5205 56.1902 73.0165 56.8267 77.6695C57.1861 80.292 57.5456 82.9144 57.7111 85.5569C59.4664 85.5359 61.3211 85.4072 63.0598 85.1382C64.473 84.9185 65.8993 84.7744 67.3077 84.554C70.1704 84.1005 73.0373 83.6524 75.9226 83.3742C78.7675 83.1045 81.6372 82.9958 84.4896 83.1643C87.4727 83.3427 90.4192 83.8299 93.3222 84.5414C94.9079 84.932 96.4662 85.407 98.0203 85.9107C98.8137 86.1675 99.6049 86.4387 100.402 86.6715C101.049 86.862 101.747 87.1978 102.429 87.2169C102.731 87.3262 103.139 87.1813 103.203 86.793C103.719 83.5557 103.638 80.1894 103.314 76.9387C102.995 73.6593 102.431 70.4119 101.744 67.1952C100.505 61.4055 98.8821 55.6661 96.9538 50.0674C95.1438 44.8205 93.0148 39.6779 90.4514 34.7548C87.9116 29.8696 84.9797 25.1513 81.4898 20.8894C79.6374 18.6269 77.6638 16.4542 75.5203 14.4671C73.4843 12.5796 71.2151 11.2661 69.4499 9.13947C69.2302 8.87562 69.0064 8.60625 68.7031 8.44278C68.4406 8.30019 68.1391 8.25486 67.8431 8.20544C60.9011 7.11261 53.9604 6.10838 47.0207 5.06501C39.8951 4.50934 32.7067 4.63178 25.6046 5.4498C23.6376 5.67463 21.6811 5.95995 19.7343 6.31059C17.2392 6.76049 13.3729 7.21541 11.2431 8.65332C11.7216 8.82348 12.1946 8.99773 12.6676 9.17197L12.6786 9.16381ZM24.6076 7.9469C28.0713 7.5002 31.5591 7.21918 35.0462 7.10504C41.9958 6.87797 48.9267 7.39453 55.808 8.37019C57.7629 8.64937 59.7182 8.95808 61.6586 9.3333C62.5957 9.51347 63.5332 9.72318 64.4767 9.86013C65.4818 10.0112 66.4951 10.0752 67.5059 10.1879C67.5633 10.1965 67.6189 10.1852 67.6656 10.1677C69.5245 11.7682 71.4091 13.3284 73.1914 15.0156C75.1158 16.8323 76.9367 18.7512 78.6383 20.7799C82.0604 24.8745 85.0504 29.3363 87.5889 34.0346C90.1895 38.8406 92.3694 43.873 94.2301 49.0097C96.1432 54.2868 97.7343 59.6875 99.0374 65.1479C99.7929 68.3259 100.443 71.5225 100.937 74.7495C101.179 76.328 101.357 77.9115 101.524 79.4984C101.694 81.1052 101.896 82.7267 101.956 84.3417C101.974 84.8108 102.002 85.2767 102.035 85.7384C101.882 85.6515 101.723 85.5639 101.565 85.4763C100.865 85.0862 100.163 84.7105 99.4417 84.3663C98.0669 83.7127 96.5796 83.2534 95.1222 82.8231C92.133 81.9366 89.0559 81.3414 85.947 81.0557C76.8946 80.2299 68.236 82.3511 59.3748 83.5087C59.3325 71.1267 54.7806 58.661 50.3794 47.2443C48.0983 41.3225 45.4473 35.517 42.0826 30.1296C38.9145 25.0616 35.069 20.3975 30.502 16.5286C28.2661 14.6356 25.8489 12.907 23.2744 11.5082C21.5233 10.5574 19.665 9.66908 17.7429 9.04125C20.0308 8.66823 22.3122 8.2402 24.6083 7.94209L24.6076 7.9469Z" fill="#020302"/>
<path d="M25.8186 11.6109C27.5025 12.7481 29.2153 13.7913 30.8804 15.0533C32.7525 16.4692 34.5215 18.017 36.1925 19.6629C39.6148 23.0405 42.5871 26.871 45.1627 30.9317C47.8925 35.2365 50.1627 39.8307 52.054 44.5693C54.0399 49.5578 55.6089 54.7144 56.7781 59.9583C58.31 66.8921 60.0156 74.2006 60.6443 81.2491C65.4307 80.9571 70.2259 79.5319 75.0275 79.0408C80.0635 78.5211 85.1818 78.4951 90.1578 79.5133C91.4208 79.7719 92.6751 80.0882 93.9028 80.484C95.1912 80.8987 96.4546 81.5453 97.7798 81.8133C98.3067 81.922 98.6116 81.3589 98.4602 80.9334C98.4811 80.8924 98.4979 80.8458 98.5051 80.7978C98.6657 79.5991 98.5526 78.3985 98.46 77.1913C98.3682 75.9792 98.2167 74.7729 98.0646 73.5714C97.7586 71.1141 97.3868 68.6715 96.9253 66.2399C96.0018 61.3473 94.7862 56.5089 93.2412 51.7782C91.6755 46.9904 89.7303 42.3174 87.4174 37.8444C85.0585 33.286 82.3183 28.9207 79.1793 24.8637C76.9009 21.9184 74.4229 19.1296 71.7544 16.5332C70.6484 15.4584 69.5321 14.6473 68.3104 13.7564C67.2472 12.9827 66.4659 11.4411 65.0862 11.4055C60.4255 11.2843 56.2529 10.0332 51.7125 9.50285C46.2195 8.8636 40.959 9.11875 35.5069 9.37943C31.5085 9.57385 27.5108 9.76346 23.5172 9.9586C24.2696 10.553 25.0436 11.1015 25.8164 11.6253L25.8186 11.6109ZM85.8594 40.5567C90.6439 50.2386 79.0186 57.7037 70.5257 56.9326C67.4981 56.6591 64.5787 55.6014 62.0523 53.9153C59.1698 51.9939 55.7143 49.1957 55.0862 45.5604C54.3331 41.1943 58.5941 37.2678 62.1226 35.5441C67.2205 33.0497 73.3473 33.0869 78.6025 35.0802C81.4083 36.1454 84.4672 37.7397 85.8602 40.552L85.8594 40.5567ZM60.5053 70.3897C60.0156 67.3646 59.571 64.3316 58.9661 61.3235C58.2235 57.6367 57.2752 53.9828 56.1307 50.3976C57.4197 52.1433 59.3612 53.4223 60.5011 55.2486C61.4597 56.7826 61.6273 58.7279 62.0744 60.3765C62.4836 61.8867 62.8564 63.4111 63.1942 64.9401C63.8811 68.0538 64.4337 71.1817 64.8238 74.349C64.9346 75.2398 65.0509 76.1265 65.1719 77.0139C65.2212 77.37 65.2635 77.7398 65.2148 78.0959C65.186 78.288 65.1243 78.4702 65.0921 78.652C64.0946 78.8409 63.1012 79.0353 62.1064 79.2393C61.9309 77.9656 61.6265 76.7019 61.3859 75.438C61.0704 73.7601 60.7803 72.0762 60.5094 70.3952L60.5053 70.3897ZM84.3043 76.9095C79.3165 76.6212 74.3301 77.1042 69.4105 77.8918C68.3118 78.0704 67.2117 78.2586 66.1149 78.4571C66.4088 77.6419 66.3266 76.333 66.3021 75.8775C66.2044 74.1833 65.9754 72.4841 65.753 70.8055C65.3057 67.4331 64.7027 64.0865 63.9229 60.7772C63.6956 59.8148 63.4533 58.8551 63.1999 57.9036C63.0775 57.4481 62.9558 56.9878 62.8232 56.5357C62.7979 56.4435 62.7685 56.3458 62.7439 56.2488C64.4307 57.2047 66.2451 57.9293 68.1482 58.3578C74.6964 59.8236 82.1785 57.6827 86.1722 52.0512C86.4331 51.6828 86.6715 51.3012 86.8964 50.9127C86.8964 50.9127 86.8964 50.9127 86.8956 50.9175C87.2613 51.8712 87.6111 52.8323 87.9403 53.8001C88.6154 55.7874 89.2138 57.7976 89.7201 59.8332C90.7363 63.9147 91.4122 68.0777 91.7799 72.2729C91.8835 73.472 91.9576 74.6716 92.0071 75.8724C92.0383 76.6088 92.0173 77.3669 92.0519 78.1136C91.8729 78.0671 91.6987 78.0212 91.5197 77.9747C89.1552 77.3933 86.7353 77.0491 84.3051 76.9047L84.3043 76.9095ZM95.0027 64.8999C95.555 67.5416 96.0312 70.2012 96.4327 72.8693C96.6364 74.2161 96.8052 75.5674 96.9795 76.9146C97.1184 77.9766 97.2312 79.0495 97.4756 80.093C96.6871 79.6405 95.7861 79.3184 94.9554 79.0167C94.4632 78.8396 93.9696 78.672 93.4691 78.5182C93.5195 77.7597 93.4783 76.9923 93.4595 76.2381C93.4317 75.1535 93.3833 74.0757 93.311 72.9942C93.1656 70.8361 92.9264 68.6835 92.5975 66.542C91.9393 62.2933 90.9317 58.0902 89.598 54.0052C89.2263 52.864 88.8244 51.728 88.3958 50.6077C88.1966 50.0769 87.9872 49.5494 87.7722 49.026C88.3357 47.5244 88.6096 45.9303 88.5372 44.3283C91.3962 50.9312 93.5209 57.8607 94.9986 64.8944L95.0027 64.8999ZM65.7251 13.4709C66.6211 14.3471 67.5986 15.1374 68.5291 15.9796C69.5242 16.8806 70.4959 17.8075 71.444 18.7604C73.2853 20.6087 75.0238 22.5545 76.6673 24.5794C79.7019 28.3211 82.4051 32.3469 84.7358 36.572C83.8863 35.8746 82.9414 35.2906 81.968 34.7661C81.18 34.3431 80.3649 33.9701 79.5283 33.643C79.3032 33.1868 79.0473 32.7407 78.8112 32.2927C78.3646 31.4545 77.7949 30.6863 77.2554 29.9127C76.1486 28.3221 75.0047 26.7505 73.8091 25.2301C71.4098 22.1781 68.8217 19.2746 66.1067 16.4993C65.3556 15.7333 64.5935 14.9754 63.8196 14.2304C63.3196 13.7476 62.816 13.1906 62.2722 12.7062C62.3105 12.7119 62.3529 12.7232 62.3904 12.7338C63.4583 12.9876 64.6032 13.3808 65.7292 13.4764L65.7251 13.4709ZM43.1343 10.2757C48.3169 10.3428 53.5794 10.7903 58.6182 12.0095C59.0855 12.1239 59.5576 12.2391 59.9595 12.496C60.8027 13.0402 61.6974 14.3484 62.4509 15.0657C63.1454 15.7202 63.8281 16.3876 64.5053 17.0591C65.8712 18.4234 67.2019 19.8267 68.4933 21.2633C71.0422 24.102 73.4586 27.073 75.7285 30.1399C76.3625 31.0013 76.944 31.9187 77.6173 32.7467C77.6959 32.842 77.7738 32.9421 77.8525 33.0374C73.3737 31.6422 68.4596 31.5467 63.9956 32.9823C61.1106 33.9089 58.3146 35.5462 56.304 37.8516C55.9406 37.0456 55.4662 36.2622 55.0559 35.5081C54.4762 34.4485 53.8704 33.3998 53.2418 32.3722C52.0042 30.3495 50.6807 28.3776 49.2746 26.467C46.3744 22.5148 43.096 18.8641 39.6257 15.4155C38.651 14.4439 37.6583 13.4941 36.6595 12.5533C35.9683 11.9092 35.2871 11.2322 34.5761 10.59C34.8836 10.5626 35.1864 10.5344 35.4932 10.5118C38.0329 10.3191 40.5847 10.2411 43.1343 10.2757ZM29.7699 11.1442C30.425 11.0512 31.0794 10.963 31.7371 10.8851C31.8865 10.8682 32.0358 10.8514 32.1852 10.8346C32.2325 10.9104 32.2854 10.9822 32.3533 11.0514C33.2294 11.9296 34.2227 12.7124 35.1444 13.5483C36.0233 14.3434 36.8904 15.1515 37.7513 15.9685C39.5063 17.6418 41.2199 19.3629 42.8597 21.1515C46.0851 24.6665 49.0492 28.4221 51.6919 32.3946C52.43 33.5074 53.1516 34.6324 53.8463 35.7731C54.1754 36.3186 54.51 36.86 54.8336 37.4096C55.091 37.846 55.3305 38.3044 55.6036 38.7334C54.7768 39.8712 54.1376 41.16 53.8653 42.5482C53.7869 42.9391 53.7546 43.3173 53.7523 43.6902C52.0364 39.3806 49.9922 35.2035 47.6041 31.23C45.0438 26.9703 42.0632 22.9666 38.6337 19.3768C35.7033 16.3088 32.4478 13.58 28.8871 11.2865C29.181 11.2521 29.4738 11.193 29.7691 11.149L29.7699 11.1442Z" fill="#020302"/>
<path d="M70.2516 42.35C68.47 42.5782 66.7002 42.8916 64.9617 43.3865C64.8239 43.4247 64.6845 43.4725 64.5459 43.5155C64.6196 42.6672 64.8568 41.8385 65.1181 40.9791C65.4028 40.0299 64.2834 39.174 63.5628 40.0282C62.6148 41.1576 62.2595 42.7396 62.3575 44.3013C61.6879 44.5885 61.0338 44.9027 60.4141 45.281C59.3583 45.9227 60.3498 47.7268 61.4691 47.183C61.9145 46.9553 62.3672 46.7435 62.8185 46.5412C63.0055 47.0555 63.2406 47.5427 63.5241 47.9683C64.8684 49.9973 67.698 51.3264 69.9097 49.832C71.767 48.579 71.8467 46.3565 72.0844 44.3198C73.7663 44.1356 75.4491 44.0105 77.1318 43.8215C77.5648 43.7737 78.0026 43.7265 78.4396 43.6842C78.5837 43.9956 78.6865 44.3204 78.7269 44.6703C78.7904 45.2249 78.7162 45.7835 78.4829 46.2935C78.3714 46.5468 78.2259 46.7656 78.0381 46.9731C77.6984 47.3444 77.5235 47.5636 77.5255 48.1041C77.5256 48.5265 77.9408 48.8246 78.305 48.9088C79.0334 49.0773 79.611 48.3931 79.9815 47.8497C80.3713 47.2748 80.6241 46.6351 80.7561 45.9527C80.9203 45.0885 80.8449 44.2226 80.5816 43.4022C80.6143 43.5102 83.4363 42.9376 83.5823 42.9104C83.683 42.8912 83.7838 42.872 83.8664 42.8107C84.0379 42.6794 84.0475 42.4205 83.9758 42.2133C83.7958 41.6853 83.2433 41.3567 82.6929 41.274C82.2573 41.2085 79.9017 41.9347 79.6409 41.5861C78.1776 39.6325 75.3283 38.0108 72.9611 38.8139C71.3105 39.376 70.6088 40.788 70.253 42.3404L70.2516 42.35ZM68.8525 47.9444C68.179 48.5503 67.3204 48.4016 66.5497 47.9616C65.7163 47.4827 65.1196 46.6662 64.8016 45.754C65.3074 45.5796 65.8166 45.4155 66.3454 45.2839C67.5155 44.9883 68.7123 44.7754 69.9129 44.6023C69.8946 44.7567 69.8811 44.9118 69.8635 45.0614C69.76 46.0428 69.6163 47.2588 68.8525 47.9444ZM73.4811 40.9547C74.507 40.4459 75.8869 41.1641 76.7269 41.7619C75.6783 41.835 74.6283 41.9178 73.5824 42.0061C73.2399 42.0381 72.8933 42.0646 72.5508 42.0966C72.7525 41.6014 73.0475 41.1694 73.4763 40.9539L73.4811 40.9547Z" fill="#020302"/>
<path d="M81.1839 64.3299C80.4287 63.6565 79.397 63.3246 78.4202 63.1483C77.3005 62.9456 76.0845 62.8954 74.9833 63.2209C74.005 63.5109 73.2287 64.2143 72.8005 65.1419C72.0186 66.8267 72.4458 69.0959 74.0518 70.1329C74.8684 70.6584 75.8457 70.8643 76.8029 70.7479C76.8309 70.757 76.8533 70.7702 76.8828 70.7698C78.0427 70.9 79.3182 70.522 80.3152 69.9451C81.3068 69.3723 82.0553 68.3651 82.2511 67.2258C82.4403 66.1296 81.999 65.0614 81.1839 64.3299ZM79.5543 68.5932C79.4732 68.6448 79.3927 68.6916 79.3082 68.733C78.1948 69.3022 76.4878 69.7184 75.2892 69.1944C74.6971 68.9335 74.2966 68.5049 74.0855 67.9232C73.8918 67.3882 73.896 66.6768 74.0599 66.2054C74.1705 65.893 74.2664 65.711 74.4192 65.5081C74.523 65.3714 74.6154 65.2773 74.6657 65.2357C74.8276 65.1029 74.9694 65.0064 75.069 64.9624C75.8727 64.5971 76.7468 64.6106 77.614 64.7017C78.3841 64.788 78.9957 64.9193 79.6672 65.2707C79.8622 65.3737 80.1937 65.6101 80.3178 65.7614C81.1907 66.7913 80.5292 67.9687 79.5503 68.5876L79.5543 68.5932Z" fill="#020302"/>
<path d="M52.0016 24.0532C53.1724 24.8922 54.6381 25.3974 55.873 25.3867C58.2498 25.3659 63.6154 24.1836 61.9316 20.6696C61.4999 19.7649 60.658 19.1473 59.7915 18.6929C57.8731 17.6825 55.3246 16.99 53.1528 17.405C51.3334 17.7551 49.4793 19.1167 49.9325 21.213C50.1743 22.3396 50.9757 23.3244 51.9961 24.0573L52.0016 24.0532ZM53.1614 19.1055C55.2409 18.5882 57.4399 19.4246 59.3367 20.2205C61.3801 21.0827 61.2328 22.5829 58.7913 23.0016C56.8776 23.3278 52.901 23.442 51.7458 21.3923C51.0889 20.2279 52.1039 19.3688 53.1614 19.1055Z" fill="#020302"/>
</svg>
