<svg width="1920" height="1088" viewBox="0 0 1920 1088" fill="none" xmlns="http://www.w3.org/2000/svg">
<path d="M1609 130.5H1812.5M1702.5 118H1796.5M1734 111H1783.5" stroke="black" stroke-width="2" stroke-linecap="round"/>
<path d="M1235.3 7.33962H1317M1221.54 13H1274M1188 1H1274" stroke="black" stroke-width="2" stroke-linecap="round"/>
<path d="M33.3 1081.34H115M19.54 1087H72M-14 1075H72" stroke="black" stroke-width="2" stroke-linecap="round"/>
<path d="M107.5 342.5H155M92 338H130" stroke="black" stroke-width="2" stroke-linecap="round"/>
<path d="M1644.5 990.5H1845.5M1751.5 982H1877M1814 975H1840.5M1340.5 1034H1552.5M1490 1024H1530M893 1034H1053M847 1044.5H925.5M893 921.5H976M1131 298.5H1257M1203 305H1273M950 427.5H1009.5M1812 323H1945.5M1794.5 305H1854.5M1806 680H1854.5M1837 674.5H1874.5" stroke="black" stroke-width="2" stroke-linecap="round"/>
</svg>
