<svg width="118" height="118" viewBox="0 0 118 118" fill="none" xmlns="http://www.w3.org/2000/svg">
<path d="M75.6144 66.071C74.4483 64.8901 73.3044 63.6796 72.1716 62.4654C72.3716 62.4506 72.5751 62.4247 72.7788 62.421C72.9342 62.4136 73.086 62.4173 73.2415 62.4173C73.4747 62.5616 73.7227 62.6986 73.9708 62.8578C74.5779 63.2428 75.1554 63.6722 75.7032 64.1386C76.8471 65.1196 77.8984 66.2598 78.7499 67.5037C79.4643 68.5513 80.064 69.6841 80.5305 70.8613C78.8646 69.2917 77.2247 67.6961 75.6181 66.0673L75.6144 66.071Z" fill="#A7D756"/>
<path d="M84.9986 74.9223C84.5692 74.5447 84.1434 74.1708 83.7177 73.7896C83.2772 73.4009 82.8515 73.0047 82.4147 72.6123C82.3925 72.5161 82.3703 72.4199 82.3554 72.3236C82.2037 71.6017 82.0297 70.8947 81.7928 70.1913C81.2967 68.7402 80.6082 67.3631 79.7419 66.0971C79.0015 65.0235 78.1501 64.0462 77.1913 63.1689C78.5943 63.7501 79.8493 64.6792 80.8673 66.0082C82.8774 68.6403 83.7399 71.8942 85.0023 74.9186L84.9986 74.9223Z" fill="#E4F6C2"/>
<path d="M102.194 72.7937C104.619 70.295 106.773 67.4742 108.887 64.8569C107.758 64.5645 106.684 63.913 105.711 63.2799C104.952 62.7876 104.208 62.2656 103.456 61.7585C101.42 60.374 99.4692 58.8451 97.5664 57.2903C92.7207 53.3108 88.1452 48.9796 83.9065 44.3634C82.7256 43.0788 81.5706 41.761 80.4601 40.4061C79.2533 38.9253 77.8577 37.3742 77.0026 35.6603C75.1035 37.5593 73.3303 39.5843 71.6496 41.6795C70.491 43.1121 69.3804 44.5855 68.2994 46.0736C68.0699 46.392 67.8404 46.7178 67.6146 47.0398C67.5887 47.0657 67.5739 47.1027 67.5517 47.125C67.0741 46.6474 66.5929 46.1662 66.1116 45.6849L66.0931 45.6664C65.9932 45.5665 65.8932 45.4665 65.7933 45.3666C66.7965 44.4522 67.722 43.4379 68.6437 42.4347C69.236 41.7832 69.832 41.1205 70.4058 40.4505C70.9944 39.7731 71.5719 39.0919 72.1346 38.396C73.2414 37.0448 74.2891 35.6418 75.2775 34.2091C75.9734 33.1948 76.6212 32.199 77.1543 31.1329C77.9502 32.6247 79.0312 33.9426 80.027 35.3086C81.0487 36.7005 82.1 38.0628 83.1847 39.3992C85.2762 41.972 87.4492 44.4633 89.7518 46.8399C94.4495 51.6857 99.6395 56.0983 105.37 59.6817C107.747 61.1625 110.256 62.3175 112.589 63.8574C110.034 67.3964 107.476 71.1612 104.619 74.5521C103.7 75.6479 102.742 76.7029 101.75 77.695C100.495 78.9277 99.2212 80.2086 97.6146 80.986C95.2898 82.104 92.9909 81.16 91.2511 79.6422C92.9428 79.372 94.6531 78.5502 96.1079 77.7098C98.3549 76.4105 100.354 74.7002 102.197 72.7974L102.194 72.7937Z" fill="#E4F6C2"/>
<path d="M76.3401 56.4905C74.0856 53.9325 71.7571 51.4412 69.3842 48.9942C69.1917 48.8017 68.9955 48.6055 68.8068 48.4093C68.9141 48.2427 69.0104 48.0725 69.1103 47.9207C70.3245 46.1438 71.6128 44.4187 72.9973 42.7677C73.8376 41.7645 74.6853 40.7687 75.5479 39.7877C75.9514 39.3249 76.3956 38.8881 76.8213 38.4328C76.9731 38.7104 77.1582 38.977 77.3507 39.2435C77.7949 39.8506 78.2576 40.4466 78.7204 41.0352C79.6792 42.2531 80.6824 43.4414 81.7115 44.6038C83.8845 47.0655 86.187 49.4125 88.5599 51.6818C92.7579 55.6946 97.1779 59.6112 102.001 62.8651C103.334 63.761 104.778 64.5902 105.97 65.6711C106.151 65.8377 101.12 71.3942 100.717 71.7829C98.4439 73.9744 95.8933 75.955 92.9429 77.1359C91.7546 77.6134 89.9444 78.2538 88.982 76.9878C87.7788 75.4071 87.0829 73.1934 86.3758 71.3461C86.0316 70.4466 85.6762 69.5433 85.2838 68.6623C86.3758 68.2884 87.3642 67.6257 87.9121 66.5744C88.5562 65.338 88.46 63.8943 88.0195 62.6097C87.0829 59.874 84.6508 56.7089 81.4597 56.8496C80.3196 56.9014 78.6944 57.4678 78.1133 58.5673C77.5284 57.8713 76.9398 57.1791 76.3327 56.4979L76.3401 56.4905Z" fill="#C0EA6E"/>
<path d="M86.0539 73.6597C85.8021 72.8379 85.5578 72.0161 85.2913 71.2017C84.2881 68.118 82.985 64.9937 80.7676 62.5689C78.5613 60.1553 76.8695 57.4122 74.8261 54.8283C73.9376 53.7103 73.0122 52.6146 72.0571 51.5485L76.4549 46.4991C77.3915 47.4727 78.3058 48.4685 79.1684 49.5013C81.8485 52.7071 84.066 56.2794 86.7128 59.5112C88.6489 61.8915 90.8145 64.0793 93.1652 66.0524C94.1832 66.9075 95.2308 67.7182 96.2969 68.5104C95.7046 68.9547 95.042 69.4174 94.3238 69.8986C88.6822 73.6523 86.1797 73.5413 86.0613 73.6597L86.0539 73.6597Z" fill="#A7D756"/>
<path d="M81.6042 62.991C81.445 62.7281 81.2562 62.4727 81.0452 62.2025C80.5418 61.5509 80.0531 60.892 79.5311 60.259C79.4423 60.1479 79.3498 60.0406 79.2572 59.9332C79.6496 59.5704 79.9606 59.1484 80.4603 58.9152C80.9712 58.6783 81.5783 58.6043 82.1373 58.6894C83.6698 58.9337 84.8026 60.2886 85.5985 61.5139C86.2797 62.5579 86.8794 63.8091 86.7609 65.0899C86.6462 66.3227 85.7503 66.9964 84.7952 67.6035C83.9697 65.9043 82.9665 64.3162 81.6042 62.991Z" fill="#516B43"/>
<path d="M41.3943 82.996C41.6497 82.4148 39.4397 79.5754 39.0658 78.9572C38.9918 78.8313 38.9177 78.6981 38.8992 78.5537C38.8881 78.4315 38.9177 78.3057 38.9474 78.1872L38.9659 78.1021C39.3249 76.6843 39.9395 75.3146 40.5466 73.9745C41.0611 72.8528 41.6164 71.7497 42.2457 70.6909C43.4451 68.6549 44.8518 66.7373 46.4399 64.9937C47.9281 63.3427 49.5828 61.836 51.3782 60.5219C53.8141 58.7302 56.3573 57.0902 58.993 55.6095C60.3035 54.8691 61.6472 54.1695 63.0095 53.5105C63.6833 53.1848 66.034 51.9594 66.7077 52.2038C66.952 52.2926 67.2 52.3778 67.4407 52.4703C68.6586 52.9182 69.9135 53.3217 71.1166 53.8067C71.8126 54.5249 72.5048 55.2467 73.1971 55.9686C73.1119 55.9723 73.0231 55.9723 72.9342 55.9797C72.1865 56.0167 71.4387 56.1055 70.6909 56.2166C69.2324 56.4313 67.7997 56.8126 66.4041 57.2827C63.6203 58.223 60.9846 59.5187 58.5266 61.1327C55.3467 63.2242 52.4777 65.7896 49.9789 68.6808C48.3094 70.6021 46.8064 72.6677 45.4849 74.8407C44.5187 76.4214 43.5821 78.0687 42.8454 79.7753C42.4901 80.6045 42.1014 81.4152 41.7312 82.2371C41.6201 82.4888 41.5053 82.7442 41.398 82.9996L41.3943 82.996Z" fill="#638351"/>
<path d="M51.5779 35.1494C54.2618 37.4927 56.9012 39.8878 59.4962 42.3273C60.7326 43.4897 61.958 44.6632 63.1759 45.8441C63.2055 45.9033 63.2351 45.9552 63.2795 46.0144C63.3943 46.1662 63.535 46.2698 63.6793 46.3402C65.819 48.428 67.9291 50.5381 70.0169 52.6778C69.5431 52.4038 69.0656 52.1262 68.5695 51.8819C67.5996 51.4006 66.6112 50.9675 65.5969 50.5899C63.5165 49.8125 61.473 49.2054 59.6554 47.8838C56.4385 45.548 53.8472 42.2903 52.1406 38.718C51.6742 37.7407 51.2818 36.7412 50.9523 35.7084C50.7968 35.2271 50.6598 34.7422 50.5377 34.2498C50.8857 34.546 51.2299 34.8458 51.5742 35.1457L51.5779 35.1494Z" fill="#E4F6C2"/>
<path d="M13.2749 54.9876C13.5969 53.1996 14.8852 51.5115 15.7181 49.9234C16.5029 48.4353 17.3136 46.9582 18.1761 45.5182C19.9086 42.6234 21.8521 39.8506 24.225 37.4407C28.2304 33.3687 33.4945 30.5701 39.2731 30.3516C40.7279 30.3035 42.1754 30.322 43.608 30.5775C44.3558 30.7107 45.0813 30.9032 45.8106 31.0994C46.34 31.2438 46.8545 31.4252 47.3802 31.5362C47.8355 31.9323 48.2872 32.3321 48.7462 32.7171C48.3834 33.6278 48.8795 34.8124 49.146 35.7009C49.4458 36.6967 49.8086 37.674 50.2269 38.6253C51.0636 40.5577 52.1556 42.3679 53.4327 44.0375C54.684 45.6737 56.1314 47.1433 57.7602 48.4168C58.6339 49.0979 59.5371 49.742 60.5292 50.2455C61.5436 50.7564 62.6097 51.0377 63.7091 51.2931C63.9609 51.3524 64.2052 51.419 64.4606 51.4893C64.1719 51.556 63.8868 51.6337 63.6055 51.7225C62.4542 52.0816 61.3325 52.5814 60.2775 53.1626C57.7936 54.536 55.3762 56.0574 52.9552 57.5456C50.5786 59.0041 48.2946 60.6144 46.2733 62.5468C45.8735 62.9244 45.4885 63.3094 45.1109 63.7092C43.6413 65.2603 42.3271 66.9595 41.1795 68.7586C40.3836 70.0135 39.6544 71.3277 39.0436 72.6863C38.4624 73.9856 37.8701 75.3701 37.6073 76.7805C36.0155 74.4928 34.283 72.3087 32.469 70.2282C28.645 65.8489 24.299 61.9471 19.5606 58.5858C18.9239 58.1342 18.2909 57.7085 17.6542 57.3087C16.2586 56.4239 14.8333 55.6502 13.2748 54.995L13.2749 54.9876Z" fill="#C0EA6E"/>
<path d="M41.5312 93.069C41.3757 92.6618 41.161 92.2768 40.9759 91.877C40.5872 91.0663 40.1911 90.263 39.7802 89.4671C38.9954 87.9419 38.1329 86.4501 37.2296 84.9915C35.4009 82.0449 33.3426 79.1944 31.1104 76.5476C26.6645 71.2798 21.6558 66.5747 16.1178 62.4805C14.5741 61.3366 12.9934 60.2297 11.3831 59.1747C10.5798 58.6453 9.76911 58.1234 8.93619 57.6384C8.38831 57.3201 7.85894 56.9758 7.28145 56.7537C9.91348 51.5303 12.5122 46.2515 15.9068 41.4872C16.5843 40.5358 17.295 39.5955 18.0465 38.6885C22.3407 33.4763 28.0045 28.5158 34.753 27.135C36.7409 26.7315 38.5327 26.887 40.5058 27.1794C42.4788 27.4719 43.9707 28.5417 45.544 29.7522C44.0225 28.9267 41.8865 28.7083 40.1874 28.5935C37.3592 28.4084 34.4014 28.9896 31.7619 29.9928C25.6612 32.3028 21.082 37.193 17.569 42.5644C17.2691 43.0197 16.9804 43.4788 16.6916 43.9452C14.4075 47.673 12.005 51.4822 10.4873 55.5839C12.6047 56.3983 13.2081 56.8536 14.1447 57.4126C15.3774 58.1419 16.5843 58.9045 17.7688 59.7115C20.064 61.2663 22.2629 62.9543 24.3656 64.7756C28.6264 68.4664 32.4764 72.6495 35.7637 77.2324C37.87 80.168 39.4803 83.3701 41.4867 86.3316C42.3086 84.5991 43.1008 82.8371 44.0299 81.1601C44.7999 79.7756 45.6402 78.4096 46.4843 77.0696C47.9724 74.7004 49.6012 72.4052 51.43 70.2803C51.6558 70.0175 51.8816 69.7621 52.1111 69.5029C55.9241 65.2606 60.5921 61.7993 65.9043 59.6633C67.3888 59.0673 68.925 58.5972 70.4724 58.2122C71.2461 58.0234 72.0272 57.8494 72.8083 57.6977C73.3562 57.594 73.9633 57.5348 74.3742 57.1757C75.4107 58.2714 76.4472 59.3598 77.4763 60.4555C75.6032 59.8336 73.5561 59.6744 71.6126 59.8854C64.4606 60.6554 58.2933 65.3346 53.7585 70.6764C53.4327 71.0614 53.1106 71.4501 52.796 71.8462C48.2131 77.6137 44.9961 84.3622 42.279 91.1737C42.0272 91.803 41.7903 92.4323 41.5497 93.0653L41.5312 93.069Z" fill="#E4F6C2"/>
<path d="M31.762 45.1405C30.8366 46.4806 30.6144 48.1835 30.8477 49.7642C31.2956 52.7886 33.6426 55.7057 36.5152 56.7422C38.0256 57.2901 39.7396 57.0272 41.0722 56.1462C43.471 54.5618 44.2855 51.6817 43.7561 48.9535C43.2934 46.5732 41.746 44.204 39.5026 43.1674C36.8558 41.9495 33.4501 42.6973 31.7657 45.1368L31.762 45.1405Z" fill="#E4F6C2"/>
<path d="M40.95 53.9217C40.0874 54.8508 38.8177 55.4468 37.5405 55.1692C34.3828 54.4844 31.5287 49.9422 32.8021 46.8622C33.6388 44.8336 36.1116 43.9155 38.1476 44.53C41.6903 45.5999 43.5524 51.1119 40.95 53.9217Z" fill="#638351"/>
<path d="M12.7119 55.4913C12.7119 55.4913 15.2032 48.7131 18.2906 43.0789C19.5714 40.7467 20.9597 38.6033 22.3108 37.2225C26.9345 32.5175 39.5505 26.3502 47.18 30.0113L49.9268 32.5656L50.3821 36.012C45.9103 34.8497 36.7778 33.9057 29.8515 39.8842C27.6452 41.787 25.5463 44.382 23.7027 47.0251C19.7565 52.6964 17.0098 58.6194 17.0098 58.6194L12.7119 55.4913Z" fill="#638351"/>
<path d="M73.0784 54.2883C72.7638 53.9736 63.5313 44.1118 59.4888 40.6987C55.4464 37.2856 49.9343 32.5583 49.9343 32.5583C49.9343 32.5583 49.3383 37.5151 53.5547 42.9606C57.7675 48.4097 59.1631 49.1094 61.8729 49.8868C64.5826 50.6642 73.0821 54.2846 73.0821 54.2846L73.0784 54.2883Z" fill="#638351"/>
<path d="M67.6145 47.0324C67.8366 46.7067 68.0698 46.3846 68.2993 46.0662C69.3766 44.5818 70.4871 43.1084 71.6495 41.6721C71.8679 41.8905 72.0863 42.1089 72.3047 42.3273C71.0202 43.5452 69.8282 44.7891 69.3395 45.6701C68.8546 46.5401 68.4807 47.1583 68.2068 47.5951C68.0143 47.4026 67.8107 47.2212 67.6145 47.0324Z" fill="#C0EA6E"/>
<path d="M71.3051 52.4188L67.5588 48.5244C67.5588 48.5244 67.7476 48.3134 68.2103 47.5916C68.4806 47.1584 68.8582 46.5365 69.3431 45.6666C69.8318 44.7855 71.0237 43.5417 72.3083 42.3238C74.4332 40.3248 76.8283 38.4257 76.8283 38.4257L79.9268 42.5089L76.4618 46.4995L72.064 51.5488L71.3088 52.4151L71.3051 52.4188Z" fill="#638351"/>
<path d="M86.0758 73.6897L86.0647 73.6786C86.0647 73.6786 86.061 73.6601 86.061 73.6527C86.1794 73.5342 88.6819 73.6453 94.3236 69.8916C95.0417 69.4104 95.7044 68.9476 96.2967 68.5034C100.794 65.1606 102.009 62.8506 102.009 62.8506L107.062 65.4308C107.062 65.4308 104.363 68.9513 101.342 72.1719C99.8801 73.723 98.3438 75.2075 97.0074 76.1885C92.8983 79.1944 90.5625 79.9533 88.793 78.8131C87.0161 77.6729 86.3905 73.8933 86.0869 73.6934L86.0758 73.6897Z" fill="#638351"/>
<path d="M81.6781 72.1422C81.6781 72.1422 80.7637 69.4361 79.4829 67.0965C78.1983 64.7606 74.5298 62.1434 74.5298 62.1434C74.5298 62.1434 79.0535 61.0477 81.4227 64.52C83.7919 67.9924 87.3716 77.5691 87.3716 77.5691L81.6818 72.1459L81.6781 72.1422Z" fill="#516B43"/>
<path d="M68.2107 47.5914C68.481 47.1582 68.8586 46.5363 69.3435 45.6664C69.8322 44.7853 71.0242 43.5415 72.3087 42.3236C72.6937 42.7086 73.075 43.0899 73.46 43.4749C74.4632 44.4781 75.4775 45.4776 76.4622 46.4993L72.0644 51.5486C70.8391 50.1753 69.5471 48.8537 68.2107 47.5914Z" fill="#516B43"/>
<path d="M86.0758 73.6896L86.0647 73.6785C86.0647 73.6785 86.061 73.66 86.061 73.6526C86.1795 73.5341 88.6819 73.6452 94.3236 69.8915C95.0417 69.4102 95.7044 68.9475 96.2967 68.5033C97.1074 69.1067 97.9255 69.6952 98.7399 70.2875C99.6062 70.9169 100.476 71.5425 101.342 72.1718C99.8801 73.7229 98.3438 75.2073 97.0074 76.1883C92.8984 79.1942 90.5625 79.9531 88.793 78.813C87.0161 77.6728 86.3905 73.8932 86.0869 73.6933L86.0758 73.6896Z" fill="#516B43"/>
<path d="M66.1114 45.685L66.0929 45.6665C65.993 45.5665 65.893 45.4666 65.7931 45.3666C66.7963 44.4523 67.7217 43.4379 68.6435 42.4347C69.2358 41.7832 69.8318 41.1206 70.4056 40.4505C70.8165 40.8615 71.2274 41.2724 71.6457 41.6759C70.487 43.1085 69.3765 44.5818 68.2955 46.07C68.066 46.3883 67.8365 46.7141 67.6107 47.0362C67.122 46.5771 66.6112 46.1255 66.1114 45.685Z" fill="#B4C79E"/>
<path d="M91.2473 79.6385C92.939 79.3683 94.6493 78.5465 96.1041 77.7062C98.3512 76.4068 100.35 74.6965 102.194 72.7938C103.001 73.3787 103.808 73.9636 104.615 74.5485C103.697 75.6442 102.738 76.6992 101.746 77.6913C100.491 78.9241 99.2174 80.2049 97.6108 80.9823C95.286 82.1003 92.9872 81.1563 91.2473 79.6385Z" fill="#B4C79E"/>
<path d="M17.6541 57.3013C18.6907 55.2357 20.8896 51.0673 23.7067 47.0212C27.3567 49.5977 31.0771 52.0743 34.6494 54.7655C38.318 57.5234 41.8089 60.5108 45.1146 63.6981C43.645 65.2492 42.3308 66.9484 41.1832 68.7475C40.3873 70.0024 39.6581 71.3166 39.0473 72.6752C38.4661 73.9745 37.8738 75.359 37.6109 76.7694C36.0191 74.4817 34.2867 72.2976 32.4727 70.2171C28.6487 65.8378 24.3027 61.9361 19.5643 58.5748C18.9276 58.1231 18.2946 57.6974 17.6578 57.2976L17.6541 57.3013Z" fill="#A7D756"/>
<path d="M42.2457 70.6912C43.4451 68.6551 44.8518 66.7376 46.4399 64.994C47.6467 66.2008 48.8276 67.4261 49.9789 68.681C48.3093 70.6023 46.8064 72.668 45.4848 74.841C44.5186 76.4217 43.5821 78.069 42.8454 79.7755C42.49 80.6048 42.1013 81.4155 41.7311 82.2373C41.6201 82.489 41.5053 82.7445 41.3979 82.9999C41.6534 82.4187 39.4434 79.5794 39.0695 78.9611C38.9955 78.8353 38.9214 78.702 38.9029 78.5576C38.8918 78.4355 38.9214 78.3096 38.951 78.1912L38.9695 78.106C39.3286 76.6882 39.9431 75.3185 40.5502 73.9784C41.0648 72.8568 41.6201 71.7536 42.2494 70.6949L42.2457 70.6912Z" fill="#516B43"/>
<path d="M12.7121 55.4911C12.7121 55.4911 15.2034 48.713 18.2908 43.0787C19.0016 43.597 19.7049 44.1227 20.3972 44.6372C21.4855 45.4516 22.5924 46.2402 23.7029 47.0249C19.7567 52.6962 17.0099 58.6192 17.0099 58.6192L12.7121 55.4911Z" fill="#516B43"/>
<path d="M41.531 93.069C41.3755 92.6618 41.1608 92.2768 40.9757 91.877C40.587 91.0663 40.1909 90.263 39.78 89.4671C38.9952 87.9419 38.1326 86.45 37.2294 84.9915C35.4007 82.0448 33.3424 79.1944 31.1102 76.5475C26.6642 71.2798 21.6556 66.5747 16.1176 62.4804C14.5739 61.3365 12.9932 60.2297 11.3829 59.1746C10.5796 58.6453 9.7689 58.1233 8.93598 57.6384C8.3881 57.32 7.85873 56.9757 7.28124 56.7536C9.91327 51.5303 12.512 46.2514 15.9066 41.4871C16.473 41.824 17.0209 42.1867 17.5613 42.5643C17.2615 43.0197 16.9727 43.4787 16.684 43.9451C14.3999 47.6729 11.9974 51.4822 10.4797 55.5838C12.5971 56.3982 13.2005 56.8536 14.1371 57.4125C15.3698 58.1418 16.5766 58.9044 17.7612 59.7114C20.0564 61.2662 22.2553 62.9542 24.358 64.7756C28.6188 68.4663 32.4688 72.6494 35.756 77.2324C37.8624 80.1679 39.4727 83.3701 41.4791 86.3316C42.3009 84.5991 43.0931 82.837 44.0223 81.16C44.7923 79.7755 45.6326 78.4096 46.4767 77.0695C47.9648 74.7003 49.5936 72.4051 51.4224 70.2803C51.8851 70.8022 52.3367 71.3279 52.7846 71.8573C48.2017 77.6248 44.9848 84.3733 42.2676 91.1847C42.0159 91.814 41.779 92.4434 41.5384 93.0764L41.531 93.069Z" fill="#B4C79E"/>
<path d="M9.64711 60.9624C11.0168 61.8879 12.3717 62.8429 13.6896 63.8425C16.3364 65.8526 18.8685 68.0293 21.308 70.2763C26.2315 74.8074 30.6219 79.8123 34.7717 85.0505C35.9156 86.4979 37.0077 87.9823 38.0849 89.4742C38.655 90.259 39.2177 91.0438 39.7693 91.8397C40.4615 92.8355 41.2093 93.7684 41.8016 94.8345C43.4489 90.7884 45.522 86.8496 47.6727 83.0329C49.6607 79.5125 52.0039 76.0808 54.6656 73.0342C57.305 70.0098 60.3368 67.3185 63.8166 65.2899C65.612 64.2423 67.5518 63.3834 69.5693 62.8837C75.1702 68.877 81.2191 74.3484 87.342 79.7975C88.6821 80.9895 90.2035 82.2445 91.8472 82.9996C93.2761 83.6586 94.7828 83.9288 96.3413 83.6956C98.2218 83.4142 99.8543 82.3148 101.239 81.0636C106.973 75.892 111.741 69.2583 115.709 62.6764C113.459 61.9286 111.375 60.6736 109.353 59.4742C106.336 57.6788 103.416 55.6909 100.665 53.5105C95.2418 49.2052 90.4812 44.2299 85.9205 39.0399C84.6655 37.6073 83.4847 36.1154 82.2445 34.668C81.2672 33.5278 80.3566 32.3358 79.42 31.1697C78.6574 30.222 78.1132 29.0263 77.2433 28.1934C74.7964 30.8921 73.1638 34.383 70.7613 37.1779C69.6508 38.4735 68.5032 39.7322 67.3038 40.9464C66.3265 41.9385 65.3381 42.9713 64.2608 43.8708C60.9402 40.6391 57.5419 37.4925 54.0659 34.4311C51.3043 31.9952 48.5131 29.5002 45.6404 27.242C44.1078 26.0426 42.8788 25.0579 40.9502 24.573C39.3139 24.1584 37.6 24.1029 35.923 24.2843C32.5876 24.6507 29.3448 25.9464 26.5165 27.7307C23.1552 29.8482 20.1975 32.5616 17.6839 35.6305C16.3993 37.1964 15.2184 38.8511 14.1116 40.5503C13.0195 42.2346 11.9349 43.993 11.076 45.8069C10.1099 47.8392 9.07703 49.842 8.15526 51.8965C7.20758 53.9992 6.13404 56.05 5.15674 58.1601C5.54543 58.3045 5.90453 58.4784 6.2451 58.6783C7.4223 59.3521 8.39218 60.2775 9.636 60.9661L9.64711 60.9624ZM75.6071 66.071C74.441 64.8901 73.2971 63.6796 72.1643 62.4654C72.3642 62.4505 72.5678 62.4246 72.7714 62.4209C72.9269 62.4135 73.0787 62.4172 73.2342 62.4172C73.4674 62.5616 73.7154 62.6986 73.9634 62.8577C74.5705 63.2427 75.148 63.6722 75.6959 64.1386C76.8398 65.1196 77.8911 66.2598 78.7426 67.5036C79.457 68.5512 80.0567 69.684 80.5232 70.8612C78.8573 69.2916 77.2174 67.6961 75.6108 66.0673L75.6071 66.071ZM84.9913 74.9221C84.5619 74.5446 84.1362 74.1707 83.7105 73.7894C83.27 73.4007 82.8442 73.0046 82.4074 72.6122C82.3852 72.5159 82.363 72.4197 82.3482 72.3234C82.1964 71.6016 82.0224 70.8945 81.7855 70.1912C81.2894 68.74 80.6009 67.3629 79.7347 66.0969C78.9943 65.0233 78.1429 64.046 77.1841 63.1687C78.5871 63.7499 79.842 64.6791 80.86 66.008C82.8701 68.6401 83.7327 71.894 84.995 74.9184L84.9913 74.9221ZM81.4597 56.8422C80.3195 56.894 78.6944 57.4604 78.1132 58.5599C77.5283 57.8639 76.9397 57.1717 76.3326 56.4905C75.0444 55.032 73.7339 53.5957 72.4049 52.1778C73.9486 50.3824 78.1206 45.5589 80.5083 43.2082C80.9044 43.671 81.3005 44.1411 81.7041 44.5964C83.8771 47.0582 86.1796 49.4052 88.5525 51.6744C92.4173 55.3689 96.4782 58.9782 100.861 62.0655C94.9864 69.4878 89.1559 72.2309 87.0051 73.049C86.783 72.4641 86.5757 71.8866 86.3647 71.3424C86.0204 70.4429 85.665 69.5396 85.2727 68.6586C86.3647 68.2847 87.3531 67.6221 87.901 66.5707C88.5451 65.3343 88.4489 63.8906 88.0083 62.606C87.0718 59.8703 84.6396 56.7052 81.4486 56.8459L81.4597 56.8422ZM105.974 65.6601C106.155 65.8267 101.124 71.3832 100.721 71.7719C98.4476 73.9634 95.897 75.9439 92.9466 77.1248C91.7583 77.6023 89.9481 78.2427 88.9856 76.9767C88.5192 76.3622 88.1305 75.6551 87.7862 74.911C90.7551 73.8597 98.0737 68.9918 102.383 63.0984C103.608 63.9017 104.893 64.6754 105.977 65.6564L105.974 65.6601ZM68.6401 42.4308C69.8433 41.1166 71.0093 39.7729 72.1347 38.3958C73.2379 37.0409 74.2855 35.6453 75.2739 34.2053C75.9735 33.1947 76.6177 32.1951 77.147 31.1253C77.9392 32.6209 79.0239 33.935 80.0234 35.3047C81.0414 36.7003 82.0927 38.0552 83.1811 39.3953C85.269 41.9644 87.442 44.4557 89.7482 46.836C94.4459 51.6818 99.6359 56.0944 105.366 59.6778C107.739 61.1623 110.249 62.3173 112.581 63.8573C109.202 68.5327 105.822 73.6154 101.739 77.6986C100.487 78.935 99.2102 80.2195 97.6036 80.9895C95.2788 82.1075 92.9799 81.1635 91.2401 79.6457C92.9318 79.3755 94.6458 78.55 96.0969 77.7134C101.298 74.7111 105.163 69.4693 108.876 64.8605C107.747 64.568 106.669 63.9128 105.7 63.2835C104.941 62.7911 104.197 62.2691 103.445 61.762C101.405 60.3812 99.4582 58.856 97.5518 57.2901C92.706 53.3106 88.1342 48.9831 83.8919 44.3632C82.7073 43.075 81.556 41.7608 80.4491 40.4096C79.2423 38.9288 77.8467 37.3778 76.9879 35.6675C73.7894 38.8659 70.939 42.4197 68.2848 46.0809C68.033 46.4288 67.7813 46.7842 67.537 47.1396C66.9521 46.5547 66.3672 45.9698 65.7786 45.3812C66.7855 44.4631 67.711 43.4488 68.6253 42.4456L68.6401 42.4308ZM68.8104 48.4057C68.9178 48.2391 69.014 48.0688 69.114 47.917C70.3282 46.1401 71.6164 44.415 73.0009 42.764C73.8413 41.7608 74.689 40.765 75.5515 39.784C75.955 39.3213 76.3993 38.8844 76.825 38.4291C76.9768 38.7067 77.1619 38.9733 77.3544 39.2398C77.7986 39.8469 78.2613 40.4429 78.724 41.0315C78.9128 41.2721 79.1127 41.5091 79.3052 41.746C75.3738 45.5441 72.5123 49.4274 71.3721 51.071C70.7132 50.375 70.0543 49.6865 69.3879 48.9979C69.1954 48.8054 68.9992 48.6092 68.8104 48.413L68.8104 48.4057ZM81.6041 62.991C81.4449 62.7282 81.2561 62.4728 81.0451 62.2025C80.5417 61.551 80.053 60.8921 79.531 60.259C79.4422 60.148 79.3497 60.0406 79.2571 59.9333C79.6495 59.5705 79.9605 59.1485 80.4602 58.9153C80.9711 58.6783 81.5782 58.6043 82.1372 58.6894C83.6697 58.9338 84.8025 60.2887 85.5984 61.514C86.2796 62.5579 86.8793 63.8091 86.7608 65.09C86.6461 66.3227 85.7502 66.9964 84.7951 67.6036C83.9696 65.9044 82.9664 64.3163 81.6041 62.991ZM57.7603 48.4093C58.634 49.0905 59.5409 49.7383 60.5293 50.2381C61.54 50.7526 62.6098 51.0303 63.7092 51.2857C63.961 51.3449 64.209 51.4153 64.457 51.4782C64.1683 51.5448 63.8869 51.6263 63.6019 51.7114C62.4469 52.0668 61.3253 52.5665 60.2739 53.1514C57.7937 54.5285 55.3726 56.0463 52.9553 57.5308C50.575 58.993 48.2946 60.5996 46.2697 62.5357C44.3299 64.3866 42.6197 66.4893 41.1834 68.7474C40.3838 70.0061 39.6545 71.3202 39.0474 72.6825C38.4662 73.9819 37.8739 75.3664 37.6111 76.7768C36.0192 74.489 34.2868 72.3049 32.4729 70.2245C28.6525 65.8489 24.3028 61.9434 19.5644 58.5821C19.2498 58.3563 18.9277 58.1379 18.6131 57.9269C19.557 55.591 23.4144 46.7435 29.4892 41.6386C36.2858 35.9229 43.0491 34.0831 49.4533 36.5856C49.6903 37.2741 49.9457 37.959 50.2381 38.629C51.0785 40.5577 52.1631 42.3679 53.4403 44.0374C54.6952 45.6774 56.1352 47.147 57.764 48.4131L57.7603 48.4093ZM39.0622 78.9535C38.9882 78.8276 38.9141 78.6944 38.8993 78.5463C38.8882 78.4241 38.9178 78.2983 38.9474 78.1798C38.9511 78.1539 38.9622 78.128 38.9659 78.1021C39.325 76.6842 39.9395 75.3145 40.5466 73.9745C41.0612 72.8528 41.6165 71.7496 42.2421 70.6872C44.5743 66.7262 47.6764 63.2316 51.3709 60.5145C53.8067 58.7228 56.3499 57.0828 58.9857 55.6021C60.3035 54.8617 61.6436 54.1583 63.0022 53.5031C63.6796 53.1736 66.0266 51.952 66.7004 52.1964C66.9447 52.2852 67.1927 52.3704 67.437 52.4666C68.6587 52.9182 69.9099 53.318 71.1093 53.8067C71.8052 54.5248 72.4975 55.2467 73.186 55.9649C73.1009 55.9686 73.0121 55.9686 72.9232 55.976C72.1754 56.013 71.4202 56.1018 70.6799 56.2129C69.2213 56.4276 67.7887 56.8089 66.3894 57.2827C63.6056 58.223 60.9699 59.5187 58.5155 61.1364C53.2107 64.6272 48.7685 69.4249 45.4701 74.8407C44.5076 76.4251 43.5637 78.0724 42.827 79.779C42.4716 80.6082 42.0829 81.4189 41.7127 82.2408C41.598 82.4962 41.4869 82.7479 41.3796 83.0033C41.635 82.4222 39.4287 79.5865 39.0548 78.9609L39.0622 78.9535ZM51.5745 35.1455C54.2584 37.4888 56.8978 39.8839 59.4928 42.3235C60.7292 43.4859 61.9546 44.6593 63.1725 45.8402C63.2021 45.8995 63.2317 45.9513 63.2761 46.0105C63.3909 46.1623 63.5316 46.266 63.6759 46.3363C65.8156 48.4241 67.9257 50.5342 70.0135 52.6739C69.5397 52.4 69.0622 52.1223 68.5661 51.878C67.5962 51.3968 66.6078 50.9636 65.5935 50.586C63.5131 49.8087 61.4696 49.2015 59.652 47.88C56.4351 45.5441 53.8438 42.2865 52.1372 38.7141C51.6708 37.7369 51.2784 36.7373 50.9489 35.7045C50.7934 35.2233 50.6565 34.7383 50.5343 34.246C50.8823 34.5421 51.2265 34.842 51.5708 35.1418L51.5745 35.1455ZM48.75 32.7134C48.4798 33.3835 48.6834 34.2016 48.9129 34.9419C40.9576 32.0434 34.0313 35.5194 27.9751 40.8131C23.8142 44.4483 18.2725 53.7289 17.1471 56.9792C15.9107 56.224 14.6409 55.554 13.2675 54.9802C13.5896 53.1922 14.8816 51.5078 15.7145 49.9197C16.4956 48.4279 17.31 46.9545 18.1762 45.5108C19.9124 42.6196 21.8522 39.8432 24.2251 37.4333C28.2305 33.3612 33.4946 30.5626 39.2769 30.3479C40.7317 30.2924 42.1792 30.3183 43.6155 30.57C44.3633 30.7033 45.0888 30.8958 45.8218 31.0957C46.3512 31.2401 46.862 31.4178 47.3914 31.5325C47.8467 31.9286 48.2984 32.321 48.7574 32.7134L48.75 32.7134ZM18.0356 38.6771C22.326 33.4686 27.9899 28.5081 34.7458 27.1273C36.73 26.7201 38.5217 26.883 40.4948 27.1754C42.4679 27.4679 43.9561 28.534 45.5294 29.7445C44.0116 28.9153 41.8719 28.7006 40.1691 28.5895C37.3445 28.4081 34.383 28.9856 31.7436 29.9888C25.1247 32.4987 20.29 38.0441 16.6733 43.9412C14.3892 47.669 11.9904 51.4819 10.4689 55.5799C12.5827 56.3906 13.1824 56.8496 14.1264 57.4086C15.3591 58.1379 16.5622 58.9041 17.7468 59.7038C20.0457 61.2622 22.2446 62.9503 24.3398 64.7716C28.6007 68.4624 32.4506 72.6455 35.7379 77.2284C37.8406 80.1603 39.4583 83.3624 41.4647 86.3239C42.2828 84.5877 43.075 82.8256 44.0079 81.1524C44.7779 79.7679 45.6219 78.4056 46.4622 77.0618C48.1318 74.4002 49.9864 71.8348 52.0854 69.4989C55.8983 65.2566 60.5664 61.7953 65.8823 59.663C67.3667 59.067 68.903 58.5969 70.4504 58.2119C71.224 58.0231 72.0014 57.8454 72.7862 57.6973C73.3341 57.5937 73.9412 57.5345 74.3521 57.1754C75.3887 58.2637 76.4215 59.3632 77.4543 60.4552C75.5812 59.8333 73.534 59.6741 71.5905 59.8851C64.4385 60.6625 58.2675 65.338 53.7401 70.6798C48.6352 76.6953 45.1629 83.8992 42.2606 91.1771C42.0089 91.8064 41.772 92.4357 41.535 93.065C41.3796 92.6578 41.1648 92.2728 40.9723 91.873C40.5874 91.066 40.1876 90.259 39.7804 89.4594C38.9919 87.9305 38.133 86.4424 37.2261 84.9801C35.401 82.0297 33.3428 79.1867 31.1069 76.5362C26.6646 71.2721 21.656 66.567 16.118 62.4728C14.5669 61.3289 12.9936 60.222 11.3796 59.1633C10.5763 58.6339 9.76558 58.112 8.93265 57.627C8.38478 57.3086 7.85541 56.9644 7.28162 56.746C10.443 50.4824 13.5489 44.1263 18.043 38.6771L18.0356 38.6771Z" fill="#020302"/>
<path d="M31.7623 45.1405C30.8368 46.4806 30.6147 48.1835 30.8479 49.7642C31.2958 52.7886 33.6428 55.7057 36.5155 56.7422C38.0258 57.2901 39.7398 57.0272 41.0725 56.1462C43.4713 54.5618 44.2857 51.6817 43.7563 48.9535C43.2936 46.5732 41.7462 44.204 39.5029 43.1674C36.856 41.9495 33.4503 42.6973 31.766 45.1368L31.7623 45.1405ZM40.954 53.9251C40.0915 54.8542 38.8217 55.4503 37.5446 55.1726C34.3869 54.4878 31.5327 49.9456 32.8062 46.8656C33.6428 44.837 36.1157 43.9189 38.1517 44.5334C41.6944 45.6033 43.5564 51.1154 40.954 53.9251Z" fill="#020302"/>
</svg>
