<svg width="45" height="48" viewBox="0 0 45 48" fill="none" xmlns="http://www.w3.org/2000/svg">
<path d="M14.0359 35.7243C17.5684 41.0537 25.1636 42.0552 28.5197 41.8898L40.5337 23.5936C38.257 17.3986 34.6484 11.9206 27.7742 8.21447C20.9 4.50837 9.63515 11.8839 6.54802 12.4439C3.46089 13.0039 2.31749 10.7739 1.2876 11.1051C0.257717 11.4364 0.28711 13.7361 1.47766 15.2293C2.66821 16.7225 6.51253 18.5167 8.08168 21.1871C9.65083 23.8574 9.62042 29.0627 14.0359 35.7243Z" fill="white"/>
<path d="M32.1353 17.2098C30.1459 14.3023 24.6064 9.03821 18.363 11.2418C10.5587 13.9962 8.72236 16.2916 5.50882 14.9144" stroke="#F796BF" stroke-width="0.605632"/>
</svg>
