<svg width="41" height="41" viewBox="0 0 41 41" fill="none" xmlns="http://www.w3.org/2000/svg">
<g clip-path="url(#clip0_218_1137)">
<path d="M20.717 40.6416C9.67079 40.6416 0.717041 31.6879 0.717041 20.6416C0.717041 9.59535 9.67079 0.641602 20.717 0.641602C31.7633 0.641602 40.717 9.59535 40.717 20.6416C40.717 31.6879 31.7633 40.6416 20.717 40.6416ZM15.862 18.6466L20.717 13.7916L25.5745 18.6491L28.3995 15.8241L20.717 8.1416L13.037 15.8216L15.862 18.6466ZM8.21704 20.6416L11.042 23.4666L13.867 20.6416L11.042 17.8166L8.21704 20.6416ZM15.862 22.6366L13.0333 25.4579L13.037 25.4616L20.717 33.1416L28.3995 25.4591L25.5745 22.6329L20.717 27.4916L15.862 22.6366ZM27.567 20.6416L30.392 23.4666L33.217 20.6416L30.392 17.8166L27.567 20.6416ZM23.582 20.6391L20.717 17.7741L18.5983 19.8916L18.3545 20.1354L17.8533 20.6379L17.8483 20.6416L17.8533 20.6454L20.7158 23.5091L23.5833 20.6429L23.5845 20.6416L23.582 20.6391Z" fill="black"/>
</g>
<defs>
<clipPath id="clip0_218_1137">
<rect width="40" height="40" fill="white" transform="translate(0.717041 0.641602)"/>
</clipPath>
</defs>
</svg>
