<svg width="46" height="47" viewBox="0 0 46 47" fill="none" xmlns="http://www.w3.org/2000/svg">
<path d="M31.353 34.8879C27.8206 40.2173 20.2253 41.2188 16.8692 41.0533L4.85522 22.7572C7.13191 16.5621 10.7405 11.0841 17.6147 7.37804C24.4889 3.67195 35.7538 11.0475 38.8409 11.6075C41.928 12.1675 43.0714 9.93747 44.1013 10.2687C45.1312 10.6 45.1018 12.8996 43.9113 14.3929C42.7207 15.8861 38.8764 17.6803 37.3072 20.3506C35.7381 23.021 35.7685 28.2262 31.353 34.8879Z" fill="white"/>
<path d="M12.46 16.3733C14.4493 13.4659 19.9888 8.20179 26.2323 10.4054C34.0366 13.1598 35.8729 15.4552 39.0864 14.078" stroke="#F796BF" stroke-width="0.605632"/>
</svg>
