<svg width="62" height="59" viewBox="0 0 62 59" fill="none" xmlns="http://www.w3.org/2000/svg">
<path d="M38.9379 43.2747C34.7633 49.9061 25.4862 51.3519 21.3694 51.2458L6.12261 29.1747C8.73369 21.5188 12.9974 14.703 21.3131 9.96422C29.6289 5.22544 43.6434 13.9378 47.442 14.535C51.2406 15.1323 52.5773 12.3671 53.8487 12.7433C55.1201 13.1195 55.1503 15.938 53.7346 17.8018C52.3189 19.6656 47.6603 21.9747 45.8147 25.2916C43.969 28.6086 44.1561 34.9854 38.9379 43.2747Z" fill="#F796BF" stroke="black" stroke-width="2.16834"/>
<path d="M15.2563 21.1339C17.61 17.5143 24.2456 10.905 31.9588 13.4251C41.6002 16.5752 43.9162 19.3347 47.8139 17.5548" stroke="black" stroke-width="0.656608"/>
<path d="M47.3228 9.1241C53.9894 6.6241 65.5228 5.4241 58.3228 20.6241" stroke="black" stroke-width="2" stroke-linecap="round"/>
</svg>
