<svg width="62" height="60" viewBox="0 0 62 60" fill="none" xmlns="http://www.w3.org/2000/svg">
<path d="M23.0777 44.6097C27.5592 51.0376 36.894 52.046 41.0012 51.7467L55.1944 28.9837C52.2265 21.4588 47.6473 14.8509 39.1181 10.508C30.5889 6.16508 16.9992 15.5262 13.2328 16.3012C9.46651 17.0762 8.00135 14.3769 6.74904 14.8124C5.49673 15.248 5.59896 18.0647 7.10066 19.86C8.60236 21.6553 13.3642 23.7429 15.3637 26.9695C17.3632 30.1961 17.4758 36.5747 23.0777 44.6097Z" fill="#F796BF" stroke="black" stroke-width="2.16834"/>
<path d="M44.7204 21.4037C42.1993 17.8986 35.2605 11.6084 27.6743 14.4881C18.1915 18.0876 16.0077 20.9529 12.0307 19.358" stroke="black" stroke-width="0.656608"/>
<path d="M3.32276 23.6242C0.98943 17.6242 -0.877236 6.6242 10.3228 10.6242" stroke="black" stroke-width="2" stroke-linecap="round"/>
</svg>
