<svg width="41" height="41" viewBox="0 0 41 41" fill="none" xmlns="http://www.w3.org/2000/svg">
<g clip-path="url(#clip0_218_1139)">
<path fill-rule="evenodd" clip-rule="evenodd" d="M20.217 40.6416C9.17079 40.6416 0.217041 31.6879 0.217041 20.6416C0.217041 9.59535 9.17079 0.641602 20.217 0.641602C31.2633 0.641602 40.217 9.59535 40.217 20.6416C40.217 31.6879 31.2633 40.6416 20.217 40.6416ZM22.6195 17.8829V14.9254H29.387V10.4154H10.9608V14.9254H17.7283V17.8816C12.2283 18.1341 8.09204 19.2241 8.09204 20.5291C8.09204 21.8341 12.2283 22.9229 17.7283 23.1766V32.6541H22.6195V23.1741C28.1108 22.9216 32.237 21.8329 32.237 20.5291C32.237 19.2254 28.1108 18.1366 22.6195 17.8829ZM22.6195 22.3703V22.3679C22.482 22.3779 21.7733 22.4204 20.192 22.4204C18.9295 22.4204 18.0408 22.3829 17.7283 22.3679V22.3716C12.8683 22.1579 9.24079 21.3116 9.24079 20.2991C9.24079 19.2879 12.8683 18.4416 17.7283 18.2241V21.5291C18.0458 21.5516 18.9558 21.6054 20.2133 21.6054C21.722 21.6054 22.4783 21.5429 22.6195 21.5304V18.2266C27.4695 18.4429 31.0883 19.2891 31.0883 20.2991C31.0883 21.3116 27.4695 22.1554 22.6195 22.3703Z" fill="black"/>
</g>
<defs>
<clipPath id="clip0_218_1139">
<rect width="40" height="40" fill="white" transform="translate(0.217041 0.641602)"/>
</clipPath>
</defs>
</svg>
