<svg width="1225" height="205" viewBox="0 0 1225 205" fill="none" xmlns="http://www.w3.org/2000/svg">
<path d="M3.14842 105.46C2.61549 104.826 1.6693 104.744 1.03505 105.277C0.400793 105.81 0.318652 106.756 0.85158 107.39L3.14842 105.46ZM35.4064 146.183L36.5548 145.218L36.5548 145.218L35.4064 146.183ZM129.359 151.046L130.4 152.126L130.4 152.126L129.359 151.046ZM149.019 132.099L147.978 131.019L147.978 131.019L149.019 132.099ZM215.2 143.715L213.849 144.367L213.849 144.367L215.2 143.715ZM258.536 168.492L258.647 169.988L258.647 169.988L258.536 168.492ZM283.921 166.605L284.032 168.101L284.032 168.101L283.921 166.605ZM336.432 182.48L337.356 181.298L337.356 181.298L336.432 182.48ZM440.773 176.359L441.83 177.423L441.83 177.423L440.773 176.359ZM446.282 170.883L445.225 169.819L445.225 169.819L446.282 170.883ZM525.582 148.637L525.238 150.097L525.238 150.097L525.582 148.637ZM557.577 156.182L557.921 154.722L557.921 154.722L557.577 156.182ZM621.012 141.905L621.952 143.074L621.952 143.074L621.012 141.905ZM725.329 159.185L726.6 158.388L726.6 158.388L725.329 159.185ZM729.341 165.583L730.612 164.786L730.612 164.786L729.341 165.583ZM831.413 195.531L830.784 194.169L830.784 194.169L831.413 195.531ZM858.934 182.819L859.563 184.181L859.563 184.181L858.934 182.819ZM901.099 149.374L899.915 148.453L899.915 148.453L901.099 149.374ZM922.279 122.125L923.463 123.046L923.463 123.046L922.279 122.125ZM1029.49 106.781L1028.62 108L1028.62 108L1029.49 106.781ZM1087.06 121.323L1087.25 122.811L1087.25 122.811L1087.06 121.323ZM1096.4 120.15L1096.21 118.662L1096.21 118.662L1096.4 120.15ZM1166.01 80.7232L1167.19 81.6445L1167.21 81.6275L1167.22 81.6102L1166.01 80.7232ZM1213.21 18.887C1213.7 18.2189 1213.56 17.2802 1212.89 16.7903C1212.22 16.3005 1211.28 16.445 1210.79 17.113L1213.21 18.887ZM1192.28 17.392C1191.46 17.2395 1190.68 17.7759 1190.53 18.5901C1190.37 19.4044 1190.91 20.1882 1191.72 20.3407L1192.28 17.392ZM1199.21 17.7638L1199.61 19.2094L1199.61 19.2094L1199.21 17.7638ZM1223.32 2L1224.64 2.69948C1225 2.02107 1224.79 1.18216 1224.15 0.754666C1223.52 0.32717 1222.66 0.448786 1222.17 1.0366L1223.32 2ZM1215.88 34.7027C1216.23 35.4518 1217.13 35.7722 1217.87 35.4185C1218.62 35.0647 1218.94 34.1706 1218.59 33.4215L1215.88 34.7027ZM0.85158 107.39L34.258 147.148L36.5548 145.218L3.14842 105.46L0.85158 107.39ZM34.258 147.148C58.6631 176.195 103.043 178.489 130.4 152.126L128.318 149.966C102.209 175.127 59.8393 172.931 36.5548 145.218L34.258 147.148ZM130.4 152.126L150.06 133.179L147.978 131.019L128.318 149.966L130.4 152.126ZM150.06 133.179C169.594 114.353 202.131 120.078 213.849 144.367L216.551 143.063C203.935 116.914 168.966 110.793 147.978 131.019L150.06 133.179ZM213.849 144.367C221.981 161.218 239.788 171.389 258.647 169.988L258.425 166.996C240.774 168.307 224.139 158.786 216.551 143.063L213.849 144.367ZM258.647 169.988L284.032 168.101L283.81 165.109L258.425 166.996L258.647 169.988ZM284.032 168.101C302.57 166.722 320.952 172.281 335.508 183.662L337.356 181.298C322.208 169.455 303.088 163.676 283.81 165.109L284.032 168.101ZM335.508 183.662C367.382 208.583 413.18 205.898 441.83 177.423L439.716 175.295C412.14 202.702 368.042 205.291 337.356 181.298L335.508 183.662ZM441.83 177.423L447.339 171.947L445.225 169.819L439.716 175.295L441.83 177.423ZM447.339 171.947C467.644 151.765 497.175 143.478 525.238 150.097L525.926 147.177C496.863 140.322 466.27 148.901 445.225 169.819L447.339 171.947ZM525.238 150.097L557.233 157.642L557.921 154.722L525.926 147.177L525.238 150.097ZM557.233 157.642C579.928 162.994 603.862 157.61 621.952 143.074L620.072 140.736C602.708 154.688 579.722 159.864 557.921 154.722L557.233 157.642ZM621.952 143.074C654.19 117.168 702.204 125.132 724.058 159.982L726.6 158.388C703.783 122.004 653.698 113.716 620.072 140.736L621.952 143.074ZM724.058 159.982L728.07 166.38L730.612 164.786L726.6 158.388L724.058 159.982ZM728.07 166.38C749.84 201.097 794.559 214.207 832.042 196.893L830.784 194.169C794.653 210.859 751.57 198.209 730.612 164.786L728.07 166.38ZM832.042 196.893L859.563 184.181L858.305 181.457L830.784 194.169L832.042 196.893ZM859.563 184.181C876.353 176.425 891.006 164.803 902.283 150.295L899.915 148.453C888.934 162.581 874.663 173.901 858.305 181.457L859.563 184.181ZM902.283 150.295L923.463 123.046L921.095 121.204L899.915 148.453L902.283 150.295ZM923.463 123.046C948.555 90.7627 995.223 84.0782 1028.62 108L1030.36 105.562C995.669 80.7078 947.183 87.6405 921.095 121.204L923.463 123.046ZM1028.62 108C1045.54 120.117 1066.49 125.414 1087.25 122.811L1086.87 119.835C1066.87 122.344 1046.66 117.237 1030.36 105.562L1028.62 108ZM1087.25 122.811L1096.59 121.638L1096.21 118.662L1086.87 119.835L1087.25 122.811ZM1096.59 121.638C1124.59 118.123 1150.01 103.727 1167.19 81.6445L1164.83 79.8019C1148.13 101.251 1123.43 115.245 1096.21 118.662L1096.59 121.638ZM1167.22 81.6102L1213.21 18.887L1210.79 17.113L1164.8 79.8362L1167.22 81.6102ZM1191.72 20.3407C1193.1 20.5992 1194.5 20.4589 1195.8 20.2001C1197.08 19.9442 1198.42 19.5384 1199.61 19.2094L1198.81 16.3181C1197.51 16.6768 1196.35 17.0305 1195.21 17.2579C1194.08 17.4826 1193.12 17.5498 1192.28 17.392L1191.72 20.3407ZM1199.61 19.2094C1208.04 16.873 1217.45 11.3427 1224.47 2.9634L1222.17 1.0366C1215.55 8.93233 1206.68 14.1378 1198.81 16.3182L1199.61 19.2094ZM1221.99 1.30052C1219.27 6.45845 1216.77 12.629 1215.41 18.5476C1214.08 24.4034 1213.8 30.299 1215.88 34.7027L1218.59 33.4215C1216.95 29.952 1217.04 24.8873 1218.34 19.2159C1219.62 13.6072 1222.02 7.68328 1224.64 2.69948L1221.99 1.30052Z" fill="#18F096"/>
</svg>
